<svg xmlns="http://www.w3.org/2000/svg" xmlns:xlink="http://www.w3.org/1999/xlink" version="1.2" width="177.09mm" height="30.29mm" viewBox="7.3481 -0.0000 100.7724 17.2385">
<line transform="translate(8.5358, 6.0000)" stroke-linejoin="round" stroke-linecap="round" stroke-width="0.1000" stroke="currentColor" x1="0.0500" y1="-0.0000" x2="99.5346" y2="-0.0000"/>
<line transform="translate(8.5358, 5.0000)" stroke-linejoin="round" stroke-linecap="round" stroke-width="0.1000" stroke="currentColor" x1="0.0500" y1="-0.0000" x2="99.5346" y2="-0.0000"/>
<line transform="translate(8.5358, 4.0000)" stroke-linejoin="round" stroke-linecap="round" stroke-width="0.1000" stroke="currentColor" x1="0.0500" y1="-0.0000" x2="99.5346" y2="-0.0000"/>
<line transform="translate(8.5358, 3.0000)" stroke-linejoin="round" stroke-linecap="round" stroke-width="0.1000" stroke="currentColor" x1="0.0500" y1="-0.0000" x2="99.5346" y2="-0.0000"/>
<line transform="translate(8.5358, 2.0000)" stroke-linejoin="round" stroke-linecap="round" stroke-width="0.1000" stroke="currentColor" x1="0.0500" y1="-0.0000" x2="99.5346" y2="-0.0000"/>
<rect transform="translate(48.5991, 4.0000)" x="0.0000" y="-2.0000" width="0.1900" height="4.0500" ry="0.0000" fill="currentColor"/>
<rect transform="translate(68.7955, -0.0000)" x="0.0000" y="6.0500" width="0.1900" height="5.4776" ry="0.0000" fill="currentColor"/>
<rect transform="translate(68.7955, 13.5276)" x="0.0000" y="-2.0500" width="0.1900" height="4.0500" ry="0.0000" fill="currentColor"/>
<rect transform="translate(48.5991, 13.5276)" x="0.0000" y="-2.0500" width="0.1900" height="4.0500" ry="0.0000" fill="currentColor"/>
<rect transform="translate(89.1061, -0.0000)" x="0.0000" y="6.0500" width="0.1900" height="5.4776" ry="0.0000" fill="currentColor"/>
<rect transform="translate(48.5991, -0.0000)" x="0.0000" y="6.0500" width="0.1900" height="5.4776" ry="0.0000" fill="currentColor"/>
<rect transform="translate(89.1061, 13.5276)" x="0.0000" y="-2.0500" width="0.1900" height="4.0500" ry="0.0000" fill="currentColor"/>
<rect transform="translate(30.6682, 4.0000)" x="0.0000" y="-2.0000" width="0.1900" height="4.0500" ry="0.0000" fill="currentColor"/>
<rect transform="translate(107.9305, 4.0000)" x="0.0000" y="-2.0000" width="0.1900" height="4.0500" ry="0.0000" fill="currentColor"/>
<rect transform="translate(68.7955, 4.0000)" x="0.0000" y="-2.0000" width="0.1900" height="4.0500" ry="0.0000" fill="currentColor"/>
<rect transform="translate(107.9305, 13.5276)" x="0.0000" y="-2.0500" width="0.1900" height="4.0500" ry="0.0000" fill="currentColor"/>
<rect transform="translate(107.9305, -0.0000)" x="0.0000" y="6.0500" width="0.1900" height="5.4776" ry="0.0000" fill="currentColor"/>
<rect transform="translate(30.6682, 13.5276)" x="0.0000" y="-2.0500" width="0.1900" height="4.0500" ry="0.0000" fill="currentColor"/>
<rect transform="translate(89.1061, 4.0000)" x="0.0000" y="-2.0000" width="0.1900" height="4.0500" ry="0.0000" fill="currentColor"/>
<rect transform="translate(30.6682, -0.0000)" x="0.0000" y="6.0500" width="0.1900" height="5.4776" ry="0.0000" fill="currentColor"/>
<line transform="translate(8.5358, 15.5276)" stroke-linejoin="round" stroke-linecap="round" stroke-width="0.1000" stroke="currentColor" x1="0.0500" y1="-0.0000" x2="99.5346" y2="-0.0000"/>
<line transform="translate(8.5358, 14.5276)" stroke-linejoin="round" stroke-linecap="round" stroke-width="0.1000" stroke="currentColor" x1="0.0500" y1="-0.0000" x2="99.5346" y2="-0.0000"/>
<line transform="translate(8.5358, 13.5276)" stroke-linejoin="round" stroke-linecap="round" stroke-width="0.1000" stroke="currentColor" x1="0.0500" y1="-0.0000" x2="99.5346" y2="-0.0000"/>
<line transform="translate(8.5358, 12.5276)" stroke-linejoin="round" stroke-linecap="round" stroke-width="0.1000" stroke="currentColor" x1="0.0500" y1="-0.0000" x2="99.5346" y2="-0.0000"/>
<line transform="translate(8.5358, 11.5276)" stroke-linejoin="round" stroke-linecap="round" stroke-width="0.1000" stroke="currentColor" x1="0.0500" y1="-0.0000" x2="99.5346" y2="-0.0000"/>
<rect transform="translate(0.0000, 10.5276)" x="24.5077" y="-0.1000" width="2.0850" height="0.2000" ry="0.1000" fill="currentColor"/>
<rect transform="translate(0.0000, 9.5276)" x="24.5077" y="-0.1000" width="2.0850" height="0.2000" ry="0.1000" fill="currentColor"/>
<rect transform="translate(0.0000, 10.5276)" x="31.6660" y="-0.1000" width="1.9743" height="0.2000" ry="0.1000" fill="currentColor"/>
<rect transform="translate(0.0000, 9.5276)" x="31.6660" y="-0.1000" width="1.9743" height="0.2000" ry="0.1000" fill="currentColor"/>
<rect transform="translate(0.0000, 10.5276)" x="36.0285" y="-0.1000" width="1.9743" height="0.2000" ry="0.1000" fill="currentColor"/>
<rect transform="translate(0.0000, 10.5276)" x="39.7718" y="-0.1000" width="1.8202" height="0.2000" ry="0.1000" fill="currentColor"/>
<rect transform="translate(0.0000, 10.5276)" x="42.4386" y="-0.1000" width="2.0850" height="0.2000" ry="0.1000" fill="currentColor"/>
<rect transform="translate(0.0000, 10.5276)" x="49.5969" y="-0.1000" width="1.9743" height="0.2000" ry="0.1000" fill="currentColor"/>
<rect transform="translate(0.0000, 10.5276)" x="54.1134" y="-0.1000" width="1.8202" height="0.2000" ry="0.1000" fill="currentColor"/>
<rect transform="translate(0.0000, 10.5276)" x="59.6380" y="-0.1000" width="1.9743" height="0.2000" ry="0.1000" fill="currentColor"/>
<rect transform="translate(0.0000, 10.5276)" x="64.2504" y="-0.1000" width="1.9743" height="0.2000" ry="0.1000" fill="currentColor"/>
<rect transform="translate(0.0000, 9.5276)" x="64.2504" y="-0.1000" width="1.9743" height="0.2000" ry="0.1000" fill="currentColor"/>
<rect transform="translate(77.3212, 4.0000)" x="-0.0650" y="2.1878" width="0.1300" height="2.3054" ry="0.0400" fill="currentColor"/>
<a style="color:inherit;" xlink:href="textedit:///tmp/src/s/b/sphinx/html/-:16:30:31">
<path transform="translate(77.2562, 6.0000) scale(0.0040, -0.0040)" d="M220 138c56 0 109 -29 109 -91c0 -72 -56 -121 -103 -149c-36 -21 -76 -36 -117 -36c-56 0 -109 29 -109 91c0 72 56 121 103 149c36 21 76 36 117 36z" fill="currentColor"/>
</a>
<rect transform="translate(74.4819, 4.0000)" x="-0.0650" y="1.6878" width="0.1300" height="2.5090" ry="0.0400" fill="currentColor"/>
<a style="color:inherit;" xlink:href="textedit:///tmp/src/s/b/sphinx/html/-:16:27:28">
<path transform="translate(74.6824, 10.0635) scale(0.0022, -0.0022)" d="M155 471c-34 0 -70 -8 -70 -38c0 -19 31 -23 31 -42c0 -28 -23 -51 -51 -51s-51 23 -51 51c0 67 68 109 141 109c93 0 174 -31 174 -113c0 -41 -6 -77 -42 -94c-11 -5 -17 -16 -17 -27s6 -22 17 -27c40 -19 59 -53 59 -98c0 -94 -83 -141 -186 -141
c-82 0 -160 45 -160 119c0 32 26 58 58 58s58 -26 58 -58c0 -22 -36 -26 -36 -48c0 -33 42 -42 80 -42c46 0 56 58 56 112v38c0 40 -4 69 -43 69h-74c-12 0 -18 9 -18 18s6 18 18 18h74c40 0 43 31 43 73v30c0 50 -16 84 -61 84z" fill="currentColor"/>
</a>
<a style="color:inherit;" xlink:href="textedit:///tmp/src/s/b/sphinx/html/-:16:22:23">
<path transform="translate(74.4169, 5.5000) scale(0.0040, -0.0040)" d="M220 138c56 0 109 -29 109 -91c0 -72 -56 -121 -103 -149c-36 -21 -76 -36 -117 -36c-56 0 -109 29 -109 91c0 72 56 121 103 149c36 21 76 36 117 36z" fill="currentColor"/>
</a>
<a style="color:inherit;" xlink:href="textedit:///tmp/src/s/b/sphinx/html/-:16:39:40">
<path transform="translate(84.7080, 4.5000) scale(0.0040, -0.0040)" d="M220 138c56 0 109 -29 109 -91c0 -72 -56 -121 -103 -149c-36 -21 -76 -36 -117 -36c-56 0 -109 29 -109 91c0 72 56 121 103 149c36 21 76 36 117 36z" fill="currentColor"/>
</a>
<rect transform="translate(85.9592, 13.5276)" x="-0.0650" y="-3.0000" width="0.1300" height="3.3122" ry="0.0400" fill="currentColor"/>
<rect transform="translate(84.7730, 4.0000)" x="-0.0650" y="0.6878" width="0.1300" height="2.9789" ry="0.0400" fill="currentColor"/>
<a style="color:inherit;" xlink:href="textedit:///tmp/src/s/b/sphinx/html/-:53:44:45">
<path transform="translate(84.7080, 14.0276) scale(0.0040, -0.0040)" d="M220 138c56 0 109 -29 109 -91c0 -72 -56 -121 -103 -149c-36 -21 -76 -36 -117 -36c-56 0 -109 29 -109 91c0 72 56 121 103 149c36 21 76 36 117 36z" fill="currentColor"/>
</a>
<a style="color:inherit;" xlink:href="textedit:///tmp/src/s/b/sphinx/html/-:17:12:13">
<path transform="translate(90.5066, 2.0000) scale(0.0040, -0.0040)" d="M365 0h-355c-6 0 -10 4 -10 10v136c0 6 4 10 10 10h355c6 0 10 -4 10 -10v-136c0 -6 -4 -10 -10 -10z" fill="currentColor"/>
</a>
<a style="color:inherit;" xlink:href="textedit:///tmp/src/s/b/sphinx/html/-:17:23:24">
<path transform="translate(90.5066, 6.5000) scale(0.0040, -0.0040)" d="M315 65c0 24 -21 41 -42 41c-4 0 -8 0 -12 -1c-31 -9 -77 -40 -114 -64s-84 -53 -104 -78c-7 -8 -11 -18 -11 -28c0 -24 21 -41 42 -41c4 0 8 0 12 1c31 9 78 40 115 64s84 53 104 78c7 8 10 18 10 28zM264 137c47 0 83 -21 83 -72c0 -19 -4 -37 -10 -56
c-12 -38 -32 -74 -65 -96c-54 -36 -113 -51 -188 -51c-47 0 -84 22 -84 73c0 19 5 37 11 56c12 38 31 74 64 96c54 36 114 50 189 50z" fill="currentColor"/>
</a>
<rect transform="translate(80.1605, 4.0000)" x="-0.0650" y="1.6878" width="0.1300" height="2.6455" ry="0.0400" fill="currentColor"/>
<a style="color:inherit;" xlink:href="textedit:///tmp/src/s/b/sphinx/html/-:54:12:13">
<path transform="translate(90.9541, 14.5276) scale(0.0040, -0.0040)" d="M215 112c-50 0 -69 -43 -69 -88c0 -77 57 -136 134 -136c50 0 69 43 69 88c0 77 -57 136 -134 136zM495 0c0 -43 -35 -76 -73 -97c-53 -30 -113 -41 -174 -41s-122 11 -175 41c-38 21 -73 54 -73 97s35 76 73 97c53 30 114 41 175 41s121 -11 174 -41
c38 -21 73 -54 73 -97z" fill="currentColor"/>
</a>
<a style="color:inherit;" xlink:href="textedit:///tmp/src/s/b/sphinx/html/-:16:33:34">
<path transform="translate(80.0955, 5.5000) scale(0.0040, -0.0040)" d="M220 138c56 0 109 -29 109 -91c0 -72 -56 -121 -103 -149c-36 -21 -76 -36 -117 -36c-56 0 -109 29 -109 91c0 72 56 121 103 149c36 21 76 36 117 36z" fill="currentColor"/>
</a>
<a style="color:inherit;" xlink:href="textedit:///tmp/src/s/b/sphinx/html/-:54:19:20">
<path transform="translate(90.5066, 11.5276) scale(0.0040, -0.0040)" d="M220 138c56 0 109 -29 109 -91c0 -72 -56 -121 -103 -149c-36 -21 -76 -36 -117 -36c-56 0 -109 29 -109 91c0 72 56 121 103 149c36 21 76 36 117 36z" fill="currentColor"/>
</a>
<a style="color:inherit;" xlink:href="textedit:///tmp/src/s/b/sphinx/html/-:53:15:16">
<g transform="translate(70.0545, 9.7343)" >
<path transform="scale(0.0022, -0.0022)" d="M198 284c24 15 48 29 65 52c12 16 19 34 28 52c2 5 6 7 11 7c8 0 16 -6 16 -17v-217h79c12 0 18 -9 18 -18s-6 -18 -18 -18h-79c2 -51 33 -96 80 -96c10 0 15 -8 15 -15s-5 -14 -15 -14c-49 0 -96 14 -145 14s-97 -14 -146 -14c-10 0 -14 7 -14 14s4 15 14 15
c47 0 79 45 81 96h-152c-29 0 -38 17 -38 28c0 3 1 6 2 8c78 88 123 201 123 319c0 11 8 21 17 21c1 0 3 -1 4 -1c25 -7 50 -14 76 -14s52 7 77 14c2 1 4 1 6 1c10 0 17 -7 17 -14c0 -2 0 -5 -2 -7l-282 -319h152v96c0 10 1 21 10 27z" fill="currentColor"/>


<path transform="translate(1.3657, 0.0000) scale(0.0022, -0.0022)" d="M149 149h-131c-10 0 -18 8 -18 18s8 18 18 18h131c10 0 18 -8 18 -18s-8 -18 -18 -18z" fill="currentColor"/>


<path transform="translate(2.1852, 0.0000) scale(0.0022, -0.0022)" d="M155 471c-34 0 -70 -8 -70 -38c0 -19 31 -23 31 -42c0 -28 -23 -51 -51 -51s-51 23 -51 51c0 67 68 109 141 109c93 0 174 -31 174 -113c0 -41 -6 -77 -42 -94c-11 -5 -17 -16 -17 -27s6 -22 17 -27c40 -19 59 -53 59 -98c0 -94 -83 -141 -186 -141
c-82 0 -160 45 -160 119c0 32 26 58 58 58s58 -26 58 -58c0 -22 -36 -26 -36 -48c0 -33 42 -42 80 -42c46 0 56 58 56 112v38c0 40 -4 69 -43 69h-74c-12 0 -18 9 -18 18s6 18 18 18h74c40 0 43 31 43 73v30c0 50 -16 84 -61 84z" fill="currentColor"/>
</g>
</a>
<rect transform="translate(70.1195, 4.0000)" x="-0.0650" y="1.1878" width="0.1300" height="2.8122" ry="0.0400" fill="currentColor"/>
<a style="color:inherit;" xlink:href="textedit:///tmp/src/s/b/sphinx/html/-:53:54:55">
<path transform="translate(70.6518, 17.2385) scale(0.0022, -0.0022)" d="M136 504c20 0 38 -18 58 -18c16 0 31 8 45 14c2 1 2 1 4 1c8 0 16 -9 16 -21v-351c0 -52 32 -100 81 -100c10 0 14 -8 14 -15s-4 -14 -14 -14c-49 0 -97 14 -146 14s-96 -14 -145 -14c-10 0 -15 7 -15 14s5 15 15 15c49 0 80 48 80 100v215c0 15 -11 23 -20 23
c-5 0 -9 -2 -11 -7l-66 -127c-4 -7 -9 -9 -15 -9c-9 0 -19 7 -19 17c0 3 0 6 2 9l129 250c1 3 4 4 7 4z" fill="currentColor"/>
</a>
<a style="color:inherit;" xlink:href="textedit:///tmp/src/s/b/sphinx/html/-:53:51:52">
<path transform="translate(70.0545, 11.5276) scale(0.0040, -0.0040)" d="M215 112c-50 0 -69 -43 -69 -88c0 -77 57 -136 134 -136c50 0 69 43 69 88c0 77 -57 136 -134 136zM495 0c0 -43 -35 -76 -73 -97c-53 -30 -113 -41 -174 -41s-122 11 -175 41c-38 21 -73 54 -73 97s35 76 73 97c53 30 114 41 175 41s121 -11 174 -41
c38 -21 73 -54 73 -97z" fill="currentColor"/>
</a>
<a style="color:inherit;" xlink:href="textedit:///tmp/src/s/b/sphinx/html/-:53:12:13">
<path transform="translate(70.4505, 13.5276) scale(0.0040, -0.0040)" d="M315 65c0 24 -21 41 -42 41c-4 0 -8 0 -12 -1c-31 -9 -77 -40 -114 -64s-84 -53 -104 -78c-7 -8 -11 -18 -11 -28c0 -24 21 -41 42 -41c4 0 8 0 12 1c31 9 78 40 115 64s84 53 104 78c7 8 10 18 10 28zM264 137c47 0 83 -21 83 -72c0 -19 -4 -37 -10 -56
c-12 -38 -32 -74 -65 -96c-54 -36 -113 -51 -188 -51c-47 0 -84 22 -84 73c0 19 5 37 11 56c12 38 31 74 64 96c54 36 114 50 189 50z" fill="currentColor"/>
</a>
<a style="color:inherit;" xlink:href="textedit:///tmp/src/s/b/sphinx/html/-:16:18:19">
<path transform="translate(70.0545, 5.0000) scale(0.0040, -0.0040)" d="M220 138c56 0 109 -29 109 -91c0 -72 -56 -121 -103 -149c-36 -21 -76 -36 -117 -36c-56 0 -109 29 -109 91c0 72 56 121 103 149c36 21 76 36 117 36z" fill="currentColor"/>
</a>
<a style="color:inherit;" xlink:href="textedit:///tmp/src/s/b/sphinx/html/-:16:12:13">
<path transform="translate(70.0545, 2.0000) scale(0.0040, -0.0040)" d="M365 -156h-355c-6 0 -10 4 -10 10v136c0 6 4 10 10 10h355c6 0 10 -4 10 -10v-136c0 -6 -4 -10 -10 -10z" fill="currentColor"/>
</a>
<rect transform="translate(64.6445, 13.5276)" x="-0.0650" y="-3.8122" width="0.1300" height="3.8122" ry="0.0400" fill="currentColor"/>
<a style="color:inherit;" xlink:href="textedit:///tmp/src/s/b/sphinx/html/-:52:37:38">
<path transform="translate(64.5795, 9.5276) scale(0.0040, -0.0040)" d="M220 138c56 0 109 -29 109 -91c0 -72 -56 -121 -103 -149c-36 -21 -76 -36 -117 -36c-56 0 -109 29 -109 91c0 72 56 121 103 149c36 21 76 36 117 36z" fill="currentColor"/>
</a>
<a style="color:inherit;" xlink:href="textedit:///tmp/src/s/b/sphinx/html/-:50:26:27">
<path transform="translate(24.8552, 13.5276)" stroke-width="0.0800" stroke-linejoin="round" stroke-linecap="round" stroke="currentColor" fill="currentColor" d="M0.894991999999998 -3.25C1.87103183663875 -2.38917590481453 5.82879827231119 -2.38917590481453 6.80483810894993 -3.25C5.82879827231119 -2.50917590481453 1.87103183663875 -2.50917590481453 0.894991999999998 -3.25z"/>
</a>
<rect transform="translate(71.7755, 13.5276)" x="-0.0650" y="-3.3333" width="0.1300" height="3.0719" ry="0.0400" fill="currentColor"/>
<path transform="translate(72.2905, 13.0276) scale(0.0040, -0.0040)" d="M0 0c0 31 25 56 56 56s56 -25 56 -56s-25 -56 -56 -56s-56 25 -56 56z" fill="currentColor"/>
<a style="color:inherit;" xlink:href="textedit:///tmp/src/s/b/sphinx/html/-:17:28:29">
<path transform="translate(103.5939, 5.5000) scale(0.0040, -0.0040)" d="M220 138c56 0 109 -29 109 -91c0 -72 -56 -121 -103 -149c-36 -21 -76 -36 -117 -36c-56 0 -109 29 -109 91c0 72 56 121 103 149c36 21 76 36 117 36z" fill="currentColor"/>
</a>
<path transform="translate(102.5479, 5.5000) scale(0.0040, -0.0040)" d="M-8 375c8 4 17 7 26 7s17 -3 25 -7l-3 -183l106 20h3c10 0 18 -7 18 -17l7 -570c-8 -4 -16 -7 -25 -7s-17 3 -25 7l3 183l-106 -20h-3c-10 0 -18 7 -18 17zM131 112l-92 -17l-3 -207l92 17z" fill="currentColor"/>
<rect transform="translate(103.6589, 4.0000)" x="-0.0650" y="1.6878" width="0.1300" height="2.6455" ry="0.0400" fill="currentColor"/>
<a style="color:inherit;" xlink:href="textedit:///tmp/src/s/b/sphinx/html/-:17:31:32">
<path transform="translate(103.8252, 7.6767) scale(0.0022, -0.0022)" d="M29 13c-1 -9 -7 -13 -14 -13s-15 5 -15 14c0 173 233 163 233 341c0 56 -14 116 -62 116c-33 0 -66 -15 -66 -44c0 -24 31 -37 31 -61c0 -34 -27 -61 -61 -61s-61 27 -61 61c0 78 74 134 157 134c98 0 191 -55 191 -145c0 -144 -135 -156 -233 -206h7
c36 0 74 -13 111 -40c19 -14 40 -21 59 -21c22 0 40 10 46 31c2 7 7 11 13 11c7 0 15 -5 15 -14v-5c-19 -71 -84 -111 -146 -111c-38 0 -75 15 -101 47c-12 15 -28 22 -44 22c-29 0 -57 -21 -60 -56z" fill="currentColor"/>
</a>
<rect transform="translate(100.6126, 13.5276)" x="-0.0650" y="-1.2386" width="0.1300" height="3.2386" ry="0.0400" fill="currentColor"/>
<rect transform="translate(101.8726, 4.0000)" x="-0.0650" y="-4.0000" width="0.1300" height="2.7386" ry="0.0400" fill="currentColor"/>
<a style="color:inherit;" xlink:href="textedit:///tmp/src/s/b/sphinx/html/-:54:32:33">
<path transform="translate(100.8500, 17.2385) scale(0.0022, -0.0022)" d="M136 504c20 0 38 -18 58 -18c16 0 31 8 45 14c2 1 2 1 4 1c8 0 16 -9 16 -21v-351c0 -52 32 -100 81 -100c10 0 14 -8 14 -15s-4 -14 -14 -14c-49 0 -97 14 -146 14s-96 -14 -145 -14c-10 0 -15 7 -15 14s5 15 15 15c49 0 80 48 80 100v215c0 15 -11 23 -20 23
c-5 0 -9 -2 -11 -7l-66 -127c-4 -7 -9 -9 -15 -9c-9 0 -19 7 -19 17c0 3 0 6 2 9l129 250c1 3 4 4 7 4z" fill="currentColor"/>
</a>
<a style="color:inherit;" xlink:href="textedit:///tmp/src/s/b/sphinx/html/-:54:29:30">
<path transform="translate(100.5476, 12.0276) scale(0.0040, -0.0040)" d="M315 65c0 24 -21 41 -42 41c-4 0 -8 0 -12 -1c-31 -9 -77 -40 -114 -64s-84 -53 -104 -78c-7 -8 -11 -18 -11 -28c0 -24 21 -41 42 -41c4 0 8 0 12 1c31 9 78 40 115 64s84 53 104 78c7 8 10 18 10 28zM264 137c47 0 83 -21 83 -72c0 -19 -4 -37 -10 -56
c-12 -38 -32 -74 -65 -96c-54 -36 -113 -51 -188 -51c-47 0 -84 22 -84 73c0 19 5 37 11 56c12 38 31 74 64 96c54 36 114 50 189 50z" fill="currentColor"/>
</a>
<polygon transform="translate(94.8690, 15.3376)" stroke-linejoin="round" stroke-linecap="round" stroke-width="0.0800" fill="currentColor" stroke="currentColor" points="2.9293 -0.0100 2.9293 0.3900 0.0400 0.2000 0.0400 -0.2000"/>
<polygon transform="translate(36.3575, 13.5276)" stroke-linejoin="round" stroke-linecap="round" stroke-width="0.0800" fill="currentColor" stroke="currentColor" points="3.6793 -0.0100 3.6793 0.3900 0.0400 0.2000 0.0400 -0.2000"/>
<a style="color:inherit;" xlink:href="textedit:///tmp/src/s/b/sphinx/html/-:51:37:38">
<path transform="translate(42.7861, 13.5276)" stroke-width="0.0800" stroke-linejoin="round" stroke-linecap="round" stroke="currentColor" fill="currentColor" d="M1.589984 -3.0C2.5036801469987 -2.16369989202358 5.89114196195123 -2.16369989202358 6.80483810894993 -3.0C5.89114196195123 -2.28369989202358 2.5036801469987 -2.28369989202358 1.589984 -3.0z"/>
</a>
<a style="color:inherit;" xlink:href="textedit:///tmp/src/s/b/sphinx/html/-:15:23:24">
<path transform="translate(59.9670, 4.0000)" stroke-width="0.0800" stroke-linejoin="round" stroke-linecap="round" stroke="currentColor" fill="currentColor" d="M0.894992000000002 1.75C2.07148072107879 2.67466986239917 8.57597767835368 2.67466986239917 9.75246639943246 1.75C8.57597767835368 2.55466986239917 2.07148072107879 2.55466986239917 0.894992000000002 1.75z"/>
</a>
<polygon transform="translate(54.2884, 13.5276)" stroke-linejoin="round" stroke-linecap="round" stroke-width="0.0800" fill="currentColor" stroke="currentColor" points="2.9293 -0.0100 2.9293 0.3900 0.0400 0.2000 0.0400 -0.2000"/>
<a style="color:inherit;" xlink:href="textedit:///tmp/src/s/b/sphinx/html/-:53:53:54">
<path transform="translate(70.0545, 13.5276)" stroke-width="0.0800" stroke-linejoin="round" stroke-linecap="round" stroke="currentColor" fill="currentColor" d="M1.190004 -1.25C2.69651277776548 -0.254085772511085 18.6105885550256 -0.254085772511085 20.1170973327911 -1.25C18.6105885550256 -0.374085772511085 2.69651277776548 -0.374085772511085 1.190004 -1.25z"/>
</a>
<polygon transform="translate(74.4169, 8.1900)" stroke-linejoin="round" stroke-linecap="round" stroke-width="0.0800" fill="currentColor" stroke="currentColor" points="2.9293 0.1100 2.9293 0.5100 0.0400 0.2000 0.0400 -0.2000"/>
<a style="color:inherit;" xlink:href="textedit:///tmp/src/s/b/sphinx/html/-:17:15:16">
<path transform="translate(100.5476, 3.0000) scale(0.0040, -0.0040)" d="M315 65c0 24 -21 41 -42 41c-4 0 -8 0 -12 -1c-31 -9 -77 -40 -114 -64s-84 -53 -104 -78c-7 -8 -11 -18 -11 -28c0 -24 21 -41 42 -41c4 0 8 0 12 1c31 9 78 40 115 64s84 53 104 78c7 8 10 18 10 28zM264 137c47 0 83 -21 83 -72c0 -19 -4 -37 -10 -56
c-12 -38 -32 -74 -65 -96c-54 -36 -113 -51 -188 -51c-47 0 -84 22 -84 73c0 19 5 37 11 56c12 38 31 74 64 96c54 36 114 50 189 50z" fill="currentColor"/>
</a>
<rect transform="translate(90.5716, 13.5276)" x="-0.0650" y="-1.8122" width="0.1300" height="3.3122" ry="0.0400" fill="currentColor"/>
<rect transform="translate(90.5716, 4.0000)" x="-0.0650" y="2.7614" width="0.1300" height="2.2386" ry="0.0400" fill="currentColor"/>
<path transform="translate(92.3466, 6.5000) scale(0.0040, -0.0040)" d="M0 0c0 31 25 56 56 56s56 -25 56 -56s-25 -56 -56 -56s-56 25 -56 56z" fill="currentColor"/>
<rect transform="translate(94.9340, 13.5276)" x="-0.0650" y="-1.3122" width="0.1300" height="3.1263" ry="0.0400" fill="currentColor"/>
<rect transform="translate(97.7733, 13.5276)" x="-0.0650" y="-0.8122" width="0.1300" height="2.8080" ry="0.0400" fill="currentColor"/>
<a style="color:inherit;" xlink:href="textedit:///tmp/src/s/b/sphinx/html/-:54:25:26">
<path transform="translate(97.7083, 12.5276) scale(0.0040, -0.0040)" d="M220 138c56 0 109 -29 109 -91c0 -72 -56 -121 -103 -149c-36 -21 -76 -36 -117 -36c-56 0 -109 29 -109 91c0 72 56 121 103 149c36 21 76 36 117 36z" fill="currentColor"/>
</a>
<a style="color:inherit;" xlink:href="textedit:///tmp/src/s/b/sphinx/html/-:54:22:23">
<path transform="translate(94.8690, 12.0276) scale(0.0040, -0.0040)" d="M220 138c56 0 109 -29 109 -91c0 -72 -56 -121 -103 -149c-36 -21 -76 -36 -117 -36c-56 0 -109 29 -109 91c0 72 56 121 103 149c36 21 76 36 117 36z" fill="currentColor"/>
</a>
<a style="color:inherit;" xlink:href="textedit:///tmp/src/s/b/sphinx/html/-:14:31:32">
<path transform="translate(31.9951, 2.0000) scale(0.0040, -0.0040)" d="M365 -156h-355c-6 0 -10 4 -10 10v136c0 6 4 10 10 10h355c6 0 10 -4 10 -10v-136c0 -6 -4 -10 -10 -10z" fill="currentColor"/>
</a>
<a style="color:inherit;" xlink:href="textedit:///tmp/src/s/b/sphinx/html/-:51:21:22">
<path transform="translate(31.9951, 9.5276) scale(0.0040, -0.0040)" d="M220 138c56 0 109 -29 109 -91c0 -72 -56 -121 -103 -149c-36 -21 -76 -36 -117 -36c-56 0 -109 29 -109 91c0 72 56 121 103 149c36 21 76 36 117 36z" fill="currentColor"/>
</a>
<a style="color:inherit;" xlink:href="textedit:///tmp/src/s/b/sphinx/html/-:51:12:13">
<path transform="translate(32.4426, 12.5276) scale(0.0040, -0.0040)" d="M215 112c-50 0 -69 -43 -69 -88c0 -77 57 -136 134 -136c50 0 69 43 69 88c0 77 -57 136 -134 136zM495 0c0 -43 -35 -76 -73 -97c-53 -30 -113 -41 -174 -41s-122 11 -175 41c-38 21 -73 54 -73 97s35 76 73 97c53 30 114 41 175 41s121 -11 174 -41
c38 -21 73 -54 73 -97z" fill="currentColor"/>
</a>
<a style="color:inherit;" xlink:href="textedit:///tmp/src/s/b/sphinx/html/-:14:37:38">
<path transform="translate(31.9951, 6.0000) scale(0.0040, -0.0040)" d="M365 -156h-355c-6 0 -10 4 -10 10v136c0 6 4 10 10 10h355c6 0 10 -4 10 -10v-136c0 -6 -4 -10 -10 -10z" fill="currentColor"/>
</a>
<rect transform="translate(24.9202, 13.5276)" x="-0.0650" y="-3.7386" width="0.1300" height="3.7386" ry="0.0400" fill="currentColor"/>
<a style="color:inherit;" xlink:href="textedit:///tmp/src/s/b/sphinx/html/-:50:27:28">
<path transform="translate(25.0893, 17.2044) scale(0.0022, -0.0022)" d="M198 284c24 15 48 29 65 52c12 16 19 34 28 52c2 5 6 7 11 7c8 0 16 -6 16 -17v-217h79c12 0 18 -9 18 -18s-6 -18 -18 -18h-79c2 -51 33 -96 80 -96c10 0 15 -8 15 -15s-5 -14 -15 -14c-49 0 -96 14 -145 14s-97 -14 -146 -14c-10 0 -14 7 -14 14s4 15 14 15
c47 0 79 45 81 96h-152c-29 0 -38 17 -38 28c0 3 1 6 2 8c78 88 123 201 123 319c0 11 8 21 17 21c1 0 3 -1 4 -1c25 -7 50 -14 76 -14s52 7 77 14c2 1 4 1 6 1c10 0 17 -7 17 -14c0 -2 0 -5 -2 -7l-282 -319h152v96c0 10 1 21 10 27z" fill="currentColor"/>
</a>
<a style="color:inherit;" xlink:href="textedit:///tmp/src/s/b/sphinx/html/-:50:24:25">
<path transform="translate(24.8552, 9.5276) scale(0.0040, -0.0040)" d="M315 65c0 24 -21 41 -42 41c-4 0 -8 0 -12 -1c-31 -9 -77 -40 -114 -64s-84 -53 -104 -78c-7 -8 -11 -18 -11 -28c0 -24 21 -41 42 -41c4 0 8 0 12 1c31 9 78 40 115 64s84 53 104 78c7 8 10 18 10 28zM264 137c47 0 83 -21 83 -72c0 -19 -4 -37 -10 -56
c-12 -38 -32 -74 -65 -96c-54 -36 -113 -51 -188 -51c-47 0 -84 22 -84 73c0 19 5 37 11 56c12 38 31 74 64 96c54 36 114 50 189 50z" fill="currentColor"/>
</a>
<rect transform="translate(32.0601, 13.5276)" x="-0.0650" y="-3.8122" width="0.1300" height="3.8122" ry="0.0400" fill="currentColor"/>
<a style="color:inherit;" xlink:href="textedit:///tmp/src/s/b/sphinx/html/-:48:8:9">
<path transform="translate(12.8358, 12.5276) scale(0.0040, -0.0040)" d="M216 -312c0 -10 -8 -19 -18 -19s-19 9 -19 19v145l-83 -31v-158c0 -10 -9 -19 -19 -19s-18 9 -18 19v145l-32 -12c-2 -1 -5 -1 -7 -1c-11 0 -20 9 -20 20v60c0 8 5 16 13 19l46 16v160l-32 -11c-2 -1 -5 -1 -7 -1c-11 0 -20 9 -20 20v60c0 8 5 15 13 18l46 17v158
c0 10 8 19 18 19s19 -9 19 -19v-145l83 31v158c0 10 9 19 19 19s18 -9 18 -19v-145l32 12c2 1 5 1 7 1c11 0 20 -9 20 -20v-60c0 -8 -5 -16 -13 -19l-46 -16v-160l32 11c2 1 5 1 7 1c11 0 20 -9 20 -20v-60c0 -8 -5 -15 -13 -18l-46 -17v-158zM96 65v-160l83 30v160z" fill="currentColor"/>
</a>
<path transform="translate(9.3358, 12.5276) scale(0.0040, -0.0040)" d="M557 -125c0 28 23 51 51 51s51 -23 51 -51s-23 -51 -51 -51s-51 23 -51 51zM557 125c0 28 23 51 51 51s51 -23 51 -51s-23 -51 -51 -51s-51 23 -51 51zM232 263c172 0 293 -88 293 -251c0 -263 -263 -414 -516 -521c-3 -3 -6 -4 -9 -4c-7 0 -13 6 -13 13c0 3 1 6 4 9
c202 118 412 265 412 493c0 120 -63 235 -171 235c-74 0 -129 -54 -154 -126c11 5 22 8 34 8c55 0 100 -45 100 -100c0 -58 -44 -106 -100 -106c-60 0 -112 47 -112 106c0 133 102 244 232 244z" fill="currentColor"/>
<a style="color:inherit;" xlink:href="textedit:///tmp/src/s/b/sphinx/html/-:50:20:21">
<path transform="translate(18.7858, 15.5276) scale(0.0040, -0.0040)" d="M365 0h-355c-6 0 -10 4 -10 10v136c0 6 4 10 10 10h355c6 0 10 -4 10 -10v-136c0 -6 -4 -10 -10 -10z" fill="currentColor"/>
</a>
<a style="color:inherit;" xlink:href="textedit:///tmp/src/s/b/sphinx/html/-:50:14:15">
<path transform="translate(19.3832, 10.9776) scale(0.0022, -0.0022)" d="M136 504c20 0 38 -18 58 -18c16 0 31 8 45 14c2 1 2 1 4 1c8 0 16 -9 16 -21v-351c0 -52 32 -100 81 -100c10 0 14 -8 14 -15s-4 -14 -14 -14c-49 0 -97 14 -146 14s-96 -14 -145 -14c-10 0 -15 7 -15 14s5 15 15 15c49 0 80 48 80 100v215c0 15 -11 23 -20 23
c-5 0 -9 -2 -11 -7l-66 -127c-4 -7 -9 -9 -15 -9c-9 0 -19 7 -19 17c0 3 0 6 2 9l129 250c1 3 4 4 7 4z" fill="currentColor"/>
</a>
<a style="color:inherit;" xlink:href="textedit:///tmp/src/s/b/sphinx/html/-:50:12:13">
<path transform="translate(18.7858, 12.0276) scale(0.0040, -0.0040)" d="M215 112c-50 0 -69 -43 -69 -88c0 -77 57 -136 134 -136c50 0 69 43 69 88c0 77 -57 136 -134 136zM495 0c0 -43 -35 -76 -73 -97c-53 -30 -113 -41 -174 -41s-122 11 -175 41c-38 21 -73 54 -73 97s35 76 73 97c53 30 114 41 175 41s121 -11 174 -41
c38 -21 73 -54 73 -97z" fill="currentColor"/>
</a>
<path transform="translate(15.0858, 4.0000) scale(0.0040, -0.0040)" d="M359 27c-49 0 -75 42 -75 75c0 38 27 77 72 77c4 0 9 0 14 -1c-28 37 -72 59 -120 59c-106 0 -113 -73 -113 -186v-51v-51c0 -113 7 -187 113 -187c80 0 139 70 158 151c2 7 7 10 12 10c6 0 13 -4 13 -12c0 -94 -105 -174 -183 -174c-68 0 -137 21 -184 70
c-49 51 -66 122 -66 193s17 142 66 193c47 49 116 69 184 69c87 0 160 -64 175 -150c1 -5 1 -9 1 -13c0 -40 -30 -72 -67 -72z" fill="currentColor"/>
<a style="color:inherit;" xlink:href="textedit:///tmp/src/s/b/sphinx/html/-:12:8:9">
<path transform="translate(12.8358, 2.0000) scale(0.0040, -0.0040)" d="M216 -312c0 -10 -8 -19 -18 -19s-19 9 -19 19v145l-83 -31v-158c0 -10 -9 -19 -19 -19s-18 9 -18 19v145l-32 -12c-2 -1 -5 -1 -7 -1c-11 0 -20 9 -20 20v60c0 8 5 16 13 19l46 16v160l-32 -11c-2 -1 -5 -1 -7 -1c-11 0 -20 9 -20 20v60c0 8 5 15 13 18l46 17v158
c0 10 8 19 18 19s19 -9 19 -19v-145l83 31v158c0 10 9 19 19 19s18 -9 18 -19v-145l32 12c2 1 5 1 7 1c11 0 20 -9 20 -20v-60c0 -8 -5 -16 -13 -19l-46 -16v-160l32 11c2 1 5 1 7 1c11 0 20 -9 20 -20v-60c0 -8 -5 -15 -13 -18l-46 -17v-158zM96 65v-160l83 30v160z" fill="currentColor"/>
</a>
<path transform="translate(9.3358, 5.0000) scale(0.0040, -0.0040)" d="M376 262c4 0 9 1 13 1c155 0 256 -128 256 -261c0 -76 -33 -154 -107 -210c-22 -17 -47 -28 -73 -36c3 -35 5 -70 5 -105c0 -19 -1 -39 -2 -58c-7 -120 -90 -228 -208 -228c-108 0 -195 88 -195 197c0 58 53 103 112 103c54 0 95 -47 95 -103c0 -52 -43 -95 -95 -95
c-11 0 -21 2 -31 6c26 -39 68 -65 117 -65c96 0 157 92 163 191c1 18 2 37 2 55c0 31 -1 61 -4 92c-29 -5 -58 -8 -89 -8c-188 0 -333 172 -333 374c0 177 131 306 248 441c-19 62 -37 125 -45 190c-6 52 -7 104 -7 156c0 115 55 224 149 292c3 2 7 3 10 3c4 0 7 0 10 -3
c71 -84 133 -245 133 -358c0 -143 -86 -255 -180 -364c21 -68 39 -138 56 -207zM461 -203c68 24 113 95 113 164c0 90 -66 179 -173 190c24 -116 46 -231 60 -354zM74 28c0 -135 129 -247 264 -247c28 0 55 2 82 6c-14 127 -37 245 -63 364c-79 -8 -124 -61 -124 -119
c0 -44 25 -91 81 -123c5 -5 7 -10 7 -15c0 -11 -10 -22 -22 -22c-3 0 -6 1 -9 2c-80 43 -117 115 -117 185c0 88 58 174 160 197c-14 58 -29 117 -46 175c-107 -121 -213 -243 -213 -403zM408 1045c-99 -48 -162 -149 -162 -259c0 -74 18 -133 36 -194
c80 97 146 198 146 324c0 55 -4 79 -20 129z" fill="currentColor"/>
<a style="color:inherit;" xlink:href="textedit:///tmp/src/s/b/sphinx/html/-:14:37:38">
<path transform="translate(18.7858, 6.0000) scale(0.0040, -0.0040)" d="M365 -156h-355c-6 0 -10 4 -10 10v136c0 6 4 10 10 10h355c6 0 10 -4 10 -10v-136c0 -6 -4 -10 -10 -10z" fill="currentColor"/>
</a>
<a style="color:inherit;" xlink:href="textedit:///tmp/src/s/b/sphinx/html/-:14:31:32">
<path transform="translate(18.7858, 2.0000) scale(0.0040, -0.0040)" d="M365 -156h-355c-6 0 -10 4 -10 10v136c0 6 4 10 10 10h355c6 0 10 -4 10 -10v-136c0 -6 -4 -10 -10 -10z" fill="currentColor"/>
</a>
<path transform="translate(15.0858, 13.5276) scale(0.0040, -0.0040)" d="M359 27c-49 0 -75 42 -75 75c0 38 27 77 72 77c4 0 9 0 14 -1c-28 37 -72 59 -120 59c-106 0 -113 -73 -113 -186v-51v-51c0 -113 7 -187 113 -187c80 0 139 70 158 151c2 7 7 10 12 10c6 0 13 -4 13 -12c0 -94 -105 -174 -183 -174c-68 0 -137 21 -184 70
c-49 51 -66 122 -66 193s17 142 66 193c47 49 116 69 184 69c87 0 160 -64 175 -150c1 -5 1 -9 1 -13c0 -40 -30 -72 -67 -72z" fill="currentColor"/>
<a style="color:inherit;" xlink:href="textedit:///tmp/src/s/b/sphinx/html/-:54:31:32">
<path transform="translate(100.5476, 13.5276)" stroke-width="0.0800" stroke-linejoin="round" stroke-linecap="round" stroke="currentColor" fill="currentColor" d="M0.894992000000002 -0.808529190680244C1.90202612829165 0.06356522873534 6.17579894792415 0.06356522873534 7.1828330762158 -0.808529190680244C6.17579894792415 -0.0564347712646599 1.90202612829165 -0.0564347712646599 0.894992000000002 -0.808529190680244z"/>
</a>
<a style="color:inherit;" xlink:href="textedit:///tmp/src/s/b/sphinx/html/-:17:18:19">
<path transform="translate(100.5476, 4.0000)" stroke-width="0.0800" stroke-linejoin="round" stroke-linecap="round" stroke="currentColor" fill="currentColor" d="M1.72498399999999 -1.19872140054299C2.66132294906922 -2.0442292123709 6.24649412714656 -2.0442292123709 7.1828330762158 -1.19872140054299C6.24649412714656 -1.9242292123709 2.66132294906922 -1.9242292123709 1.72498399999999 -1.19872140054299z"/>
</a>
<rect transform="translate(8.4758, 8.7638)" x="0.0000" y="-6.8138" width="0.1600" height="13.6276" ry="0.0500" fill="currentColor"/>
<path transform="translate(8.1758, 8.7638) scale(0.0040, -0.0040)" d="M-15 -516c0 -273 -105 -537 -105 -795c0 -141 33 -270 132 -375c3 -3 6 -9 6 -12c0 -9 -9 -15 -18 -15c-3 0 -9 3 -12 6c-135 138 -183 321 -183 516c0 279 114 549 114 813c0 138 -36 267 -135 369c-3 3 -3 6 -3 9s0 6 3 9c99 102 135 231 135 369
c0 264 -114 534 -114 813c0 195 48 378 183 516c3 3 9 6 12 6c9 0 18 -6 18 -15c0 -3 -3 -9 -6 -12c-99 -105 -132 -234 -132 -375c0 -258 105 -522 105 -795c0 -192 -45 -375 -177 -516c132 -141 177 -324 177 -516z" fill="currentColor"/>
<a style="color:inherit;" xlink:href="textedit:///tmp/src/s/b/sphinx/html/-:51:25:26">
<path transform="translate(36.3575, 10.0276) scale(0.0040, -0.0040)" d="M220 138c56 0 109 -29 109 -91c0 -72 -56 -121 -103 -149c-36 -21 -76 -36 -117 -36c-56 0 -109 29 -109 91c0 72 56 121 103 149c36 21 76 36 117 36z" fill="currentColor"/>
</a>
<rect transform="translate(49.9910, 13.5276)" x="-0.0650" y="-3.3122" width="0.1300" height="3.3122" ry="0.0400" fill="currentColor"/>
<rect transform="translate(57.1927, 13.5276)" x="-0.0650" y="-2.3122" width="0.1300" height="2.4980" ry="0.0400" fill="currentColor"/>
<path transform="translate(52.8384, 10.5276) scale(0.0040, -0.0040)" d="M216 -312c0 -10 -8 -19 -18 -19s-19 9 -19 19v145l-83 -31v-158c0 -10 -9 -19 -19 -19s-18 9 -18 19v145l-32 -12c-2 -1 -5 -1 -7 -1c-11 0 -20 9 -20 20v60c0 8 5 16 13 19l46 16v160l-32 -11c-2 -1 -5 -1 -7 -1c-11 0 -20 9 -20 20v60c0 8 5 15 13 18l46 17v158
c0 10 8 19 18 19s19 -9 19 -19v-145l83 31v158c0 10 9 19 19 19s18 -9 18 -19v-145l32 12c2 1 5 1 7 1c11 0 20 -9 20 -20v-60c0 -8 -5 -16 -13 -19l-46 -16v-160l32 11c2 1 5 1 7 1c11 0 20 -9 20 -20v-60c0 -8 -5 -15 -13 -18l-46 -17v-158zM96 65v-160l83 30v160z" fill="currentColor"/>
<rect transform="translate(54.3534, 13.5276)" x="-0.0650" y="-2.8122" width="0.1300" height="2.8163" ry="0.0400" fill="currentColor"/>
<a style="color:inherit;" xlink:href="textedit:///tmp/src/s/b/sphinx/html/-:52:23:24">
<path transform="translate(54.2884, 10.5276) scale(0.0040, -0.0040)" d="M220 138c56 0 109 -29 109 -91c0 -72 -56 -121 -103 -149c-36 -21 -76 -36 -117 -36c-56 0 -109 29 -109 91c0 72 56 121 103 149c36 21 76 36 117 36z" fill="currentColor"/>
</a>
<a style="color:inherit;" xlink:href="textedit:///tmp/src/s/b/sphinx/html/-:52:29:30">
<path transform="translate(57.1277, 11.0276) scale(0.0040, -0.0040)" d="M220 138c56 0 109 -29 109 -91c0 -72 -56 -121 -103 -149c-36 -21 -76 -36 -117 -36c-56 0 -109 29 -109 91c0 72 56 121 103 149c36 21 76 36 117 36z" fill="currentColor"/>
</a>
<rect transform="translate(60.0320, 13.5276)" x="-0.0650" y="-2.8122" width="0.1300" height="3.3122" ry="0.0400" fill="currentColor"/>
<rect transform="translate(42.8511, 13.5276)" x="-0.0650" y="-3.2386" width="0.1300" height="3.2386" ry="0.0400" fill="currentColor"/>
<a style="color:inherit;" xlink:href="textedit:///tmp/src/s/b/sphinx/html/-:51:34:35">
<path transform="translate(42.7861, 10.0276) scale(0.0040, -0.0040)" d="M315 65c0 24 -21 41 -42 41c-4 0 -8 0 -12 -1c-31 -9 -77 -40 -114 -64s-84 -53 -104 -78c-7 -8 -11 -18 -11 -28c0 -24 21 -41 42 -41c4 0 8 0 12 1c31 9 78 40 115 64s84 53 104 78c7 8 10 18 10 28zM264 137c47 0 83 -21 83 -72c0 -19 -4 -37 -10 -56
c-12 -38 -32 -74 -65 -96c-54 -36 -113 -51 -188 -51c-47 0 -84 22 -84 73c0 19 5 37 11 56c12 38 31 74 64 96c54 36 114 50 189 50z" fill="currentColor"/>
</a>
<rect transform="translate(60.0320, 4.0000)" x="-0.0650" y="1.2614" width="0.1300" height="2.7386" ry="0.0400" fill="currentColor"/>
<path transform="translate(38.4968, 10.5276) scale(0.0040, -0.0040)" d="M216 -312c0 -10 -8 -19 -18 -19s-19 9 -19 19v145l-83 -31v-158c0 -10 -9 -19 -19 -19s-18 9 -18 19v145l-32 -12c-2 -1 -5 -1 -7 -1c-11 0 -20 9 -20 20v60c0 8 5 16 13 19l46 16v160l-32 -11c-2 -1 -5 -1 -7 -1c-11 0 -20 9 -20 20v60c0 8 5 15 13 18l46 17v158
c0 10 8 19 18 19s19 -9 19 -19v-145l83 31v158c0 10 9 19 19 19s18 -9 18 -19v-145l32 12c2 1 5 1 7 1c11 0 20 -9 20 -20v-60c0 -8 -5 -16 -13 -19l-46 -16v-160l32 11c2 1 5 1 7 1c11 0 20 -9 20 -20v-60c0 -8 -5 -15 -13 -18l-46 -17v-158zM96 65v-160l83 30v160z" fill="currentColor"/>
<rect transform="translate(40.0118, 13.5276)" x="-0.0650" y="-2.8122" width="0.1300" height="2.9989" ry="0.0400" fill="currentColor"/>
<a style="color:inherit;" xlink:href="textedit:///tmp/src/s/b/sphinx/html/-:51:29:30">
<path transform="translate(39.9468, 10.5276) scale(0.0040, -0.0040)" d="M220 138c56 0 109 -29 109 -91c0 -72 -56 -121 -103 -149c-36 -21 -76 -36 -117 -36c-56 0 -109 29 -109 91c0 72 56 121 103 149c36 21 76 36 117 36z" fill="currentColor"/>
</a>
<rect transform="translate(36.4225, 13.5276)" x="-0.0650" y="-3.3122" width="0.1300" height="3.3155" ry="0.0400" fill="currentColor"/>
<a style="color:inherit;" xlink:href="textedit:///tmp/src/s/b/sphinx/html/-:52:31:32">
<path transform="translate(59.9670, 10.5276) scale(0.0040, -0.0040)" d="M220 138c56 0 109 -29 109 -91c0 -72 -56 -121 -103 -149c-36 -21 -76 -36 -117 -36c-56 0 -109 29 -109 91c0 72 56 121 103 149c36 21 76 36 117 36z" fill="currentColor"/>
</a>
<a style="color:inherit;" xlink:href="textedit:///tmp/src/s/b/sphinx/html/-:52:19:20">
<path transform="translate(49.9260, 10.0276) scale(0.0040, -0.0040)" d="M220 138c56 0 109 -29 109 -91c0 -72 -56 -121 -103 -149c-36 -21 -76 -36 -117 -36c-56 0 -109 29 -109 91c0 72 56 121 103 149c36 21 76 36 117 36z" fill="currentColor"/>
</a>
<a style="color:inherit;" xlink:href="textedit:///tmp/src/s/b/sphinx/html/-:52:12:13">
<path transform="translate(50.3735, 13.0276) scale(0.0040, -0.0040)" d="M215 112c-50 0 -69 -43 -69 -88c0 -77 57 -136 134 -136c50 0 69 43 69 88c0 77 -57 136 -134 136zM495 0c0 -43 -35 -76 -73 -97c-53 -30 -113 -41 -174 -41s-122 11 -175 41c-38 21 -73 54 -73 97s35 76 73 97c53 30 114 41 175 41s121 -11 174 -41
c38 -21 73 -54 73 -97z" fill="currentColor"/>
</a>
<a style="color:inherit;" xlink:href="textedit:///tmp/src/s/b/sphinx/html/-:15:18:19">
<path transform="translate(49.9260, 6.0000) scale(0.0040, -0.0040)" d="M365 0h-355c-6 0 -10 4 -10 10v136c0 6 4 10 10 10h355c6 0 10 -4 10 -10v-136c0 -6 -4 -10 -10 -10z" fill="currentColor"/>
</a>
<a style="color:inherit;" xlink:href="textedit:///tmp/src/s/b/sphinx/html/-:15:12:13">
<path transform="translate(49.9260, 2.0000) scale(0.0040, -0.0040)" d="M365 -156h-355c-6 0 -10 4 -10 10v136c0 6 4 10 10 10h355c6 0 10 -4 10 -10v-136c0 -6 -4 -10 -10 -10z" fill="currentColor"/>
</a>
<a style="color:inherit;" xlink:href="textedit:///tmp/src/s/b/sphinx/html/-:15:21:22">
<path transform="translate(59.9670, 5.0000) scale(0.0040, -0.0040)" d="M315 65c0 24 -21 41 -42 41c-4 0 -8 0 -12 -1c-31 -9 -77 -40 -114 -64s-84 -53 -104 -78c-7 -8 -11 -18 -11 -28c0 -24 21 -41 42 -41c4 0 8 0 12 1c31 9 78 40 115 64s84 53 104 78c7 8 10 18 10 28zM264 137c47 0 83 -21 83 -72c0 -19 -4 -37 -10 -56
c-12 -38 -32 -74 -65 -96c-54 -36 -113 -51 -188 -51c-47 0 -84 22 -84 73c0 19 5 37 11 56c12 38 31 74 64 96c54 36 114 50 189 50z" fill="currentColor"/>
</a>
</svg>
