<svg xmlns="http://www.w3.org/2000/svg" xmlns:xlink="http://www.w3.org/1999/xlink" version="1.2" width="177.08mm" height="33.46mm" viewBox="7.3532 -0.0000 100.7672 19.0418">
<line transform="translate(8.5358, 7.6485)" stroke-linejoin="round" stroke-linecap="round" stroke-width="0.1000" stroke="currentColor" x1="0.0500" y1="-0.0000" x2="99.5346" y2="-0.0000"/>
<line transform="translate(8.5358, 6.6485)" stroke-linejoin="round" stroke-linecap="round" stroke-width="0.1000" stroke="currentColor" x1="0.0500" y1="-0.0000" x2="99.5346" y2="-0.0000"/>
<line transform="translate(8.5358, 5.6485)" stroke-linejoin="round" stroke-linecap="round" stroke-width="0.1000" stroke="currentColor" x1="0.0500" y1="-0.0000" x2="99.5346" y2="-0.0000"/>
<line transform="translate(8.5358, 4.6485)" stroke-linejoin="round" stroke-linecap="round" stroke-width="0.1000" stroke="currentColor" x1="0.0500" y1="-0.0000" x2="99.5346" y2="-0.0000"/>
<line transform="translate(8.5358, 3.6485)" stroke-linejoin="round" stroke-linecap="round" stroke-width="0.1000" stroke="currentColor" x1="0.0500" y1="-0.0000" x2="99.5346" y2="-0.0000"/>
<rect transform="translate(107.9305, 14.9918)" x="0.0000" y="-2.0500" width="0.1900" height="4.0500" ry="0.0000" fill="currentColor"/>
<rect transform="translate(63.1940, 14.9918)" x="0.0000" y="-2.0500" width="0.1900" height="4.0500" ry="0.0000" fill="currentColor"/>
<rect transform="translate(107.9305, -0.0000)" x="0.0000" y="7.6985" width="0.1900" height="5.2933" ry="0.0000" fill="currentColor"/>
<rect transform="translate(107.9305, 5.6485)" x="0.0000" y="-2.0000" width="0.1900" height="4.0500" ry="0.0000" fill="currentColor"/>
<rect transform="translate(63.1940, -0.0000)" x="0.0000" y="7.6985" width="0.1900" height="5.2933" ry="0.0000" fill="currentColor"/>
<rect transform="translate(63.1940, 5.6485)" x="0.0000" y="-2.0000" width="0.1900" height="4.0500" ry="0.0000" fill="currentColor"/>
<rect transform="translate(0.0000, 2.6485)" x="93.8809" y="-0.1000" width="1.9743" height="0.2000" ry="0.1000" fill="currentColor"/>
<rect transform="translate(0.0000, 11.9918)" x="33.5681" y="-0.1000" width="2.0850" height="0.2000" ry="0.1000" fill="currentColor"/>
<rect transform="translate(0.0000, 11.9918)" x="63.9254" y="-0.1000" width="1.9743" height="0.2000" ry="0.1000" fill="currentColor"/>
<rect transform="translate(0.0000, 11.9918)" x="78.5213" y="-0.1000" width="2.0850" height="0.2000" ry="0.1000" fill="currentColor"/>
<line transform="translate(8.5358, 16.9918)" stroke-linejoin="round" stroke-linecap="round" stroke-width="0.1000" stroke="currentColor" x1="0.0500" y1="-0.0000" x2="99.5346" y2="-0.0000"/>
<line transform="translate(8.5358, 15.9918)" stroke-linejoin="round" stroke-linecap="round" stroke-width="0.1000" stroke="currentColor" x1="0.0500" y1="-0.0000" x2="99.5346" y2="-0.0000"/>
<line transform="translate(8.5358, 14.9918)" stroke-linejoin="round" stroke-linecap="round" stroke-width="0.1000" stroke="currentColor" x1="0.0500" y1="-0.0000" x2="99.5346" y2="-0.0000"/>
<line transform="translate(8.5358, 13.9918)" stroke-linejoin="round" stroke-linecap="round" stroke-width="0.1000" stroke="currentColor" x1="0.0500" y1="-0.0000" x2="99.5346" y2="-0.0000"/>
<line transform="translate(8.5358, 12.9918)" stroke-linejoin="round" stroke-linecap="round" stroke-width="0.1000" stroke="currentColor" x1="0.0500" y1="-0.0000" x2="99.5346" y2="-0.0000"/>
<rect transform="translate(75.5322, 14.9918)" x="-0.0650" y="-1.8122" width="0.1300" height="2.8075" ry="0.0400" fill="currentColor"/>
<a style="color:inherit;" xlink:href="textedit:///tmp/src/s/b/sphinx/html/-:52:33:34">
<path transform="translate(75.4672, 12.9918) scale(0.0040, -0.0040)" d="M220 138c56 0 109 -29 109 -91c0 -72 -56 -121 -103 -149c-36 -21 -76 -36 -117 -36c-56 0 -109 29 -109 91c0 72 56 121 103 149c36 21 76 36 117 36z" fill="currentColor"/>
</a>
<rect transform="translate(72.1046, 5.6485)" x="-0.0650" y="-0.3122" width="0.1300" height="3.8122" ry="0.0400" fill="currentColor"/>
<rect transform="translate(74.3642, 5.6485)" x="-0.0650" y="-0.8122" width="0.1300" height="4.3122" ry="0.0400" fill="currentColor"/>
<a style="color:inherit;" xlink:href="textedit:///tmp/src/s/b/sphinx/html/-:15:24:25">
<path transform="translate(72.0396, 5.1485) scale(0.0040, -0.0040)" d="M220 138c56 0 109 -29 109 -91c0 -72 -56 -121 -103 -149c-36 -21 -76 -36 -117 -36c-56 0 -109 29 -109 91c0 72 56 121 103 149c36 21 76 36 117 36z" fill="currentColor"/>
</a>
<a style="color:inherit;" xlink:href="textedit:///tmp/src/s/b/sphinx/html/-:15:30:31">
<path transform="translate(74.2992, 4.6485) scale(0.0040, -0.0040)" d="M220 138c56 0 109 -29 109 -91c0 -72 -56 -121 -103 -149c-36 -21 -76 -36 -117 -36c-56 0 -109 29 -109 91c0 72 56 121 103 149c36 21 76 36 117 36z" fill="currentColor"/>
</a>
<path transform="translate(70.5896, 5.1485) scale(0.0040, -0.0040)" d="M216 -312c0 -10 -8 -19 -18 -19s-19 9 -19 19v145l-83 -31v-158c0 -10 -9 -19 -19 -19s-18 9 -18 19v145l-32 -12c-2 -1 -5 -1 -7 -1c-11 0 -20 9 -20 20v60c0 8 5 16 13 19l46 16v160l-32 -11c-2 -1 -5 -1 -7 -1c-11 0 -20 9 -20 20v60c0 8 5 15 13 18l46 17v158
c0 10 8 19 18 19s19 -9 19 -19v-145l83 31v158c0 10 9 19 19 19s18 -9 18 -19v-145l32 12c2 1 5 1 7 1c11 0 20 -9 20 -20v-60c0 -8 -5 -16 -13 -19l-46 -16v-160l32 11c2 1 5 1 7 1c11 0 20 -9 20 -20v-60c0 -8 -5 -15 -13 -18l-46 -17v-158zM96 65v-160l83 30v160z" fill="currentColor"/>
<rect transform="translate(81.1933, 5.6485)" x="-0.0650" y="-0.3122" width="0.1300" height="2.9694" ry="0.0400" fill="currentColor"/>
<a style="color:inherit;" xlink:href="textedit:///tmp/src/s/b/sphinx/html/-:15:8:9">
<path transform="translate(64.2544, 4.6485) scale(0.0040, -0.0040)" d="M220 138c56 0 109 -29 109 -91c0 -72 -56 -121 -103 -149c-36 -21 -76 -36 -117 -36c-56 0 -109 29 -109 91c0 72 56 121 103 149c36 21 76 36 117 36z" fill="currentColor"/>
</a>
<rect transform="translate(83.4528, 5.6485)" x="-0.0650" y="-0.8122" width="0.1300" height="3.3208" ry="0.0400" fill="currentColor"/>
<a style="color:inherit;" xlink:href="textedit:///tmp/src/s/b/sphinx/html/-:15:51:52">
<path transform="translate(83.6533, 3.0985) scale(0.0022, -0.0022)" d="M136 504c20 0 38 -18 58 -18c16 0 31 8 45 14c2 1 2 1 4 1c8 0 16 -9 16 -21v-351c0 -52 32 -100 81 -100c10 0 14 -8 14 -15s-4 -14 -14 -14c-49 0 -97 14 -146 14s-96 -14 -145 -14c-10 0 -15 7 -15 14s5 15 15 15c49 0 80 48 80 100v215c0 15 -11 23 -20 23
c-5 0 -9 -2 -11 -7l-66 -127c-4 -7 -9 -9 -15 -9c-9 0 -19 7 -19 17c0 3 0 6 2 9l129 250c1 3 4 4 7 4z" fill="currentColor"/>
</a>
<a style="color:inherit;" xlink:href="textedit:///tmp/src/s/b/sphinx/html/-:15:48:49">
<path transform="translate(83.3878, 4.6485) scale(0.0040, -0.0040)" d="M220 138c56 0 109 -29 109 -91c0 -72 -56 -121 -103 -149c-36 -21 -76 -36 -117 -36c-56 0 -109 29 -109 91c0 72 56 121 103 149c36 21 76 36 117 36z" fill="currentColor"/>
</a>
<a style="color:inherit;" xlink:href="textedit:///tmp/src/s/b/sphinx/html/-:15:36:37">
<path transform="translate(78.8688, 4.6485) scale(0.0040, -0.0040)" d="M220 138c56 0 109 -29 109 -91c0 -72 -56 -121 -103 -149c-36 -21 -76 -36 -117 -36c-56 0 -109 29 -109 91c0 72 56 121 103 149c36 21 76 36 117 36z" fill="currentColor"/>
</a>
<a style="color:inherit;" xlink:href="textedit:///tmp/src/s/b/sphinx/html/-:15:42:43">
<path transform="translate(81.1283, 5.1485) scale(0.0040, -0.0040)" d="M220 138c56 0 109 -29 109 -91c0 -72 -56 -121 -103 -149c-36 -21 -76 -36 -117 -36c-56 0 -109 29 -109 91c0 72 56 121 103 149c36 21 76 36 117 36z" fill="currentColor"/>
</a>
<rect transform="translate(78.9338, 14.9918)" x="-0.0650" y="-3.2386" width="0.1300" height="3.2386" ry="0.0400" fill="currentColor"/>
<rect transform="translate(78.9338, 5.6485)" x="-0.0650" y="-0.8122" width="0.1300" height="3.6179" ry="0.0400" fill="currentColor"/>
<a style="color:inherit;" xlink:href="textedit:///tmp/src/s/b/sphinx/html/-:52:37:38">
<path transform="translate(78.8688, 11.4918) scale(0.0040, -0.0040)" d="M315 65c0 24 -21 41 -42 41c-4 0 -8 0 -12 -1c-31 -9 -77 -40 -114 -64s-84 -53 -104 -78c-7 -8 -11 -18 -11 -28c0 -24 21 -41 42 -41c4 0 8 0 12 1c31 9 78 40 115 64s84 53 104 78c7 8 10 18 10 28zM264 137c47 0 83 -21 83 -72c0 -19 -4 -37 -10 -56
c-12 -38 -32 -74 -65 -96c-54 -36 -113 -51 -188 -51c-47 0 -84 22 -84 73c0 19 5 37 11 56c12 38 31 74 64 96c54 36 114 50 189 50z" fill="currentColor"/>
</a>
<rect transform="translate(64.3194, 14.9918)" x="-0.0650" y="-3.3122" width="0.1300" height="3.5068" ry="0.0400" fill="currentColor"/>
<path transform="translate(66.2838, 11.4918) scale(0.0040, -0.0040)" d="M0 0c0 31 25 56 56 56s56 -25 56 -56s-25 -56 -56 -56s-56 25 -56 56z" fill="currentColor"/>
<rect transform="translate(65.7688, 14.9918)" x="-0.0650" y="-4.0000" width="0.1300" height="2.8122" ry="0.0400" fill="currentColor"/>
<path transform="translate(66.2838, 13.4918) scale(0.0040, -0.0040)" d="M0 0c0 31 25 56 56 56s56 -25 56 -56s-25 -56 -56 -56s-56 25 -56 56z" fill="currentColor"/>
<rect transform="translate(64.3194, 5.6485)" x="-0.0650" y="-0.8122" width="0.1300" height="4.3122" ry="0.0400" fill="currentColor"/>
<a style="color:inherit;" xlink:href="textedit:///tmp/src/s/b/sphinx/html/-:52:28:29">
<path transform="translate(64.2544, 11.4918) scale(0.0040, -0.0040)" d="M220 138c56 0 109 -29 109 -91c0 -72 -56 -121 -103 -149c-36 -21 -76 -36 -117 -36c-56 0 -109 29 -109 91c0 72 56 121 103 149c36 21 76 36 117 36z" fill="currentColor"/>
</a>
<a style="color:inherit;" xlink:href="textedit:///tmp/src/s/b/sphinx/html/-:52:12:13">
<path transform="translate(64.5177, 13.9918) scale(0.0040, -0.0040)" d="M220 138c56 0 109 -29 109 -91c0 -72 -56 -121 -103 -149c-36 -21 -76 -36 -117 -36c-56 0 -109 29 -109 91c0 72 56 121 103 149c36 21 76 36 117 36z" fill="currentColor"/>
</a>
<a style="color:inherit;" xlink:href="textedit:///tmp/src/s/b/sphinx/html/-:15:13:14">
<path transform="translate(64.4516, 3.0985) scale(0.0022, -0.0022)" d="M198 284c24 15 48 29 65 52c12 16 19 34 28 52c2 5 6 7 11 7c8 0 16 -6 16 -17v-217h79c12 0 18 -9 18 -18s-6 -18 -18 -18h-79c2 -51 33 -96 80 -96c10 0 15 -8 15 -15s-5 -14 -15 -14c-49 0 -96 14 -145 14s-97 -14 -146 -14c-10 0 -14 7 -14 14s4 15 14 15
c47 0 79 45 81 96h-152c-29 0 -38 17 -38 28c0 3 1 6 2 8c78 88 123 201 123 319c0 11 8 21 17 21c1 0 3 -1 4 -1c25 -7 50 -14 76 -14s52 7 77 14c2 1 4 1 6 1c10 0 17 -7 17 -14c0 -2 0 -5 -2 -7l-282 -319h152v96c0 10 1 21 10 27z" fill="currentColor"/>
</a>
<a style="color:inherit;" xlink:href="textedit:///tmp/src/s/b/sphinx/html/-:14:28:29">
<path transform="translate(27.7287, 5.6485)" stroke-width="0.0800" stroke-linejoin="round" stroke-linecap="round" stroke="currentColor" fill="currentColor" d="M1.516178 -0.196547036838966C2.35412066273499 -0.999297100700462 5.14896525940837 -0.999297100700462 5.98690792214336 -0.196547036838966C5.14896525940837 -0.879297100700463 2.35412066273499 -0.879297100700463 1.516178 -0.196547036838966z"/>
</a>
<rect transform="translate(68.8385, 5.6485)" x="-0.0650" y="-0.8122" width="0.1300" height="4.3122" ry="0.0400" fill="currentColor"/>
<a style="color:inherit;" xlink:href="textedit:///tmp/src/s/b/sphinx/html/-:15:20:21">
<path transform="translate(68.7735, 4.6485) scale(0.0040, -0.0040)" d="M220 138c56 0 109 -29 109 -91c0 -72 -56 -121 -103 -149c-36 -21 -76 -36 -117 -36c-56 0 -109 29 -109 91c0 72 56 121 103 149c36 21 76 36 117 36z" fill="currentColor"/>
</a>
<rect transform="translate(66.5789, 5.6485)" x="-0.0650" y="-1.3122" width="0.1300" height="4.8122" ry="0.0400" fill="currentColor"/>
<a style="color:inherit;" xlink:href="textedit:///tmp/src/s/b/sphinx/html/-:15:16:17">
<path transform="translate(66.5139, 4.1485) scale(0.0040, -0.0040)" d="M220 138c56 0 109 -29 109 -91c0 -72 -56 -121 -103 -149c-36 -21 -76 -36 -117 -36c-56 0 -109 29 -109 91c0 72 56 121 103 149c36 21 76 36 117 36z" fill="currentColor"/>
</a>
<rect transform="translate(105.0971, 5.6485)" x="-0.0650" y="-0.8122" width="0.1300" height="2.6161" ry="0.0400" fill="currentColor"/>
<a style="color:inherit;" xlink:href="textedit:///tmp/src/s/b/sphinx/html/-:15:107:108">
<path transform="translate(105.0321, 4.6485) scale(0.0040, -0.0040)" d="M220 138c56 0 109 -29 109 -91c0 -72 -56 -121 -103 -149c-36 -21 -76 -36 -117 -36c-56 0 -109 29 -109 91c0 72 56 121 103 149c36 21 76 36 117 36z" fill="currentColor"/>
</a>
<rect transform="translate(103.1318, 14.9918)" x="-0.0650" y="-4.8100" width="0.1300" height="2.1222" ry="0.0400" fill="currentColor"/>
<rect transform="translate(101.9456, 5.6485)" x="-0.0650" y="-1.3122" width="0.1300" height="2.8225" ry="0.0400" fill="currentColor"/>
<a style="color:inherit;" xlink:href="textedit:///tmp/src/s/b/sphinx/html/-:52:23:24">
<path transform="translate(101.8806, 12.4918) scale(0.0040, -0.0040)" d="M220 138c56 0 109 -29 109 -91c0 -72 -56 -121 -103 -149c-36 -21 -76 -36 -117 -36c-56 0 -109 29 -109 91c0 72 56 121 103 149c36 21 76 36 117 36z" fill="currentColor"/>
</a>
<a style="color:inherit;" xlink:href="textedit:///tmp/src/s/b/sphinx/html/-:15:103:104">
<path transform="translate(101.8806, 4.1485) scale(0.0040, -0.0040)" d="M220 138c56 0 109 -29 109 -91c0 -72 -56 -121 -103 -149c-36 -21 -76 -36 -117 -36c-56 0 -109 29 -109 91c0 72 56 121 103 149c36 21 76 36 117 36z" fill="currentColor"/>
</a>
<polygon transform="translate(74.4322, 15.0986)" stroke-linejoin="round" stroke-linecap="round" stroke-width="0.0800" fill="currentColor" stroke="currentColor" points="1.1250 -0.1168 1.1250 0.2832 0.0400 0.2000 0.0400 -0.2000"/>
<polygon transform="translate(64.2544, 15.1818)" stroke-linejoin="round" stroke-linecap="round" stroke-width="0.0800" fill="currentColor" stroke="currentColor" points="11.3028 0.6100 11.3028 1.0100 0.0400 0.2000 0.0400 -0.2000"/>
<polygon transform="translate(18.6906, 7.8385)" stroke-linejoin="round" stroke-linecap="round" stroke-width="0.0800" fill="currentColor" stroke="currentColor" points="6.8686 -0.2000 6.8686 0.2000 0.0400 0.2000 0.0400 -0.2000"/>
<polygon transform="translate(18.6906, 8.6485)" stroke-linejoin="round" stroke-linecap="round" stroke-width="0.0800" fill="currentColor" stroke="currentColor" points="6.8686 -0.2000 6.8686 0.2000 0.0400 0.2000 0.0400 -0.2000"/>
<polygon transform="translate(18.6906, 9.4585)" stroke-linejoin="round" stroke-linecap="round" stroke-width="0.0800" fill="currentColor" stroke="currentColor" points="9.1281 -0.2000 9.1281 0.2000 0.0400 0.2000 0.0400 -0.2000"/>
<a style="color:inherit;" xlink:href="textedit:///tmp/src/s/b/sphinx/html/-:51:44:45">
<path transform="translate(33.9156, 14.9918)" stroke-width="0.0800" stroke-linejoin="round" stroke-linecap="round" stroke="currentColor" fill="currentColor" d="M1.589984 -3.0C3.23174590370175 -1.98276927096925 28.3620728512338 -1.98276927096925 30.0038347549355 -3.0C28.3620728512338 -2.10276927096925 3.23174590370175 -2.10276927096925 1.589984 -3.0z"/>
</a>
<a style="color:inherit;" xlink:href="textedit:///tmp/src/s/b/sphinx/html/:0:0:1">
<path transform="translate(49.0194, 5.6485)" stroke-width="0.0800" stroke-linejoin="round" stroke-linecap="round" stroke="currentColor" fill="currentColor" d="M0.769001877106355 -2.200006C1.57576681291841 -2.63636689117067 2.67329552873473 -2.33620580968365 3.14570461866897 -1.550006C2.64163947581212 -2.22045653619409 1.5441107599958 -2.52061761768111 0.769001877106355 -2.200006z"/>
</a>
<polygon transform="translate(35.1018, 2.1485)" stroke-linejoin="round" stroke-linecap="round" stroke-width="0.0800" fill="currentColor" stroke="currentColor" points="12.0245 -0.8900 12.0245 -0.4900 0.0400 0.2000 0.0400 -0.2000"/>
<polygon transform="translate(35.1018, 2.9585)" stroke-linejoin="round" stroke-linecap="round" stroke-width="0.0800" fill="currentColor" stroke="currentColor" points="12.0245 -0.8900 12.0245 -0.4900 0.0400 0.2000 0.0400 -0.2000"/>
<polygon transform="translate(35.1018, 3.7685)" stroke-linejoin="round" stroke-linecap="round" stroke-width="0.0800" fill="currentColor" stroke="currentColor" points="6.6134 -0.5805 6.6134 -0.1805 0.0400 0.2000 0.0400 -0.2000"/>
<a style="color:inherit;" xlink:href="textedit:///tmp/src/s/b/sphinx/html/-:14:84:85">
<polygon transform="translate(52.4651, 1.8385)" stroke-linejoin="round" stroke-linecap="round" stroke-width="0.0800" fill="currentColor" stroke="currentColor" points="8.6526 0.6100 8.6526 1.0100 0.0400 0.2000 0.0400 -0.2000"/>
<polygon transform="translate(52.4651, 2.6485)" stroke-linejoin="round" stroke-linecap="round" stroke-width="0.0800" fill="currentColor" stroke="currentColor" points="8.6526 0.6100 8.6526 1.0100 0.0400 0.2000 0.0400 -0.2000"/>
</a>
<polygon transform="translate(43.8847, 11.1818)" stroke-linejoin="round" stroke-linecap="round" stroke-width="0.0800" fill="currentColor" stroke="currentColor" points="14.0815 0.4200 14.0815 0.8200 0.0400 0.2000 0.0400 -0.2000"/>
<a style="color:inherit;" xlink:href="textedit:///tmp/src/s/b/sphinx/html/-:15:34:35">
<path transform="translate(74.2992, 5.6485)" stroke-width="0.0800" stroke-linejoin="round" stroke-linecap="round" stroke="currentColor" fill="currentColor" d="M1.516178 -1.2195948194076C2.14653292066195 -1.90379909773852 3.73926341002067 -1.90379909773852 4.36961833068263 -1.2195948194076C3.73926341002067 -1.78379909773852 2.14653292066195 -1.78379909773852 1.516178 -1.2195948194076z"/>
</a>
<polygon transform="translate(64.2544, 7.5285)" stroke-linejoin="round" stroke-linecap="round" stroke-width="0.0800" fill="currentColor" stroke="currentColor" points="7.8752 -0.2000 7.8752 0.2000 0.0400 0.2000 0.0400 -0.2000"/>
<polygon transform="translate(64.2544, 8.3385)" stroke-linejoin="round" stroke-linecap="round" stroke-width="0.0800" fill="currentColor" stroke="currentColor" points="7.8752 -0.2000 7.8752 0.2000 0.0400 0.2000 0.0400 -0.2000"/>
<polygon transform="translate(64.2544, 9.1485)" stroke-linejoin="round" stroke-linecap="round" stroke-width="0.0800" fill="currentColor" stroke="currentColor" points="10.1348 -0.2000 10.1348 0.2000 0.0400 0.2000 0.0400 -0.2000"/>
<a style="color:inherit;" xlink:href="textedit:///tmp/src/s/b/sphinx/html/:0:0:1">
<path transform="translate(94.2100, 5.6485)" stroke-width="0.0800" stroke-linejoin="round" stroke-linecap="round" stroke="currentColor" fill="currentColor" d="M0.752879532941733 -4.050006C1.49741469432212 -4.50287375594003 2.52845256289371 -4.27472024359527 3.01240615161066 -3.550006C2.50252552881548 -4.15755459630945 1.47148766024389 -4.38570810865421 0.752879532941733 -4.050006z"/>
</a>
<polygon transform="translate(78.8688, 6.8385)" stroke-linejoin="round" stroke-linecap="round" stroke-width="0.0800" fill="currentColor" stroke="currentColor" points="6.8686 -0.6542 6.8686 -0.2542 0.0400 0.2000 0.0400 -0.2000"/>
<polygon transform="translate(78.8688, 7.6485)" stroke-linejoin="round" stroke-linecap="round" stroke-width="0.0800" fill="currentColor" stroke="currentColor" points="12.2797 -1.0100 12.2797 -0.6100 0.0400 0.2000 0.0400 -0.2000"/>
<polygon transform="translate(78.8688, 8.4585)" stroke-linejoin="round" stroke-linecap="round" stroke-width="0.0800" fill="currentColor" stroke="currentColor" points="12.2797 -1.0100 12.2797 -0.6100 0.0400 0.2000 0.0400 -0.2000"/>
<a style="color:inherit;" xlink:href="textedit:///tmp/src/s/b/sphinx/html/-:15:95:96">
<polygon transform="translate(96.4695, 5.8385)" stroke-linejoin="round" stroke-linecap="round" stroke-width="0.0800" fill="currentColor" stroke="currentColor" points="8.6526 0.6100 8.6526 1.0100 0.0400 0.2000 0.0400 -0.2000"/>
<polygon transform="translate(96.4695, 6.6485)" stroke-linejoin="round" stroke-linecap="round" stroke-width="0.0800" fill="currentColor" stroke="currentColor" points="8.6526 0.6100 8.6526 1.0100 0.0400 0.2000 0.0400 -0.2000"/>
</a>
<polygon transform="translate(89.0931, 10.1818)" stroke-linejoin="round" stroke-linecap="round" stroke-width="0.0800" fill="currentColor" stroke="currentColor" points="14.0637 -0.2000 14.0637 0.2000 0.0400 0.2000 0.0400 -0.2000"/>
<rect transform="translate(91.1234, 5.6485)" x="-0.0650" y="-2.3122" width="0.1300" height="4.3165" ry="0.0400" fill="currentColor"/>
<a style="color:inherit;" xlink:href="textedit:///tmp/src/s/b/sphinx/html/-:15:66:67">
<path transform="translate(91.0584, 3.1485) scale(0.0040, -0.0040)" d="M220 138c56 0 109 -29 109 -91c0 -72 -56 -121 -103 -149c-36 -21 -76 -36 -117 -36c-56 0 -109 29 -109 91c0 72 56 121 103 149c36 21 76 36 117 36z" fill="currentColor"/>
</a>
<rect transform="translate(89.1581, 14.9918)" x="-0.0650" y="-4.8100" width="0.1300" height="2.1222" ry="0.0400" fill="currentColor"/>
<a style="color:inherit;" xlink:href="textedit:///tmp/src/s/b/sphinx/html/-:15:84:85">
<path transform="translate(94.2100, 2.6485) scale(0.0040, -0.0040)" d="M220 138c56 0 109 -29 109 -91c0 -72 -56 -121 -103 -149c-36 -21 -76 -36 -117 -36c-56 0 -109 29 -109 91c0 72 56 121 103 149c36 21 76 36 117 36z" fill="currentColor"/>
</a>
<rect transform="translate(87.9719, 5.6485)" x="-0.0650" y="-1.8122" width="0.1300" height="4.0237" ry="0.0400" fill="currentColor"/>
<a style="color:inherit;" xlink:href="textedit:///tmp/src/s/b/sphinx/html/-:52:18:19">
<path transform="translate(87.9069, 12.4918) scale(0.0040, -0.0040)" d="M220 138c56 0 109 -29 109 -91c0 -72 -56 -121 -103 -149c-36 -21 -76 -36 -117 -36c-56 0 -109 29 -109 91c0 72 56 121 103 149c36 21 76 36 117 36z" fill="currentColor"/>
</a>
<a style="color:inherit;" xlink:href="textedit:///tmp/src/s/b/sphinx/html/-:15:58:59">
<path transform="translate(87.9069, 3.6485) scale(0.0040, -0.0040)" d="M220 138c56 0 109 -29 109 -91c0 -72 -56 -121 -103 -149c-36 -21 -76 -36 -117 -36c-56 0 -109 29 -109 91c0 72 56 121 103 149c36 21 76 36 117 36z" fill="currentColor"/>
</a>
<rect transform="translate(85.7124, 5.6485)" x="-0.0650" y="-1.3122" width="0.1300" height="3.6722" ry="0.0400" fill="currentColor"/>
<rect transform="translate(98.7940, 5.6485)" x="-0.0650" y="-1.8122" width="0.1300" height="3.0288" ry="0.0400" fill="currentColor"/>
<a style="color:inherit;" xlink:href="textedit:///tmp/src/s/b/sphinx/html/-:15:97:98">
<path transform="translate(98.7290, 3.6485) scale(0.0040, -0.0040)" d="M220 138c56 0 109 -29 109 -91c0 -72 -56 -121 -103 -149c-36 -21 -76 -36 -117 -36c-56 0 -109 29 -109 91c0 72 56 121 103 149c36 21 76 36 117 36z" fill="currentColor"/>
</a>
<rect transform="translate(96.5345, 5.6485)" x="-0.0650" y="-2.3122" width="0.1300" height="3.3182" ry="0.0400" fill="currentColor"/>
<a style="color:inherit;" xlink:href="textedit:///tmp/src/s/b/sphinx/html/-:15:90:91">
<path transform="translate(96.4695, 3.1485) scale(0.0040, -0.0040)" d="M220 138c56 0 109 -29 109 -91c0 -72 -56 -121 -103 -149c-36 -21 -76 -36 -117 -36c-56 0 -109 29 -109 91c0 72 56 121 103 149c36 21 76 36 117 36z" fill="currentColor"/>
</a>
<a style="color:inherit;" xlink:href="textedit:///tmp/src/s/b/sphinx/html/-:15:54:55">
<path transform="translate(85.6474, 4.1485) scale(0.0040, -0.0040)" d="M220 138c56 0 109 -29 109 -91c0 -72 -56 -121 -103 -149c-36 -21 -76 -36 -117 -36c-56 0 -109 29 -109 91c0 72 56 121 103 149c36 21 76 36 117 36z" fill="currentColor"/>
</a>
<rect transform="translate(95.4612, 14.9918)" x="-0.0650" y="-4.8100" width="0.1300" height="2.6222" ry="0.0400" fill="currentColor"/>
<path transform="translate(94.3400, 6.8585) scale(0.0040, -0.0040)" d="M0 205c90 50 208 128 208 228c0 23 -3 44 -8 66c-78 -88 -200 -157 -200 -279v-15zM227 864c0 26 -26 75 13 75c27 0 29 -51 29 -75c0 -38 -11 -70 -30 -100c16 -38 25 -79 25 -120c0 -38 -11 -70 -30 -100c11 -36 17 -73 17 -111c0 -179 -251 -254 -251 -433h-16v750h16
v-105c98 44 227 116 227 219zM0 425c96 45 222 117 222 219c0 27 -5 54 -14 79c-79 -90 -208 -158 -208 -283v-15z" fill="currentColor"/>
<rect transform="translate(94.2750, 5.6485)" x="-0.0650" y="-2.8122" width="0.1300" height="4.0622" ry="0.0400" fill="currentColor"/>
<a style="color:inherit;" xlink:href="textedit:///tmp/src/s/b/sphinx/html/-:52:21:22">
<path transform="translate(94.2100, 12.9918) scale(0.0040, -0.0040)" d="M220 138c56 0 109 -29 109 -91c0 -72 -56 -121 -103 -149c-36 -21 -76 -36 -117 -36c-56 0 -109 29 -109 91c0 72 56 121 103 149c36 21 76 36 117 36z" fill="currentColor"/>
</a>
<rect transform="translate(27.7937, 5.6485)" x="-0.0650" y="0.1878" width="0.1300" height="3.6222" ry="0.0400" fill="currentColor"/>
<a style="color:inherit;" xlink:href="textedit:///tmp/src/s/b/sphinx/html/-:51:35:36">
<path transform="translate(27.7287, 16.9918) scale(0.0040, -0.0040)" d="M66 -500l101 327c-34 -12 -70 -23 -106 -23c-46 0 -87 33 -87 79c0 40 32 72 72 72c25 0 49 -15 57 -39c10 -28 5 -59 34 -59c16 0 55 51 60 68l46 151c-34 -12 -68 -22 -104 -22c-46 0 -87 33 -87 79c0 40 33 72 73 72c25 0 48 -15 56 -39c10 -28 5 -59 34 -59
c15 0 50 49 57 63c6 12 23 12 28 0l-179 -670c-8 -7 -17 -10 -27 -10s-20 3 -28 10z" fill="currentColor"/>
</a>
<a style="color:inherit;" xlink:href="textedit:///tmp/src/s/b/sphinx/html/-:14:29:30">
<path transform="translate(27.9258, 3.0985) scale(0.0022, -0.0022)" d="M198 284c24 15 48 29 65 52c12 16 19 34 28 52c2 5 6 7 11 7c8 0 16 -6 16 -17v-217h79c12 0 18 -9 18 -18s-6 -18 -18 -18h-79c2 -51 33 -96 80 -96c10 0 15 -8 15 -15s-5 -14 -15 -14c-49 0 -96 14 -145 14s-97 -14 -146 -14c-10 0 -14 7 -14 14s4 15 14 15
c47 0 79 45 81 96h-152c-29 0 -38 17 -38 28c0 3 1 6 2 8c78 88 123 201 123 319c0 11 8 21 17 21c1 0 3 -1 4 -1c25 -7 50 -14 76 -14s52 7 77 14c2 1 4 1 6 1c10 0 17 -7 17 -14c0 -2 0 -5 -2 -7l-282 -319h152v96c0 10 1 21 10 27z" fill="currentColor"/>
</a>
<a style="color:inherit;" xlink:href="textedit:///tmp/src/s/b/sphinx/html/-:14:25:26">
<path transform="translate(27.7287, 5.6485) scale(0.0040, -0.0040)" d="M220 138c56 0 109 -29 109 -91c0 -72 -56 -121 -103 -149c-36 -21 -76 -36 -117 -36c-56 0 -109 29 -109 91c0 72 56 121 103 149c36 21 76 36 117 36z" fill="currentColor"/>
</a>
<rect transform="translate(25.5341, 5.6485)" x="-0.0650" y="0.6878" width="0.1300" height="3.1222" ry="0.0400" fill="currentColor"/>
<a style="color:inherit;" xlink:href="textedit:///tmp/src/s/b/sphinx/html/-:14:22:23">
<path transform="translate(25.4691, 6.1485) scale(0.0040, -0.0040)" d="M220 138c56 0 109 -29 109 -91c0 -72 -56 -121 -103 -149c-36 -21 -76 -36 -117 -36c-56 0 -109 29 -109 91c0 72 56 121 103 149c36 21 76 36 117 36z" fill="currentColor"/>
</a>
<rect transform="translate(23.2746, 5.6485)" x="-0.0650" y="0.1878" width="0.1300" height="3.6222" ry="0.0400" fill="currentColor"/>
<a style="color:inherit;" xlink:href="textedit:///tmp/src/s/b/sphinx/html/-:14:19:20">
<path transform="translate(23.2096, 5.6485) scale(0.0040, -0.0040)" d="M220 138c56 0 109 -29 109 -91c0 -72 -56 -121 -103 -149c-36 -21 -76 -36 -117 -36c-56 0 -109 29 -109 91c0 72 56 121 103 149c36 21 76 36 117 36z" fill="currentColor"/>
</a>
<a style="color:inherit;" xlink:href="textedit:///tmp/src/s/b/sphinx/html/-:51:41:42">
<path transform="translate(33.9156, 11.4918) scale(0.0040, -0.0040)" d="M315 65c0 24 -21 41 -42 41c-4 0 -8 0 -12 -1c-31 -9 -77 -40 -114 -64s-84 -53 -104 -78c-7 -8 -11 -18 -11 -28c0 -24 21 -41 42 -41c4 0 8 0 12 1c31 9 78 40 115 64s84 53 104 78c7 8 10 18 10 28zM264 137c47 0 83 -21 83 -72c0 -19 -4 -37 -10 -56
c-12 -38 -32 -74 -65 -96c-54 -36 -113 -51 -188 -51c-47 0 -84 22 -84 73c0 19 5 37 11 56c12 38 31 74 64 96c54 36 114 50 189 50z" fill="currentColor"/>
</a>
<rect transform="translate(37.1712, 5.6485)" x="-0.0650" y="-3.6184" width="0.1300" height="4.9305" ry="0.0400" fill="currentColor"/>
<a style="color:inherit;" xlink:href="textedit:///tmp/src/s/b/sphinx/html/-:14:37:38">
<path transform="translate(35.9200, 7.1485) scale(0.0040, -0.0040)" d="M220 138c56 0 109 -29 109 -91c0 -72 -56 -121 -103 -149c-36 -21 -76 -36 -117 -36c-56 0 -109 29 -109 91c0 72 56 121 103 149c36 21 76 36 117 36z" fill="currentColor"/>
</a>
<rect transform="translate(33.9806, 14.9918)" x="-0.0650" y="-3.2386" width="0.1300" height="3.2386" ry="0.0400" fill="currentColor"/>
<rect transform="translate(35.1668, 5.6485)" x="-0.0650" y="-3.5037" width="0.1300" height="3.3159" ry="0.0400" fill="currentColor"/>
<a style="color:inherit;" xlink:href="textedit:///tmp/src/s/b/sphinx/html/-:14:32:33">
<path transform="translate(33.9156, 5.6485) scale(0.0040, -0.0040)" d="M220 138c56 0 109 -29 109 -91c0 -72 -56 -121 -103 -149c-36 -21 -76 -36 -117 -36c-56 0 -109 29 -109 91c0 72 56 121 103 149c36 21 76 36 117 36z" fill="currentColor"/>
</a>
<path transform="translate(30.8940, 15.9518) scale(0.0040, -0.0040)" d="M0 205c92 51 214 131 214 233c0 24 -5 48 -14 70c-80 -89 -200 -160 -200 -283v-20zM269 663c0 -44 -15 -82 -38 -116c16 -34 25 -71 25 -109c0 -181 -256 -257 -256 -438h-16v500h16v-70c98 49 227 127 227 233c0 21 -6 42 -14 62c-3 16 10 27 23 27c30 0 33 -63 33 -89
z" fill="currentColor"/>
<rect transform="translate(30.8290, 14.9918)" x="-0.0650" y="-2.3122" width="0.1300" height="3.3122" ry="0.0400" fill="currentColor"/>
<a style="color:inherit;" xlink:href="textedit:///tmp/src/s/b/sphinx/html/-:51:39:40">
<path transform="translate(30.7640, 12.4918) scale(0.0040, -0.0040)" d="M220 138c56 0 109 -29 109 -91c0 -72 -56 -121 -103 -149c-36 -21 -76 -36 -117 -36c-56 0 -109 29 -109 91c0 72 56 121 103 149c36 21 76 36 117 36z" fill="currentColor"/>
</a>
<a style="color:inherit;" xlink:href="textedit:///tmp/src/s/b/sphinx/html/-:14:12:13">
<path transform="translate(18.9219, 3.0985) scale(0.0022, -0.0022)" d="M29 13c-1 -9 -7 -13 -14 -13s-15 5 -15 14c0 173 233 163 233 341c0 56 -14 116 -62 116c-33 0 -66 -15 -66 -44c0 -24 31 -37 31 -61c0 -34 -27 -61 -61 -61s-61 27 -61 61c0 78 74 134 157 134c98 0 191 -55 191 -145c0 -144 -135 -156 -233 -206h7
c36 0 74 -13 111 -40c19 -14 40 -21 59 -21c22 0 40 10 46 31c2 7 7 11 13 11c7 0 15 -5 15 -14v-5c-19 -71 -84 -111 -146 -111c-38 0 -75 15 -101 47c-12 15 -28 22 -44 22c-29 0 -57 -21 -60 -56z" fill="currentColor"/>
</a>
<rect transform="translate(18.7556, 5.6485)" x="-0.0650" y="0.1878" width="0.1300" height="3.6222" ry="0.0400" fill="currentColor"/>
<path transform="translate(15.0858, 17.0404) scale(0.0040, -0.0040)" d="M204 307c22 14 44 29 60 50c11 15 19 33 27 50c2 4 5 6 9 6c6 0 13 -5 13 -14v-245h72c10 0 15 -7 15 -14s-5 -15 -15 -15h-72v-8c0 -48 27 -94 72 -94c8 0 12 -5 12 -11s-4 -12 -12 -12c-44 0 -87 13 -131 13s-87 -13 -131 -13c-8 0 -12 6 -12 12s4 11 12 11
c45 0 73 46 73 94v8h-167c-23 0 -31 14 -31 23c0 3 1 5 2 6c80 93 138 207 138 330c0 9 6 16 13 16h3c23 -7 47 -13 71 -13s48 6 71 13c2 1 3 1 5 1c11 0 18 -10 12 -17l-284 -330h167v131c0 8 1 17 8 22z" fill="currentColor"/>
<path transform="translate(15.2224, 14.9918) scale(0.0040, -0.0040)" d="M150 477c-29 0 -59 -8 -59 -33c0 -22 36 -25 36 -47c0 -32 -26 -58 -58 -58s-57 26 -57 58c0 65 67 103 138 103c91 0 169 -33 169 -114c0 -43 -4 -82 -42 -100c-9 -4 -14 -12 -14 -21s5 -18 14 -22c41 -19 56 -57 56 -103c0 -92 -79 -140 -179 -140
c-79 0 -154 42 -154 113c0 36 30 66 66 66s65 -30 65 -66c0 -25 -40 -28 -40 -53c0 -27 32 -37 63 -37c49 0 63 61 63 117v16c0 54 -2 94 -50 94h-80c-10 0 -14 8 -14 15s4 14 14 14h80c49 0 50 43 50 99v8c0 54 -18 91 -67 91z" fill="currentColor"/>
<a style="color:inherit;" xlink:href="textedit:///tmp/src/s/b/sphinx/html/-:49:8:9">
<path transform="translate(12.8358, 13.9918) scale(0.0040, -0.0040)" d="M216 -312c0 -10 -8 -19 -18 -19s-19 9 -19 19v145l-83 -31v-158c0 -10 -9 -19 -19 -19s-18 9 -18 19v145l-32 -12c-2 -1 -5 -1 -7 -1c-11 0 -20 9 -20 20v60c0 8 5 16 13 19l46 16v160l-32 -11c-2 -1 -5 -1 -7 -1c-11 0 -20 9 -20 20v60c0 8 5 15 13 18l46 17v158
c0 10 8 19 18 19s19 -9 19 -19v-145l83 31v158c0 10 9 19 19 19s18 -9 18 -19v-145l32 12c2 1 5 1 7 1c11 0 20 -9 20 -20v-60c0 -8 -5 -16 -13 -19l-46 -16v-160l32 11c2 1 5 1 7 1c11 0 20 -9 20 -20v-60c0 -8 -5 -15 -13 -18l-46 -17v-158zM96 65v-160l83 30v160z" fill="currentColor"/>
</a>
<path transform="translate(9.3358, 13.9918) scale(0.0040, -0.0040)" d="M557 -125c0 28 23 51 51 51s51 -23 51 -51s-23 -51 -51 -51s-51 23 -51 51zM557 125c0 28 23 51 51 51s51 -23 51 -51s-23 -51 -51 -51s-51 23 -51 51zM232 263c172 0 293 -88 293 -251c0 -263 -263 -414 -516 -521c-3 -3 -6 -4 -9 -4c-7 0 -13 6 -13 13c0 3 1 6 4 9
c202 118 412 265 412 493c0 120 -63 235 -171 235c-74 0 -129 -54 -154 -126c11 5 22 8 34 8c55 0 100 -45 100 -100c0 -58 -44 -106 -100 -106c-60 0 -112 47 -112 106c0 133 102 244 232 244z" fill="currentColor"/>
<a style="color:inherit;" xlink:href="textedit:///tmp/src/s/b/sphinx/html/-:51:32:33">
<path transform="translate(18.6906, 16.9918) scale(0.0040, -0.0040)" d="M72 -250l117 326c-34 -12 -69 -22 -105 -22c-46 0 -87 33 -87 79c0 40 33 72 73 72c25 0 48 -15 56 -39c10 -28 6 -59 35 -59c16 0 54 48 61 63c6 12 23 12 28 0l-123 -420c-8 -7 -17 -10 -27 -10s-20 3 -28 10z" fill="currentColor"/>
</a>
<a style="color:inherit;" xlink:href="textedit:///tmp/src/s/b/sphinx/html/-:51:15:16">
<path transform="translate(18.8877, 12.4418) scale(0.0022, -0.0022)" d="M198 284c24 15 48 29 65 52c12 16 19 34 28 52c2 5 6 7 11 7c8 0 16 -6 16 -17v-217h79c12 0 18 -9 18 -18s-6 -18 -18 -18h-79c2 -51 33 -96 80 -96c10 0 15 -8 15 -15s-5 -14 -15 -14c-49 0 -96 14 -145 14s-97 -14 -146 -14c-10 0 -14 7 -14 14s4 15 14 15
c47 0 79 45 81 96h-152c-29 0 -38 17 -38 28c0 3 1 6 2 8c78 88 123 201 123 319c0 11 8 21 17 21c1 0 3 -1 4 -1c25 -7 50 -14 76 -14s52 7 77 14c2 1 4 1 6 1c10 0 17 -7 17 -14c0 -2 0 -5 -2 -7l-282 -319h152v96c0 10 1 21 10 27z" fill="currentColor"/>
</a>
<a style="color:inherit;" xlink:href="textedit:///tmp/src/s/b/sphinx/html/-:51:12:13">
<path transform="translate(18.6906, 13.4918) scale(0.0040, -0.0040)" d="M220 138c56 0 109 -29 109 -91c0 -72 -56 -121 -103 -149c-36 -21 -76 -36 -117 -36c-56 0 -109 29 -109 91c0 72 56 121 103 149c36 21 76 36 117 36z" fill="currentColor"/>
</a>
<path transform="translate(15.0858, 7.6971) scale(0.0040, -0.0040)" d="M204 307c22 14 44 29 60 50c11 15 19 33 27 50c2 4 5 6 9 6c6 0 13 -5 13 -14v-245h72c10 0 15 -7 15 -14s-5 -15 -15 -15h-72v-8c0 -48 27 -94 72 -94c8 0 12 -5 12 -11s-4 -12 -12 -12c-44 0 -87 13 -131 13s-87 -13 -131 -13c-8 0 -12 6 -12 12s4 11 12 11
c45 0 73 46 73 94v8h-167c-23 0 -31 14 -31 23c0 3 1 5 2 6c80 93 138 207 138 330c0 9 6 16 13 16h3c23 -7 47 -13 71 -13s48 6 71 13c2 1 3 1 5 1c11 0 18 -10 12 -17l-284 -330h167v131c0 8 1 17 8 22z" fill="currentColor"/>
<path transform="translate(15.2224, 5.6485) scale(0.0040, -0.0040)" d="M150 477c-29 0 -59 -8 -59 -33c0 -22 36 -25 36 -47c0 -32 -26 -58 -58 -58s-57 26 -57 58c0 65 67 103 138 103c91 0 169 -33 169 -114c0 -43 -4 -82 -42 -100c-9 -4 -14 -12 -14 -21s5 -18 14 -22c41 -19 56 -57 56 -103c0 -92 -79 -140 -179 -140
c-79 0 -154 42 -154 113c0 36 30 66 66 66s65 -30 65 -66c0 -25 -40 -28 -40 -53c0 -27 32 -37 63 -37c49 0 63 61 63 117v16c0 54 -2 94 -50 94h-80c-10 0 -14 8 -14 15s4 14 14 14h80c49 0 50 43 50 99v8c0 54 -18 91 -67 91z" fill="currentColor"/>
<a style="color:inherit;" xlink:href="textedit:///tmp/src/s/b/sphinx/html/-:12:8:9">
<path transform="translate(12.8358, 3.6485) scale(0.0040, -0.0040)" d="M216 -312c0 -10 -8 -19 -18 -19s-19 9 -19 19v145l-83 -31v-158c0 -10 -9 -19 -19 -19s-18 9 -18 19v145l-32 -12c-2 -1 -5 -1 -7 -1c-11 0 -20 9 -20 20v60c0 8 5 16 13 19l46 16v160l-32 -11c-2 -1 -5 -1 -7 -1c-11 0 -20 9 -20 20v60c0 8 5 15 13 18l46 17v158
c0 10 8 19 18 19s19 -9 19 -19v-145l83 31v158c0 10 9 19 19 19s18 -9 18 -19v-145l32 12c2 1 5 1 7 1c11 0 20 -9 20 -20v-60c0 -8 -5 -16 -13 -19l-46 -16v-160l32 11c2 1 5 1 7 1c11 0 20 -9 20 -20v-60c0 -8 -5 -15 -13 -18l-46 -17v-158zM96 65v-160l83 30v160z" fill="currentColor"/>
</a>
<path transform="translate(9.3358, 6.6485) scale(0.0040, -0.0040)" d="M376 262c4 0 9 1 13 1c155 0 256 -128 256 -261c0 -76 -33 -154 -107 -210c-22 -17 -47 -28 -73 -36c3 -35 5 -70 5 -105c0 -19 -1 -39 -2 -58c-7 -120 -90 -228 -208 -228c-108 0 -195 88 -195 197c0 58 53 103 112 103c54 0 95 -47 95 -103c0 -52 -43 -95 -95 -95
c-11 0 -21 2 -31 6c26 -39 68 -65 117 -65c96 0 157 92 163 191c1 18 2 37 2 55c0 31 -1 61 -4 92c-29 -5 -58 -8 -89 -8c-188 0 -333 172 -333 374c0 177 131 306 248 441c-19 62 -37 125 -45 190c-6 52 -7 104 -7 156c0 115 55 224 149 292c3 2 7 3 10 3c4 0 7 0 10 -3
c71 -84 133 -245 133 -358c0 -143 -86 -255 -180 -364c21 -68 39 -138 56 -207zM461 -203c68 24 113 95 113 164c0 90 -66 179 -173 190c24 -116 46 -231 60 -354zM74 28c0 -135 129 -247 264 -247c28 0 55 2 82 6c-14 127 -37 245 -63 364c-79 -8 -124 -61 -124 -119
c0 -44 25 -91 81 -123c5 -5 7 -10 7 -15c0 -11 -10 -22 -22 -22c-3 0 -6 1 -9 2c-80 43 -117 115 -117 185c0 88 58 174 160 197c-14 58 -29 117 -46 175c-107 -121 -213 -243 -213 -403zM408 1045c-99 -48 -162 -149 -162 -259c0 -74 18 -133 36 -194
c80 97 146 198 146 324c0 55 -4 79 -20 129z" fill="currentColor"/>
<a style="color:inherit;" xlink:href="textedit:///tmp/src/s/b/sphinx/html/-:14:8:9">
<path transform="translate(18.6906, 5.6485) scale(0.0040, -0.0040)" d="M220 138c56 0 109 -29 109 -91c0 -72 -56 -121 -103 -149c-36 -21 -76 -36 -117 -36c-56 0 -109 29 -109 91c0 72 56 121 103 149c36 21 76 36 117 36z" fill="currentColor"/>
</a>
<a style="color:inherit;" xlink:href="textedit:///tmp/src/s/b/sphinx/html/-:52:40:41">
<path transform="translate(78.8688, 14.9918)" stroke-width="0.0800" stroke-linejoin="round" stroke-linecap="round" stroke="currentColor" fill="currentColor" d="M1.589984 -3.0C3.21952173216833 -1.98455474870988 27.232141165608 -1.98455474870988 28.8616788977763 -3.0C27.232141165608 -2.10455474870988 3.21952173216833 -2.10455474870988 1.589984 -3.0z"/>
</a>
<rect transform="translate(8.4758, 10.3201)" x="0.0000" y="-6.7217" width="0.1600" height="13.4433" ry="0.0500" fill="currentColor"/>
<path transform="translate(8.1758, 10.3201) scale(0.0040, -0.0040)" d="M-15 -510c0 -270 -105 -531 -105 -786c0 -138 33 -267 132 -369c3 -3 3 -9 3 -12c0 -9 -6 -15 -15 -15c-3 0 -9 3 -12 6c-135 138 -180 318 -180 510c0 276 111 543 111 801c0 138 -33 264 -132 366c-3 3 -3 6 -3 9s0 6 3 9c99 102 132 228 132 366
c0 258 -111 525 -111 801c0 192 45 372 180 510c3 3 9 6 12 6c9 0 15 -6 15 -15c0 -3 0 -9 -3 -12c-99 -102 -132 -231 -132 -369c0 -255 105 -516 105 -786c0 -189 -48 -372 -177 -510c129 -138 177 -321 177 -510z" fill="currentColor"/>
<rect transform="translate(21.0151, 5.6485)" x="-0.0650" y="-0.3122" width="0.1300" height="4.1222" ry="0.0400" fill="currentColor"/>
<a style="color:inherit;" xlink:href="textedit:///tmp/src/s/b/sphinx/html/-:14:15:16">
<path transform="translate(20.9501, 5.1485) scale(0.0040, -0.0040)" d="M220 138c56 0 109 -29 109 -91c0 -72 -56 -121 -103 -149c-36 -21 -76 -36 -117 -36c-56 0 -109 29 -109 91c0 72 56 121 103 149c36 21 76 36 117 36z" fill="currentColor"/>
</a>
<rect transform="translate(19.9417, 14.9918)" x="-0.0650" y="-4.3333" width="0.1300" height="2.6455" ry="0.0400" fill="currentColor"/>
<path transform="translate(20.4567, 13.4918) scale(0.0040, -0.0040)" d="M0 0c0 31 25 56 56 56s56 -25 56 -56s-25 -56 -56 -56s-56 25 -56 56z" fill="currentColor"/>
<a style="color:inherit;" xlink:href="textedit:///tmp/src/s/b/sphinx/html/-:51:23:24">
<path transform="translate(49.0194, 13.9918) scale(0.0040, -0.0040)" d="M220 138c56 0 109 -29 109 -91c0 -72 -56 -121 -103 -149c-36 -21 -76 -36 -117 -36c-56 0 -109 29 -109 91c0 72 56 121 103 149c36 21 76 36 117 36z" fill="currentColor"/>
</a>
<a style="color:inherit;" xlink:href="textedit:///tmp/src/s/b/sphinx/html/-:14:73:74">
<path transform="translate(49.0194, 4.6485) scale(0.0040, -0.0040)" d="M220 138c56 0 109 -29 109 -91c0 -72 -56 -121 -103 -149c-36 -21 -76 -36 -117 -36c-56 0 -109 29 -109 91c0 72 56 121 103 149c36 21 76 36 117 36z" fill="currentColor"/>
</a>
<a style="color:inherit;" xlink:href="textedit:///tmp/src/s/b/sphinx/html/-:14:89:90">
<path transform="translate(56.6900, 6.1485) scale(0.0040, -0.0040)" d="M220 138c56 0 109 -29 109 -91c0 -72 -56 -121 -103 -149c-36 -21 -76 -36 -117 -36c-56 0 -109 29 -109 91c0 72 56 121 103 149c36 21 76 36 117 36z" fill="currentColor"/>
</a>
<a style="color:inherit;" xlink:href="textedit:///tmp/src/s/b/sphinx/html/-:51:27:28">
<path transform="translate(56.6900, 14.4918) scale(0.0040, -0.0040)" d="M220 138c56 0 109 -29 109 -91c0 -72 -56 -121 -103 -149c-36 -21 -76 -36 -117 -36c-56 0 -109 29 -109 91c0 72 56 121 103 149c36 21 76 36 117 36z" fill="currentColor"/>
</a>
<rect transform="translate(49.0844, 5.6485)" x="-0.0650" y="-0.8122" width="0.1300" height="4.0622" ry="0.0400" fill="currentColor"/>
<rect transform="translate(47.1013, 5.6485)" x="-0.0650" y="-4.1863" width="0.1300" height="3.4985" ry="0.0400" fill="currentColor"/>
<a style="color:inherit;" xlink:href="textedit:///tmp/src/s/b/sphinx/html/-:14:55:56">
<path transform="translate(45.8501, 5.1485) scale(0.0040, -0.0040)" d="M220 138c56 0 109 -29 109 -91c0 -72 -56 -121 -103 -149c-36 -21 -76 -36 -117 -36c-56 0 -109 29 -109 91c0 72 56 121 103 149c36 21 76 36 117 36z" fill="currentColor"/>
</a>
<rect transform="translate(57.9412, 5.6485)" x="-0.0650" y="-3.2997" width="0.1300" height="3.6119" ry="0.0400" fill="currentColor"/>
<rect transform="translate(54.7896, 5.6485)" x="-0.0650" y="-3.5934" width="0.1300" height="3.4056" ry="0.0400" fill="currentColor"/>
<rect transform="translate(52.5301, 5.6485)" x="-0.0650" y="-3.8039" width="0.1300" height="3.1161" ry="0.0400" fill="currentColor"/>
<a style="color:inherit;" xlink:href="textedit:///tmp/src/s/b/sphinx/html/-:14:79:80">
<path transform="translate(51.2789, 5.1485) scale(0.0040, -0.0040)" d="M220 138c56 0 109 -29 109 -91c0 -72 -56 -121 -103 -149c-36 -21 -76 -36 -117 -36c-56 0 -109 29 -109 91c0 72 56 121 103 149c36 21 76 36 117 36z" fill="currentColor"/>
</a>
<a style="color:inherit;" xlink:href="textedit:///tmp/src/s/b/sphinx/html/-:14:86:87">
<path transform="translate(53.5385, 5.6485) scale(0.0040, -0.0040)" d="M220 138c56 0 109 -29 109 -91c0 -72 -56 -121 -103 -149c-36 -21 -76 -36 -117 -36c-56 0 -109 29 -109 91c0 72 56 121 103 149c36 21 76 36 117 36z" fill="currentColor"/>
</a>
<rect transform="translate(50.2706, 14.9918)" x="-0.0650" y="-3.5296" width="0.1300" height="2.3418" ry="0.0400" fill="currentColor"/>
<path transform="translate(49.1494, 8.8585) scale(0.0040, -0.0040)" d="M0 205c90 50 208 128 208 228c0 23 -3 44 -8 66c-78 -88 -200 -157 -200 -279v-15zM227 864c0 26 -26 75 13 75c27 0 29 -51 29 -75c0 -38 -11 -70 -30 -100c16 -38 25 -79 25 -120c0 -38 -11 -70 -30 -100c11 -36 17 -73 17 -111c0 -179 -251 -254 -251 -433h-16v750h16
v-105c98 44 227 116 227 219zM0 425c96 45 222 117 222 219c0 27 -5 54 -14 79c-79 -90 -208 -158 -208 -283v-15z" fill="currentColor"/>
<rect transform="translate(39.4307, 5.6485)" x="-0.0650" y="-3.7476" width="0.1300" height="4.5598" ry="0.0400" fill="currentColor"/>
<rect transform="translate(41.6902, 5.6485)" x="-0.0650" y="-3.8768" width="0.1300" height="4.1890" ry="0.0400" fill="currentColor"/>
<a style="color:inherit;" xlink:href="textedit:///tmp/src/s/b/sphinx/html/-:14:47:48">
<path transform="translate(40.4390, 6.1485) scale(0.0040, -0.0040)" d="M220 138c56 0 109 -29 109 -91c0 -72 -56 -121 -103 -149c-36 -21 -76 -36 -117 -36c-56 0 -109 29 -109 91c0 72 56 121 103 149c36 21 76 36 117 36z" fill="currentColor"/>
</a>
<a style="color:inherit;" xlink:href="textedit:///tmp/src/s/b/sphinx/html/-:14:92:93">
<path transform="translate(59.8416, 6.6485) scale(0.0040, -0.0040)" d="M220 138c56 0 109 -29 109 -91c0 -72 -56 -121 -103 -149c-36 -21 -76 -36 -117 -36c-56 0 -109 29 -109 91c0 72 56 121 103 149c36 21 76 36 117 36z" fill="currentColor"/>
</a>
<rect transform="translate(61.0927, 5.6485)" x="-0.0650" y="-3.0061" width="0.1300" height="3.8182" ry="0.0400" fill="currentColor"/>
<a style="color:inherit;" xlink:href="textedit:///tmp/src/s/b/sphinx/html/-:14:44:45">
<path transform="translate(38.4449, 1.1609) scale(0.0022, -0.0022)" d="M136 504c20 0 38 -18 58 -18c16 0 31 8 45 14c2 1 2 1 4 1c8 0 16 -9 16 -21v-351c0 -52 32 -100 81 -100c10 0 14 -8 14 -15s-4 -14 -14 -14c-49 0 -97 14 -146 14s-96 -14 -145 -14c-10 0 -15 7 -15 14s5 15 15 15c49 0 80 48 80 100v215c0 15 -11 23 -20 23
c-5 0 -9 -2 -11 -7l-66 -127c-4 -7 -9 -9 -15 -9c-9 0 -19 7 -19 17c0 3 0 6 2 9l129 250c1 3 4 4 7 4z" fill="currentColor"/>
</a>
<a style="color:inherit;" xlink:href="textedit:///tmp/src/s/b/sphinx/html/-:14:42:43">
<path transform="translate(38.1795, 6.6485) scale(0.0040, -0.0040)" d="M220 138c56 0 109 -29 109 -91c0 -72 -56 -121 -103 -149c-36 -21 -76 -36 -117 -36c-56 0 -109 29 -109 91c0 72 56 121 103 149c36 21 76 36 117 36z" fill="currentColor"/>
</a>
<rect transform="translate(43.9497, 14.9918)" x="-0.0650" y="-3.8071" width="0.1300" height="2.1193" ry="0.0400" fill="currentColor"/>
<rect transform="translate(57.9412, 14.9918)" x="-0.0650" y="-3.1929" width="0.1300" height="2.5050" ry="0.0400" fill="currentColor"/>
<rect transform="translate(43.9497, 5.6485)" x="-0.0650" y="-4.0060" width="0.1300" height="3.8182" ry="0.0400" fill="currentColor"/>
<a style="color:inherit;" xlink:href="textedit:///tmp/src/s/b/sphinx/html/-:51:20:21">
<path transform="translate(42.9640, 10.4446) scale(0.0022, -0.0022)" d="M155 471c-34 0 -70 -8 -70 -38c0 -19 31 -23 31 -42c0 -28 -23 -51 -51 -51s-51 23 -51 51c0 67 68 109 141 109c93 0 174 -31 174 -113c0 -41 -6 -77 -42 -94c-11 -5 -17 -16 -17 -27s6 -22 17 -27c40 -19 59 -53 59 -98c0 -94 -83 -141 -186 -141
c-82 0 -160 45 -160 119c0 32 26 58 58 58s58 -26 58 -58c0 -22 -36 -26 -36 -48c0 -33 42 -42 80 -42c46 0 56 58 56 112v38c0 40 -4 69 -43 69h-74c-12 0 -18 9 -18 18s6 18 18 18h74c40 0 43 31 43 73v30c0 50 -16 84 -61 84z" fill="currentColor"/>
</a>
<a style="color:inherit;" xlink:href="textedit:///tmp/src/s/b/sphinx/html/-:51:18:19">
<path transform="translate(42.6986, 13.4918) scale(0.0040, -0.0040)" d="M220 138c56 0 109 -29 109 -91c0 -72 -56 -121 -103 -149c-36 -21 -76 -36 -117 -36c-56 0 -109 29 -109 91c0 72 56 121 103 149c36 21 76 36 117 36z" fill="currentColor"/>
</a>
<a style="color:inherit;" xlink:href="textedit:///tmp/src/s/b/sphinx/html/-:14:50:51">
<path transform="translate(42.6986, 5.6485) scale(0.0040, -0.0040)" d="M220 138c56 0 109 -29 109 -91c0 -72 -56 -121 -103 -149c-36 -21 -76 -36 -117 -36c-56 0 -109 29 -109 91c0 72 56 121 103 149c36 21 76 36 117 36z" fill="currentColor"/>
</a>
</svg>
