<svg xmlns="http://www.w3.org/2000/svg" xmlns:xlink="http://www.w3.org/1999/xlink" version="1.2" width="90.07mm" height="16.70mm" viewBox="8.5358 -0.0240 51.2542 9.5056">
<line transform="translate(8.5358, 5.7760)" stroke-linejoin="round" stroke-linecap="round" stroke-width="0.1000" stroke="currentColor" x1="0.0500" y1="-0.0000" x2="51.2042" y2="-0.0000"/>
<line transform="translate(8.5358, 4.7760)" stroke-linejoin="round" stroke-linecap="round" stroke-width="0.1000" stroke="currentColor" x1="0.0500" y1="-0.0000" x2="51.2042" y2="-0.0000"/>
<line transform="translate(8.5358, 3.7760)" stroke-linejoin="round" stroke-linecap="round" stroke-width="0.1000" stroke="currentColor" x1="0.0500" y1="-0.0000" x2="51.2042" y2="-0.0000"/>
<line transform="translate(8.5358, 2.7760)" stroke-linejoin="round" stroke-linecap="round" stroke-width="0.1000" stroke="currentColor" x1="0.0500" y1="-0.0000" x2="51.2042" y2="-0.0000"/>
<line transform="translate(8.5358, 1.7760)" stroke-linejoin="round" stroke-linecap="round" stroke-width="0.1000" stroke="currentColor" x1="0.0500" y1="-0.0000" x2="51.2042" y2="-0.0000"/>
<rect transform="translate(59.6000, 3.7760)" x="0.0000" y="-2.0000" width="0.1900" height="4.0000" ry="0.0000" fill="currentColor"/>
<a style="color:inherit;" xlink:href="textedit:///tmp/src/s/b/sphinx/html/-:10:69:70">
<path transform="translate(41.4784, 2.2760) scale(0.0040, -0.0040)" d="M220 138c56 0 109 -29 109 -91c0 -72 -56 -121 -103 -149c-36 -21 -76 -36 -117 -36c-56 0 -109 29 -109 91c0 72 56 121 103 149c36 21 76 36 117 36z" fill="currentColor"/>
</a>
<rect transform="translate(49.0920, 3.7760)" x="-0.0650" y="-0.8122" width="0.1300" height="3.0001" ry="0.0400" fill="currentColor"/>
<a style="color:inherit;" xlink:href="textedit:///tmp/src/s/b/sphinx/html/-:10:85:86">
<path transform="translate(49.0270, 2.7760) scale(0.0040, -0.0040)" d="M220 138c56 0 109 -29 109 -91c0 -72 -56 -121 -103 -149c-36 -21 -76 -36 -117 -36c-56 0 -109 29 -109 91c0 72 56 121 103 149c36 21 76 36 117 36z" fill="currentColor"/>
</a>
<rect transform="translate(46.5758, 3.7760)" x="-0.0650" y="-1.3122" width="0.1300" height="3.4211" ry="0.0400" fill="currentColor"/>
<a style="color:inherit;" xlink:href="textedit:///tmp/src/s/b/sphinx/html/-:10:79:80">
<path transform="translate(46.5108, 2.2760) scale(0.0040, -0.0040)" d="M220 138c56 0 109 -29 109 -91c0 -72 -56 -121 -103 -149c-36 -21 -76 -36 -117 -36c-56 0 -109 29 -109 91c0 72 56 121 103 149c36 21 76 36 117 36z" fill="currentColor"/>
</a>
<rect transform="translate(44.0596, 3.7760)" x="-0.0650" y="-1.8122" width="0.1300" height="3.8421" ry="0.0400" fill="currentColor"/>
<a style="color:inherit;" xlink:href="textedit:///tmp/src/s/b/sphinx/html/-:10:75:76">
<path transform="translate(43.9946, 1.7760) scale(0.0040, -0.0040)" d="M220 138c56 0 109 -29 109 -91c0 -72 -56 -121 -103 -149c-36 -21 -76 -36 -117 -36c-56 0 -109 29 -109 91c0 72 56 121 103 149c36 21 76 36 117 36z" fill="currentColor"/>
</a>
<rect transform="translate(41.5434, 3.7760)" x="-0.0650" y="-1.3122" width="0.1300" height="3.2630" ry="0.0400" fill="currentColor"/>
<a style="color:inherit;" xlink:href="textedit:///tmp/src/s/b/sphinx/html/-:10:11:12">
</a>
<a style="color:inherit;" xlink:href="textedit:///tmp/src/s/b/sphinx/html/-:10:11:12">
<text transform="translate(27.8110, 7.2179)" font-family="Century Schoolbook L" font-style="italic" font-size="1.7461" text-anchor="start" fill="currentColor">
<tspan>
3</tspan>
</text>
</a>
<a style="color:inherit;" xlink:href="textedit:///tmp/src/s/b/sphinx/html/-:10:39:40">
</a>
<a style="color:inherit;" xlink:href="textedit:///tmp/src/s/b/sphinx/html/-:10:39:40">
<text transform="translate(42.6306, 9.4475)" font-family="Century Schoolbook L" font-style="italic" font-size="1.7461" text-anchor="start" fill="currentColor">
<tspan>
3</tspan>
</text>
</a>
<polygon transform="translate(23.8059, 5.5860)" stroke-linejoin="round" stroke-linecap="round" stroke-width="0.0800" fill="currentColor" stroke="currentColor" points="8.9263 -0.8200 8.9263 -0.4200 0.0400 0.2000 0.0400 -0.2000"/>
<a style="color:inherit;" xlink:href="textedit:///tmp/src/s/b/sphinx/html/-:10:56:57">
<line transform="translate(41.4784, 7.0688)" stroke-linejoin="round" stroke-linecap="round" stroke-width="0.1600" stroke="currentColor" x1="5.3623" y1="0.1642" x2="5.3623" y2="-0.5358"/>
<line transform="translate(41.4784, 7.0688)" stroke-linejoin="round" stroke-linecap="round" stroke-width="0.1600" stroke="currentColor" x1="5.3623" y1="0.1642" x2="3.6587" y2="0.1120"/>
<line transform="translate(41.4784, 7.0688)" stroke-linejoin="round" stroke-linecap="round" stroke-width="0.1600" stroke="currentColor" x1="-0.1999" y1="-0.0061" x2="-0.1999" y2="-0.7061"/>
<line transform="translate(41.4784, 7.0688)" stroke-linejoin="round" stroke-linecap="round" stroke-width="0.1600" stroke="currentColor" x1="-0.1999" y1="-0.0061" x2="1.7036" y2="0.0522"/>
</a>
<a style="color:inherit;" xlink:href="textedit:///tmp/src/s/b/sphinx/html/-:10:56:57">
<text transform="translate(43.5816, 7.7454)" font-family="Century Schoolbook L" font-style="italic" font-size="1.7461" text-anchor="start" fill="currentColor">
<tspan>
3</tspan>
</text>
</a>
<polygon transform="translate(41.4784, 4.9148)" stroke-linejoin="round" stroke-linecap="round" stroke-width="0.0800" fill="currentColor" stroke="currentColor" points="5.1224 -0.0378 5.1224 0.3622 0.0400 0.2000 0.0400 -0.2000"/>
<polygon transform="translate(37.0603, 5.5860)" stroke-linejoin="round" stroke-linecap="round" stroke-width="0.0800" fill="currentColor" stroke="currentColor" points="12.0567 0.1800 12.0567 0.5800 0.0400 0.2000 0.0400 -0.2000"/>
<rect transform="translate(53.5101, 3.7760)" x="-0.0650" y="-0.3122" width="0.1300" height="3.3122" ry="0.0400" fill="currentColor"/>
<a style="color:inherit;" xlink:href="textedit:///tmp/src/s/b/sphinx/html/-:10:92:93">
<path transform="translate(53.4451, 3.2760) scale(0.0040, -0.0040)" d="M220 138c56 0 109 -29 109 -91c0 -72 -56 -121 -103 -149c-36 -21 -76 -36 -117 -36c-56 0 -109 29 -109 91c0 72 56 121 103 149c36 21 76 36 117 36z" fill="currentColor"/>
</a>
<rect transform="translate(23.8709, 3.7760)" x="-0.0650" y="-1.3122" width="0.1300" height="3.1177" ry="0.0400" fill="currentColor"/>
<a style="color:inherit;" xlink:href="textedit:///tmp/src/s/b/sphinx/html/-:10:24:25">
<path transform="translate(23.8059, 2.2760) scale(0.0040, -0.0040)" d="M220 138c56 0 109 -29 109 -91c0 -72 -56 -121 -103 -149c-36 -21 -76 -36 -117 -36c-56 0 -109 29 -109 91c0 72 56 121 103 149c36 21 76 36 117 36z" fill="currentColor"/>
</a>
<rect transform="translate(17.3008, 3.7760)" x="-0.0650" y="-0.3122" width="0.1300" height="3.3122" ry="0.0400" fill="currentColor"/>
<path transform="translate(13.5358, 3.7760) scale(0.0040, -0.0040)" d="M359 27c-49 0 -75 42 -75 75c0 38 27 77 72 77c4 0 9 0 14 -1c-28 37 -72 59 -120 59c-106 0 -113 -73 -113 -186v-51v-51c0 -113 7 -187 113 -187c80 0 139 70 158 151c2 7 7 10 12 10c6 0 13 -4 13 -12c0 -94 -105 -174 -183 -174c-68 0 -137 21 -184 70
c-49 51 -66 122 -66 193s17 142 66 193c47 49 116 69 184 69c87 0 160 -64 175 -150c1 -5 1 -9 1 -13c0 -40 -30 -72 -67 -72z" fill="currentColor"/>
<path transform="translate(9.3358, 4.7760) scale(0.0040, -0.0040)" d="M376 262c4 0 9 1 13 1c155 0 256 -128 256 -261c0 -76 -33 -154 -107 -210c-22 -17 -47 -28 -73 -36c3 -35 5 -70 5 -105c0 -19 -1 -39 -2 -58c-7 -120 -90 -228 -208 -228c-108 0 -195 88 -195 197c0 58 53 103 112 103c54 0 95 -47 95 -103c0 -52 -43 -95 -95 -95
c-11 0 -21 2 -31 6c26 -39 68 -65 117 -65c96 0 157 92 163 191c1 18 2 37 2 55c0 31 -1 61 -4 92c-29 -5 -58 -8 -89 -8c-188 0 -333 172 -333 374c0 177 131 306 248 441c-19 62 -37 125 -45 190c-6 52 -7 104 -7 156c0 115 55 224 149 292c3 2 7 3 10 3c4 0 7 0 10 -3
c71 -84 133 -245 133 -358c0 -143 -86 -255 -180 -364c21 -68 39 -138 56 -207zM461 -203c68 24 113 95 113 164c0 90 -66 179 -173 190c24 -116 46 -231 60 -354zM74 28c0 -135 129 -247 264 -247c28 0 55 2 82 6c-14 127 -37 245 -63 364c-79 -8 -124 -61 -124 -119
c0 -44 25 -91 81 -123c5 -5 7 -10 7 -15c0 -11 -10 -22 -22 -22c-3 0 -6 1 -9 2c-80 43 -117 115 -117 185c0 88 58 174 160 197c-14 58 -29 117 -46 175c-107 -121 -213 -243 -213 -403zM408 1045c-99 -48 -162 -149 -162 -259c0 -74 18 -133 36 -194
c80 97 146 198 146 324c0 55 -4 79 -20 129z" fill="currentColor"/>
<a style="color:inherit;" xlink:href="textedit:///tmp/src/s/b/sphinx/html/-:10:6:7">
<path transform="translate(17.2358, 3.2760) scale(0.0040, -0.0040)" d="M220 138c56 0 109 -29 109 -91c0 -72 -56 -121 -103 -149c-36 -21 -76 -36 -117 -36c-56 0 -109 29 -109 91c0 72 56 121 103 149c36 21 76 36 117 36z" fill="currentColor"/>
</a>
<a style="color:inherit;" xlink:href="textedit:///tmp/src/s/b/sphinx/html/-:10:29:30">
<path transform="translate(28.2240, 1.7760) scale(0.0040, -0.0040)" d="M220 138c56 0 109 -29 109 -91c0 -72 -56 -121 -103 -149c-36 -21 -76 -36 -117 -36c-56 0 -109 29 -109 91c0 72 56 121 103 149c36 21 76 36 117 36z" fill="currentColor"/>
</a>
<rect transform="translate(37.1253, 3.7760)" x="-0.0650" y="-1.8122" width="0.1300" height="3.6242" ry="0.0400" fill="currentColor"/>
<a style="color:inherit;" xlink:href="textedit:///tmp/src/s/b/sphinx/html/-:10:52:53">
<path transform="translate(37.0603, 1.7760) scale(0.0040, -0.0040)" d="M220 138c56 0 109 -29 109 -91c0 -72 -56 -121 -103 -149c-36 -21 -76 -36 -117 -36c-56 0 -109 29 -109 91c0 72 56 121 103 149c36 21 76 36 117 36z" fill="currentColor"/>
</a>
<rect transform="translate(32.7072, 3.7760)" x="-0.0650" y="-2.3122" width="0.1300" height="3.5067" ry="0.0400" fill="currentColor"/>
<a style="color:inherit;" xlink:href="textedit:///tmp/src/s/b/sphinx/html/-:10:33:34">
<path transform="translate(32.6422, 1.2760) scale(0.0040, -0.0040)" d="M220 138c56 0 109 -29 109 -91c0 -72 -56 -121 -103 -149c-36 -21 -76 -36 -117 -36c-56 0 -109 29 -109 91c0 72 56 121 103 149c36 21 76 36 117 36z" fill="currentColor"/>
</a>
<rect transform="translate(28.2890, 3.7760)" x="-0.0650" y="-1.8122" width="0.1300" height="3.3122" ry="0.0400" fill="currentColor"/>
</svg>
