<svg xmlns="http://www.w3.org/2000/svg" xmlns:xlink="http://www.w3.org/1999/xlink" version="1.2" width="177.11mm" height="33.77mm" viewBox="7.3324 -0.0000 100.7881 19.2158">
<rect transform="translate(23.2552, 14.6044)" x="0.0000" y="-2.0500" width="0.1900" height="4.0500" ry="0.0000" fill="currentColor"/>
<rect transform="translate(65.9864, -0.0000)" x="0.0000" y="6.6455" width="0.1900" height="5.9589" ry="0.0000" fill="currentColor"/>
<rect transform="translate(65.9864, 4.5955)" x="0.0000" y="-2.0000" width="0.1900" height="4.0500" ry="0.0000" fill="currentColor"/>
<rect transform="translate(107.9305, 14.6044)" x="0.0000" y="-2.0500" width="0.1900" height="4.0500" ry="0.0000" fill="currentColor"/>
<rect transform="translate(107.9305, -0.0000)" x="0.0000" y="6.6455" width="0.1900" height="5.9589" ry="0.0000" fill="currentColor"/>
<rect transform="translate(23.2552, 4.5955)" x="0.0000" y="-2.0000" width="0.1900" height="4.0500" ry="0.0000" fill="currentColor"/>
<rect transform="translate(23.2552, -0.0000)" x="0.0000" y="6.6455" width="0.1900" height="5.9589" ry="0.0000" fill="currentColor"/>
<rect transform="translate(107.9305, 4.5955)" x="0.0000" y="-2.0000" width="0.1900" height="4.0500" ry="0.0000" fill="currentColor"/>
<rect transform="translate(65.9864, 14.6044)" x="0.0000" y="-2.0500" width="0.1900" height="4.0500" ry="0.0000" fill="currentColor"/>
<line transform="translate(8.5358, 16.6044)" stroke-linejoin="round" stroke-linecap="round" stroke-width="0.1000" stroke="currentColor" x1="0.0500" y1="-0.0000" x2="99.5346" y2="-0.0000"/>
<line transform="translate(8.5358, 15.6044)" stroke-linejoin="round" stroke-linecap="round" stroke-width="0.1000" stroke="currentColor" x1="0.0500" y1="-0.0000" x2="99.5346" y2="-0.0000"/>
<line transform="translate(8.5358, 14.6044)" stroke-linejoin="round" stroke-linecap="round" stroke-width="0.1000" stroke="currentColor" x1="0.0500" y1="-0.0000" x2="99.5346" y2="-0.0000"/>
<line transform="translate(8.5358, 13.6044)" stroke-linejoin="round" stroke-linecap="round" stroke-width="0.1000" stroke="currentColor" x1="0.0500" y1="-0.0000" x2="99.5346" y2="-0.0000"/>
<line transform="translate(8.5358, 12.6044)" stroke-linejoin="round" stroke-linecap="round" stroke-width="0.1000" stroke="currentColor" x1="0.0500" y1="-0.0000" x2="99.5346" y2="-0.0000"/>
<rect transform="translate(0.0000, 11.6044)" x="39.9006" y="-0.1000" width="1.9743" height="0.2000" ry="0.1000" fill="currentColor"/>
<rect transform="translate(0.0000, 11.6044)" x="44.6071" y="-0.1000" width="1.9743" height="0.2000" ry="0.1000" fill="currentColor"/>
<rect transform="translate(0.0000, 11.6044)" x="49.3136" y="-0.1000" width="1.9743" height="0.2000" ry="0.1000" fill="currentColor"/>
<line transform="translate(8.5358, 6.5955)" stroke-linejoin="round" stroke-linecap="round" stroke-width="0.1000" stroke="currentColor" x1="0.0500" y1="-0.0000" x2="99.5346" y2="-0.0000"/>
<line transform="translate(8.5358, 5.5955)" stroke-linejoin="round" stroke-linecap="round" stroke-width="0.1000" stroke="currentColor" x1="0.0500" y1="-0.0000" x2="99.5346" y2="-0.0000"/>
<line transform="translate(8.5358, 4.5955)" stroke-linejoin="round" stroke-linecap="round" stroke-width="0.1000" stroke="currentColor" x1="0.0500" y1="-0.0000" x2="99.5346" y2="-0.0000"/>
<line transform="translate(8.5358, 3.5955)" stroke-linejoin="round" stroke-linecap="round" stroke-width="0.1000" stroke="currentColor" x1="0.0500" y1="-0.0000" x2="99.5346" y2="-0.0000"/>
<line transform="translate(8.5358, 2.5955)" stroke-linejoin="round" stroke-linecap="round" stroke-width="0.1000" stroke="currentColor" x1="0.0500" y1="-0.0000" x2="99.5346" y2="-0.0000"/>
<rect transform="translate(76.9415, 4.5955)" x="-0.0650" y="1.1878" width="0.1300" height="2.8122" ry="0.0400" fill="currentColor"/>
<rect transform="translate(78.1277, 4.5955)" x="-0.0650" y="-2.7288" width="0.1300" height="2.5410" ry="0.0400" fill="currentColor"/>
<a style="color:inherit;" xlink:href="textedit:///tmp/src/s/b/sphinx/html/-:39:36:37">
<path transform="translate(77.1788, 18.3153) scale(0.0022, -0.0022)" d="M136 504c20 0 38 -18 58 -18c16 0 31 8 45 14c2 1 2 1 4 1c8 0 16 -9 16 -21v-351c0 -52 32 -100 81 -100c10 0 14 -8 14 -15s-4 -14 -14 -14c-49 0 -97 14 -146 14s-96 -14 -145 -14c-10 0 -15 7 -15 14s5 15 15 15c49 0 80 48 80 100v215c0 15 -11 23 -20 23
c-5 0 -9 -2 -11 -7l-66 -127c-4 -7 -9 -9 -15 -9c-9 0 -19 7 -19 17c0 3 0 6 2 9l129 250c1 3 4 4 7 4z" fill="currentColor"/>
</a>
<a style="color:inherit;" xlink:href="textedit:///tmp/src/s/b/sphinx/html/-:39:34:35">
<path transform="translate(76.8765, 13.1044) scale(0.0040, -0.0040)" d="M315 65c0 24 -21 41 -42 41c-4 0 -8 0 -12 -1c-31 -9 -77 -40 -114 -64s-84 -53 -104 -78c-7 -8 -11 -18 -11 -28c0 -24 21 -41 42 -41c4 0 8 0 12 1c31 9 78 40 115 64s84 53 104 78c7 8 10 18 10 28zM264 137c47 0 83 -21 83 -72c0 -19 -4 -37 -10 -56
c-12 -38 -32 -74 -65 -96c-54 -36 -113 -51 -188 -51c-47 0 -84 22 -84 73c0 19 5 37 11 56c12 38 31 74 64 96c54 36 114 50 189 50z" fill="currentColor"/>
</a>
<a style="color:inherit;" xlink:href="textedit:///tmp/src/s/b/sphinx/html/-:16:64:65">
<path transform="translate(77.1078, 8.2722) scale(0.0022, -0.0022)" d="M29 13c-1 -9 -7 -13 -14 -13s-15 5 -15 14c0 173 233 163 233 341c0 56 -14 116 -62 116c-33 0 -66 -15 -66 -44c0 -24 31 -37 31 -61c0 -34 -27 -61 -61 -61s-61 27 -61 61c0 78 74 134 157 134c98 0 191 -55 191 -145c0 -144 -135 -156 -233 -206h7
c36 0 74 -13 111 -40c19 -14 40 -21 59 -21c22 0 40 10 46 31c2 7 7 11 13 11c7 0 15 -5 15 -14v-5c-19 -71 -84 -111 -146 -111c-38 0 -75 15 -101 47c-12 15 -28 22 -44 22c-29 0 -57 -21 -60 -56z" fill="currentColor"/>
</a>
<a style="color:inherit;" xlink:href="textedit:///tmp/src/s/b/sphinx/html/-:16:62:63">
<path transform="translate(76.8765, 5.5955) scale(0.0040, -0.0040)" d="M220 138c56 0 109 -29 109 -91c0 -72 -56 -121 -103 -149c-36 -21 -76 -36 -117 -36c-56 0 -109 29 -109 91c0 72 56 121 103 149c36 21 76 36 117 36z" fill="currentColor"/>
</a>
<a style="color:inherit;" xlink:href="textedit:///tmp/src/s/b/sphinx/html/-:16:25:26">
<path transform="translate(77.1419, 1.1267) scale(0.0022, -0.0022)" d="M155 471c-34 0 -70 -8 -70 -38c0 -19 31 -23 31 -42c0 -28 -23 -51 -51 -51s-51 23 -51 51c0 67 68 109 141 109c93 0 174 -31 174 -113c0 -41 -6 -77 -42 -94c-11 -5 -17 -16 -17 -27s6 -22 17 -27c40 -19 59 -53 59 -98c0 -94 -83 -141 -186 -141
c-82 0 -160 45 -160 119c0 32 26 58 58 58s58 -26 58 -58c0 -22 -36 -26 -36 -48c0 -33 42 -42 80 -42c46 0 56 58 56 112v38c0 40 -4 69 -43 69h-74c-12 0 -18 9 -18 18s6 18 18 18h74c40 0 43 31 43 73v30c0 50 -16 84 -61 84z" fill="currentColor"/>
</a>
<a style="color:inherit;" xlink:href="textedit:///tmp/src/s/b/sphinx/html/-:16:23:24">
<path transform="translate(76.8765, 4.5955) scale(0.0040, -0.0040)" d="M220 138c56 0 109 -29 109 -91c0 -72 -56 -121 -103 -149c-36 -21 -76 -36 -117 -36c-56 0 -109 29 -109 91c0 72 56 121 103 149c36 21 76 36 117 36z" fill="currentColor"/>
</a>
<rect transform="translate(72.2350, 14.6044)" x="-0.0650" y="-1.8122" width="0.1300" height="2.8096" ry="0.0400" fill="currentColor"/>
<rect transform="translate(87.5407, 4.5955)" x="-0.0650" y="-3.9959" width="0.1300" height="2.8080" ry="0.0400" fill="currentColor"/>
<a style="color:inherit;" xlink:href="textedit:///tmp/src/s/b/sphinx/html/-:16:28:29">
<path transform="translate(81.5830, 4.0955) scale(0.0040, -0.0040)" d="M220 138c56 0 109 -29 109 -91c0 -72 -56 -121 -103 -149c-36 -21 -76 -36 -117 -36c-56 0 -109 29 -109 91c0 72 56 121 103 149c36 21 76 36 117 36z" fill="currentColor"/>
</a>
<a style="color:inherit;" xlink:href="textedit:///tmp/src/s/b/sphinx/html/-:39:12:13">
<path transform="translate(67.9110, 14.1044) scale(0.0040, -0.0040)" d="M315 65c0 24 -21 41 -42 41c-4 0 -8 0 -12 -1c-31 -9 -77 -40 -114 -64s-84 -53 -104 -78c-7 -8 -11 -18 -11 -28c0 -24 21 -41 42 -41c4 0 8 0 12 1c31 9 78 40 115 64s84 53 104 78c7 8 10 18 10 28zM264 137c47 0 83 -21 83 -72c0 -19 -4 -37 -10 -56
c-12 -38 -32 -74 -65 -96c-54 -36 -113 -51 -188 -51c-47 0 -84 22 -84 73c0 19 5 37 11 56c12 38 31 74 64 96c54 36 114 50 189 50z" fill="currentColor"/>
</a>
<a style="color:inherit;" xlink:href="textedit:///tmp/src/s/b/sphinx/html/-:39:18:19">
<path transform="translate(86.4866, 12.0544) scale(0.0022, -0.0022)" d="M198 284c24 15 48 29 65 52c12 16 19 34 28 52c2 5 6 7 11 7c8 0 16 -6 16 -17v-217h79c12 0 18 -9 18 -18s-6 -18 -18 -18h-79c2 -51 33 -96 80 -96c10 0 15 -8 15 -15s-5 -14 -15 -14c-49 0 -96 14 -145 14s-97 -14 -146 -14c-10 0 -14 7 -14 14s4 15 14 15
c47 0 79 45 81 96h-152c-29 0 -38 17 -38 28c0 3 1 6 2 8c78 88 123 201 123 319c0 11 8 21 17 21c1 0 3 -1 4 -1c25 -7 50 -14 76 -14s52 7 77 14c2 1 4 1 6 1c10 0 17 -7 17 -14c0 -2 0 -5 -2 -7l-282 -319h152v96c0 10 1 21 10 27z" fill="currentColor"/>
</a>
<a style="color:inherit;" xlink:href="textedit:///tmp/src/s/b/sphinx/html/-:39:15:16">
<path transform="translate(86.2895, 14.6044) scale(0.0040, -0.0040)" d="M220 138c56 0 109 -29 109 -91c0 -72 -56 -121 -103 -149c-36 -21 -76 -36 -117 -36c-56 0 -109 29 -109 91c0 72 56 121 103 149c36 21 76 36 117 36z" fill="currentColor"/>
</a>
<a style="color:inherit;" xlink:href="textedit:///tmp/src/s/b/sphinx/html/-:16:69:70">
<path transform="translate(86.5549, 8.3064) scale(0.0022, -0.0022)" d="M136 504c20 0 38 -18 58 -18c16 0 31 8 45 14c2 1 2 1 4 1c8 0 16 -9 16 -21v-351c0 -52 32 -100 81 -100c10 0 14 -8 14 -15s-4 -14 -14 -14c-49 0 -97 14 -146 14s-96 -14 -145 -14c-10 0 -15 7 -15 14s5 15 15 15c49 0 80 48 80 100v215c0 15 -11 23 -20 23
c-5 0 -9 -2 -11 -7l-66 -127c-4 -7 -9 -9 -15 -9c-9 0 -19 7 -19 17c0 3 0 6 2 9l129 250c1 3 4 4 7 4z" fill="currentColor"/>
</a>
<a style="color:inherit;" xlink:href="textedit:///tmp/src/s/b/sphinx/html/-:16:67:68">
<path transform="translate(86.2895, 5.0955) scale(0.0040, -0.0040)" d="M220 138c56 0 109 -29 109 -91c0 -72 -56 -121 -103 -149c-36 -21 -76 -36 -117 -36c-56 0 -109 29 -109 91c0 72 56 121 103 149c36 21 76 36 117 36z" fill="currentColor"/>
</a>
<a style="color:inherit;" xlink:href="textedit:///tmp/src/s/b/sphinx/html/-:16:32:33">
<path transform="translate(86.2895, 3.5955) scale(0.0040, -0.0040)" d="M220 138c56 0 109 -29 109 -91c0 -72 -56 -121 -103 -149c-36 -21 -76 -36 -117 -36c-56 0 -109 29 -109 91c0 72 56 121 103 149c36 21 76 36 117 36z" fill="currentColor"/>
</a>
<rect transform="translate(82.8342, 4.5955)" x="-0.0650" y="-2.9963" width="0.1300" height="2.3085" ry="0.0400" fill="currentColor"/>
<rect transform="translate(76.9415, 14.6044)" x="-0.0650" y="-1.2386" width="0.1300" height="3.2386" ry="0.0400" fill="currentColor"/>
<rect transform="translate(69.2360, 14.6044)" x="-0.0650" y="-3.6667" width="0.1300" height="2.9053" ry="0.0400" fill="currentColor"/>
<rect transform="translate(67.5285, 4.5955)" x="-0.0650" y="1.1878" width="0.1300" height="2.8122" ry="0.0400" fill="currentColor"/>
<rect transform="translate(68.7147, 4.5955)" x="-0.0650" y="-2.1937" width="0.1300" height="3.0059" ry="0.0400" fill="currentColor"/>
<a style="color:inherit;" xlink:href="textedit:///tmp/src/s/b/sphinx/html/-:39:29:30">
<path transform="translate(67.6948, 18.2811) scale(0.0022, -0.0022)" d="M29 13c-1 -9 -7 -13 -14 -13s-15 5 -15 14c0 173 233 163 233 341c0 56 -14 116 -62 116c-33 0 -66 -15 -66 -44c0 -24 31 -37 31 -61c0 -34 -27 -61 -61 -61s-61 27 -61 61c0 78 74 134 157 134c98 0 191 -55 191 -145c0 -144 -135 -156 -233 -206h7
c36 0 74 -13 111 -40c19 -14 40 -21 59 -21c22 0 40 10 46 31c2 7 7 11 13 11c7 0 15 -5 15 -14v-5c-19 -71 -84 -111 -146 -111c-38 0 -75 15 -101 47c-12 15 -28 22 -44 22c-29 0 -57 -21 -60 -56z" fill="currentColor"/>
</a>
<a style="color:inherit;" xlink:href="textedit:///tmp/src/s/b/sphinx/html/-:39:27:28">
<path transform="translate(67.4635, 12.1044) scale(0.0040, -0.0040)" d="M220 138c56 0 109 -29 109 -91c0 -72 -56 -121 -103 -149c-36 -21 -76 -36 -117 -36c-56 0 -109 29 -109 91c0 72 56 121 103 149c36 21 76 36 117 36z" fill="currentColor"/>
</a>
<polygon transform="translate(26.1101, 15.7944)" stroke-linejoin="round" stroke-linecap="round" stroke-width="0.0800" fill="currentColor" stroke="currentColor" points="14.2095 -1.2000 14.2095 -0.8000 0.0400 0.2000 0.0400 -0.2000"/>
<rect transform="translate(73.4212, 4.5955)" x="-0.0650" y="-2.4612" width="0.1300" height="2.7734" ry="0.0400" fill="currentColor"/>
<a style="color:inherit;" xlink:href="textedit:///tmp/src/s/b/sphinx/html/-:39:32:33">
<path transform="translate(72.1700, 12.6044) scale(0.0040, -0.0040)" d="M220 138c56 0 109 -29 109 -91c0 -72 -56 -121 -103 -149c-36 -21 -76 -36 -117 -36c-56 0 -109 29 -109 91c0 72 56 121 103 149c36 21 76 36 117 36z" fill="currentColor"/>
</a>
<a style="color:inherit;" xlink:href="textedit:///tmp/src/s/b/sphinx/html/-:16:20:21">
<path transform="translate(72.4354, 1.3943) scale(0.0022, -0.0022)" d="M136 504c20 0 38 -18 58 -18c16 0 31 8 45 14c2 1 2 1 4 1c8 0 16 -9 16 -21v-351c0 -52 32 -100 81 -100c10 0 14 -8 14 -15s-4 -14 -14 -14c-49 0 -97 14 -146 14s-96 -14 -145 -14c-10 0 -15 7 -15 14s5 15 15 15c49 0 80 48 80 100v215c0 15 -11 23 -20 23
c-5 0 -9 -2 -11 -7l-66 -127c-4 -7 -9 -9 -15 -9c-9 0 -19 7 -19 17c0 3 0 6 2 9l129 250c1 3 4 4 7 4z" fill="currentColor"/>
</a>
<a style="color:inherit;" xlink:href="textedit:///tmp/src/s/b/sphinx/html/-:16:18:19">
<path transform="translate(72.1700, 5.0955) scale(0.0040, -0.0040)" d="M220 138c56 0 109 -29 109 -91c0 -72 -56 -121 -103 -149c-36 -21 -76 -36 -117 -36c-56 0 -109 29 -109 91c0 72 56 121 103 149c36 21 76 36 117 36z" fill="currentColor"/>
</a>
<rect transform="translate(67.5285, 14.6044)" x="-0.0650" y="-2.3122" width="0.1300" height="3.1247" ry="0.0400" fill="currentColor"/>
<path transform="translate(103.4888, 11.6444) scale(0.0040, -0.0040)" d="M0 0c0 -198 209 -335 209 -533c0 -71 -16 -141 -42 -207c-5 -8 -12 -12 -19 -12c-13 0 -26 11 -23 27c26 61 42 126 42 192c0 104 -95 208 -167 283h-16v250h16z" fill="currentColor"/>
<rect transform="translate(105.1850, 14.6044)" x="-0.0650" y="-0.8122" width="0.1300" height="3.6222" ry="0.0400" fill="currentColor"/>
<a style="color:inherit;" xlink:href="textedit:///tmp/src/s/b/sphinx/html/-:39:48:49">
<path transform="translate(105.1200, 13.6044) scale(0.0040, -0.0040)" d="M220 138c56 0 109 -29 109 -91c0 -72 -56 -121 -103 -149c-36 -21 -76 -36 -117 -36c-56 0 -109 29 -109 91c0 72 56 121 103 149c36 21 76 36 117 36z" fill="currentColor"/>
</a>
<rect transform="translate(101.7902, 14.6044)" x="-0.0650" y="-0.3122" width="0.1300" height="3.1222" ry="0.0400" fill="currentColor"/>
<rect transform="translate(103.4238, 14.6044)" x="-0.0650" y="-3.0000" width="0.1300" height="3.3122" ry="0.0400" fill="currentColor"/>
<a style="color:inherit;" xlink:href="textedit:///tmp/src/s/b/sphinx/html/-:39:44:45">
<path transform="translate(101.7252, 14.1044) scale(0.0040, -0.0040)" d="M220 138c56 0 109 -29 109 -91c0 -72 -56 -121 -103 -149c-36 -21 -76 -36 -117 -36c-56 0 -109 29 -109 91c0 72 56 121 103 149c36 21 76 36 117 36z" fill="currentColor"/>
</a>
<a style="color:inherit;" xlink:href="textedit:///tmp/src/s/b/sphinx/html/-:39:21:22">
<path transform="translate(102.1727, 15.1044) scale(0.0040, -0.0040)" d="M220 138c56 0 109 -29 109 -91c0 -72 -56 -121 -103 -149c-36 -21 -76 -36 -117 -36c-56 0 -109 29 -109 91c0 72 56 121 103 149c36 21 76 36 117 36z" fill="currentColor"/>
</a>
<a style="color:inherit;" xlink:href="textedit:///tmp/src/s/b/sphinx/html/-:16:51:52">
<path transform="translate(101.7252, 2.5955) scale(0.0040, -0.0040)" d="M72 -250l117 326c-34 -12 -69 -22 -105 -22c-46 0 -87 33 -87 79c0 40 33 72 73 72c25 0 48 -15 56 -39c10 -28 6 -59 35 -59c16 0 54 48 61 63c6 12 23 12 28 0l-123 -420c-8 -7 -17 -10 -27 -10s-20 3 -28 10z" fill="currentColor"/>
</a>
<polygon transform="translate(49.6426, 14.3562)" stroke-linejoin="round" stroke-linecap="round" stroke-width="0.0800" fill="currentColor" stroke="currentColor" points="3.1013 0.0482 3.1013 0.4482 0.0400 0.2000 0.0400 -0.2000"/>
<polygon transform="translate(44.9361, 14.7944)" stroke-linejoin="round" stroke-linecap="round" stroke-width="0.0800" fill="currentColor" stroke="currentColor" points="7.8078 0.4200 7.8078 0.8200 0.0400 0.2000 0.0400 -0.2000"/>
<polygon transform="translate(60.2137, 15.6044)" stroke-linejoin="round" stroke-linecap="round" stroke-width="0.0800" fill="currentColor" stroke="currentColor" points="3.1013 -0.2000 3.1013 0.2000 0.0400 0.2000 0.0400 -0.2000"/>
<polygon transform="translate(55.6653, 16.4144)" stroke-linejoin="round" stroke-linecap="round" stroke-width="0.0800" fill="currentColor" stroke="currentColor" points="7.6497 -0.2000 7.6497 0.2000 0.0400 0.2000 0.0400 -0.2000"/>
<polygon transform="translate(67.4635, 15.4144)" stroke-linejoin="round" stroke-linecap="round" stroke-width="0.0800" fill="currentColor" stroke="currentColor" points="4.7965 -0.0100 4.7965 0.3900 0.0400 0.2000 0.0400 -0.2000"/>
<polygon transform="translate(68.6497, 2.4055)" stroke-linejoin="round" stroke-linecap="round" stroke-width="0.0800" fill="currentColor" stroke="currentColor" points="14.2095 -1.0100 14.2095 -0.6100 0.0400 0.2000 0.0400 -0.2000"/>
<polygon transform="translate(87.4757, 0.5955)" stroke-linejoin="round" stroke-linecap="round" stroke-width="0.0800" fill="currentColor" stroke="currentColor" points="7.8078 0.3000 7.8078 0.7000 0.0400 0.2000 0.0400 -0.2000"/>
<polygon transform="translate(92.1822, 1.7054)" stroke-linejoin="round" stroke-linecap="round" stroke-width="0.0800" fill="currentColor" stroke="currentColor" points="3.1013 0.0001 3.1013 0.4001 0.0400 0.2000 0.0400 -0.2000"/>
<polygon transform="translate(101.7252, 16.6044)" stroke-linejoin="round" stroke-linecap="round" stroke-width="0.0800" fill="currentColor" stroke="currentColor" points="3.4849 -0.2000 3.4849 0.2000 0.0400 0.2000 0.0400 -0.2000"/>
<polygon transform="translate(97.0187, 17.4144)" stroke-linejoin="round" stroke-linecap="round" stroke-width="0.0800" fill="currentColor" stroke="currentColor" points="8.1914 -0.2000 8.1914 0.2000 0.0400 0.2000 0.0400 -0.2000"/>
<rect transform="translate(95.2585, 4.5955)" x="-0.0650" y="-3.5041" width="0.1300" height="3.3163" ry="0.0400" fill="currentColor"/>
<a style="color:inherit;" xlink:href="textedit:///tmp/src/s/b/sphinx/html/-:16:42:43">
<path transform="translate(94.0073, 4.5955) scale(0.0040, -0.0040)" d="M220 138c56 0 109 -29 109 -91c0 -72 -56 -121 -103 -149c-36 -21 -76 -36 -117 -36c-56 0 -109 29 -109 91c0 72 56 121 103 149c36 21 76 36 117 36z" fill="currentColor"/>
</a>
<rect transform="translate(92.2472, 4.5955)" x="-0.0650" y="-3.6960" width="0.1300" height="3.0082" ry="0.0400" fill="currentColor"/>
<a style="color:inherit;" xlink:href="textedit:///tmp/src/s/b/sphinx/html/-:16:36:37">
<path transform="translate(90.9960, 4.0955) scale(0.0040, -0.0040)" d="M220 138c56 0 109 -29 109 -91c0 -72 -56 -121 -103 -149c-36 -21 -76 -36 -117 -36c-56 0 -109 29 -109 91c0 72 56 121 103 149c36 21 76 36 117 36z" fill="currentColor"/>
</a>
<rect transform="translate(87.5407, 14.6044)" x="-0.0650" y="-3.3333" width="0.1300" height="3.1455" ry="0.0400" fill="currentColor"/>
<path transform="translate(88.0557, 14.1044) scale(0.0040, -0.0040)" d="M0 0c0 31 25 56 56 56s56 -25 56 -56s-25 -56 -56 -56s-56 25 -56 56z" fill="currentColor"/>
<rect transform="translate(86.3545, 4.5955)" x="-0.0650" y="0.6878" width="0.1300" height="2.9789" ry="0.0400" fill="currentColor"/>
<rect transform="translate(97.0837, 14.6044)" x="-0.0650" y="-0.8122" width="0.1300" height="3.6222" ry="0.0400" fill="currentColor"/>
<rect transform="translate(97.0837, 4.5955)" x="-0.0650" y="0.6878" width="0.1300" height="2.9789" ry="0.0400" fill="currentColor"/>
<path transform="translate(98.3348, 1.6355) scale(0.0040, -0.0040)" d="M0 0c0 -198 209 -335 209 -533c0 -71 -16 -141 -42 -207c-5 -8 -12 -12 -19 -12c-13 0 -26 11 -23 27c26 61 42 126 42 192c0 104 -95 208 -167 283h-16v250h16z" fill="currentColor"/>
<rect transform="translate(98.2698, 4.5955)" x="-0.0650" y="-3.0000" width="0.1300" height="3.3122" ry="0.0400" fill="currentColor"/>
<a style="color:inherit;" xlink:href="textedit:///tmp/src/s/b/sphinx/html/-:39:39:40">
<path transform="translate(97.0187, 13.6044) scale(0.0040, -0.0040)" d="M220 138c56 0 109 -29 109 -91c0 -72 -56 -121 -103 -149c-36 -21 -76 -36 -117 -36c-56 0 -109 29 -109 91c0 72 56 121 103 149c36 21 76 36 117 36z" fill="currentColor"/>
</a>
<a style="color:inherit;" xlink:href="textedit:///tmp/src/s/b/sphinx/html/-:16:72:73">
<path transform="translate(97.0187, 5.0955) scale(0.0040, -0.0040)" d="M220 138c56 0 109 -29 109 -91c0 -72 -56 -121 -103 -149c-36 -21 -76 -36 -117 -36c-56 0 -109 29 -109 91c0 72 56 121 103 149c36 21 76 36 117 36z" fill="currentColor"/>
</a>
<a style="color:inherit;" xlink:href="textedit:///tmp/src/s/b/sphinx/html/-:16:48:49">
<path transform="translate(97.2500, 2.0455) scale(0.0022, -0.0022)" d="M29 13c-1 -9 -7 -13 -14 -13s-15 5 -15 14c0 173 233 163 233 341c0 56 -14 116 -62 116c-33 0 -66 -15 -66 -44c0 -24 31 -37 31 -61c0 -34 -27 -61 -61 -61s-61 27 -61 61c0 78 74 134 157 134c98 0 191 -55 191 -145c0 -144 -135 -156 -233 -206h7
c36 0 74 -13 111 -40c19 -14 40 -21 59 -21c22 0 40 10 46 31c2 7 7 11 13 11c7 0 15 -5 15 -14v-5c-19 -71 -84 -111 -146 -111c-38 0 -75 15 -101 47c-12 15 -28 22 -44 22c-29 0 -57 -21 -60 -56z" fill="currentColor"/>
</a>
<a style="color:inherit;" xlink:href="textedit:///tmp/src/s/b/sphinx/html/-:16:45:46">
<path transform="translate(97.0187, 5.0955) scale(0.0040, -0.0040)" d="M220 138c56 0 109 -29 109 -91c0 -72 -56 -121 -103 -149c-36 -21 -76 -36 -117 -36c-56 0 -109 29 -109 91c0 72 56 121 103 149c36 21 76 36 117 36z" fill="currentColor"/>
</a>
<rect transform="translate(26.0451, 14.6044)" x="-0.0650" y="-4.3333" width="0.1300" height="2.5719" ry="0.0400" fill="currentColor"/>
<rect transform="translate(26.1751, 14.6044)" x="-0.0650" y="-1.3122" width="0.1300" height="2.4976" ry="0.0400" fill="currentColor"/>
<a style="color:inherit;" xlink:href="textedit:///tmp/src/s/b/sphinx/html/-:38:26:27">
<path transform="translate(26.3414, 18.2811) scale(0.0022, -0.0022)" d="M29 13c-1 -9 -7 -13 -14 -13s-15 5 -15 14c0 173 233 163 233 341c0 56 -14 116 -62 116c-33 0 -66 -15 -66 -44c0 -24 31 -37 31 -61c0 -34 -27 -61 -61 -61s-61 27 -61 61c0 78 74 134 157 134c98 0 191 -55 191 -145c0 -144 -135 -156 -233 -206h7
c36 0 74 -13 111 -40c19 -14 40 -21 59 -21c22 0 40 10 46 31c2 7 7 11 13 11c7 0 15 -5 15 -14v-5c-19 -71 -84 -111 -146 -111c-38 0 -75 15 -101 47c-12 15 -28 22 -44 22c-29 0 -57 -21 -60 -56z" fill="currentColor"/>
</a>
<a style="color:inherit;" xlink:href="textedit:///tmp/src/s/b/sphinx/html/-:38:24:25">
<path transform="translate(26.1101, 13.1044) scale(0.0040, -0.0040)" d="M220 138c56 0 109 -29 109 -91c0 -72 -56 -121 -103 -149c-36 -21 -76 -36 -117 -36c-56 0 -109 29 -109 91c0 72 56 121 103 149c36 21 76 36 117 36z" fill="currentColor"/>
</a>
<a style="color:inherit;" xlink:href="textedit:///tmp/src/s/b/sphinx/html/-:38:14:15">
<path transform="translate(24.9883, 12.0544) scale(0.0022, -0.0022)" d="M29 13c-1 -9 -7 -13 -14 -13s-15 5 -15 14c0 173 233 163 233 341c0 56 -14 116 -62 116c-33 0 -66 -15 -66 -44c0 -24 31 -37 31 -61c0 -34 -27 -61 -61 -61s-61 27 -61 61c0 78 74 134 157 134c98 0 191 -55 191 -145c0 -144 -135 -156 -233 -206h7
c36 0 74 -13 111 -40c19 -14 40 -21 59 -21c22 0 40 10 46 31c2 7 7 11 13 11c7 0 15 -5 15 -14v-5c-19 -71 -84 -111 -146 -111c-38 0 -75 15 -101 47c-12 15 -28 22 -44 22c-29 0 -57 -21 -60 -56z" fill="currentColor"/>
</a>
<a style="color:inherit;" xlink:href="textedit:///tmp/src/s/b/sphinx/html/-:38:12:13">
<path transform="translate(24.7201, 13.1044) scale(0.0040, -0.0040)" d="M315 65c0 24 -21 41 -42 41c-4 0 -8 0 -12 -1c-31 -9 -77 -40 -114 -64s-84 -53 -104 -78c-7 -8 -11 -18 -11 -28c0 -24 21 -41 42 -41c4 0 8 0 12 1c31 9 78 40 115 64s84 53 104 78c7 8 10 18 10 28zM264 137c47 0 83 -21 83 -72c0 -19 -4 -37 -10 -56
c-12 -38 -32 -74 -65 -96c-54 -36 -113 -51 -188 -51c-47 0 -84 22 -84 73c0 19 5 37 11 56c12 38 31 74 64 96c54 36 114 50 189 50z" fill="currentColor"/>
</a>
<a style="color:inherit;" xlink:href="textedit:///tmp/src/s/b/sphinx/html/-:15:29:30">
<path transform="translate(24.7201, 6.5955) scale(0.0040, -0.0040)" d="M365 -156h-355c-6 0 -10 4 -10 10v136c0 6 4 10 10 10h355c6 0 10 -4 10 -10v-136c0 -6 -4 -10 -10 -10z" fill="currentColor"/>
</a>
<a style="color:inherit;" xlink:href="textedit:///tmp/src/s/b/sphinx/html/-:15:12:13">
<path transform="translate(24.7201, 2.5955) scale(0.0040, -0.0040)" d="M365 0h-355c-6 0 -10 4 -10 10v136c0 6 4 10 10 10h355c6 0 10 -4 10 -10v-136c0 -6 -4 -10 -10 -10z" fill="currentColor"/>
</a>
<rect transform="translate(30.8816, 14.6044)" x="-0.0650" y="-1.8122" width="0.1300" height="2.6673" ry="0.0400" fill="currentColor"/>
<a style="color:inherit;" xlink:href="textedit:///tmp/src/s/b/sphinx/html/-:38:31:32">
<path transform="translate(31.0821, 18.3153) scale(0.0022, -0.0022)" d="M136 504c20 0 38 -18 58 -18c16 0 31 8 45 14c2 1 2 1 4 1c8 0 16 -9 16 -21v-351c0 -52 32 -100 81 -100c10 0 14 -8 14 -15s-4 -14 -14 -14c-49 0 -97 14 -146 14s-96 -14 -145 -14c-10 0 -15 7 -15 14s5 15 15 15c49 0 80 48 80 100v215c0 15 -11 23 -20 23
c-5 0 -9 -2 -11 -7l-66 -127c-4 -7 -9 -9 -15 -9c-9 0 -19 7 -19 17c0 3 0 6 2 9l129 250c1 3 4 4 7 4z" fill="currentColor"/>
</a>
<a style="color:inherit;" xlink:href="textedit:///tmp/src/s/b/sphinx/html/-:38:30:31">
<path transform="translate(30.8166, 12.6044) scale(0.0040, -0.0040)" d="M220 138c56 0 109 -29 109 -91c0 -72 -56 -121 -103 -149c-36 -21 -76 -36 -117 -36c-56 0 -109 29 -109 91c0 72 56 121 103 149c36 21 76 36 117 36z" fill="currentColor"/>
</a>
<path transform="translate(9.3358, 5.5955) scale(0.0040, -0.0040)" d="M376 262c4 0 9 1 13 1c155 0 256 -128 256 -261c0 -76 -33 -154 -107 -210c-22 -17 -47 -28 -73 -36c3 -35 5 -70 5 -105c0 -19 -1 -39 -2 -58c-7 -120 -90 -228 -208 -228c-108 0 -195 88 -195 197c0 58 53 103 112 103c54 0 95 -47 95 -103c0 -52 -43 -95 -95 -95
c-11 0 -21 2 -31 6c26 -39 68 -65 117 -65c96 0 157 92 163 191c1 18 2 37 2 55c0 31 -1 61 -4 92c-29 -5 -58 -8 -89 -8c-188 0 -333 172 -333 374c0 177 131 306 248 441c-19 62 -37 125 -45 190c-6 52 -7 104 -7 156c0 115 55 224 149 292c3 2 7 3 10 3c4 0 7 0 10 -3
c71 -84 133 -245 133 -358c0 -143 -86 -255 -180 -364c21 -68 39 -138 56 -207zM461 -203c68 24 113 95 113 164c0 90 -66 179 -173 190c24 -116 46 -231 60 -354zM74 28c0 -135 129 -247 264 -247c28 0 55 2 82 6c-14 127 -37 245 -63 364c-79 -8 -124 -61 -124 -119
c0 -44 25 -91 81 -123c5 -5 7 -10 7 -15c0 -11 -10 -22 -22 -22c-3 0 -6 1 -9 2c-80 43 -117 115 -117 185c0 88 58 174 160 197c-14 58 -29 117 -46 175c-107 -121 -213 -243 -213 -403zM408 1045c-99 -48 -162 -149 -162 -259c0 -74 18 -133 36 -194
c80 97 146 198 146 324c0 55 -4 79 -20 129z" fill="currentColor"/>
<path transform="translate(15.0858, 14.6044) scale(0.0040, -0.0040)" d="M359 27c-49 0 -75 42 -75 75c0 38 27 77 72 77c4 0 9 0 14 -1c-28 37 -72 59 -120 59c-106 0 -113 -73 -113 -186v-51v-51c0 -113 7 -187 113 -187c80 0 139 70 158 151c2 7 7 10 12 10c6 0 13 -4 13 -12c0 -94 -105 -174 -183 -174c-68 0 -137 21 -184 70
c-49 51 -66 122 -66 193s17 142 66 193c47 49 116 69 184 69c87 0 160 -64 175 -150c1 -5 1 -9 1 -13c0 -40 -30 -72 -67 -72z" fill="currentColor"/>
<a style="color:inherit;" xlink:href="textedit:///tmp/src/s/b/sphinx/html/-:35:8:9">
<path transform="translate(12.8358, 13.6044) scale(0.0040, -0.0040)" d="M216 -312c0 -10 -8 -19 -18 -19s-19 9 -19 19v145l-83 -31v-158c0 -10 -9 -19 -19 -19s-18 9 -18 19v145l-32 -12c-2 -1 -5 -1 -7 -1c-11 0 -20 9 -20 20v60c0 8 5 16 13 19l46 16v160l-32 -11c-2 -1 -5 -1 -7 -1c-11 0 -20 9 -20 20v60c0 8 5 15 13 18l46 17v158
c0 10 8 19 18 19s19 -9 19 -19v-145l83 31v158c0 10 9 19 19 19s18 -9 18 -19v-145l32 12c2 1 5 1 7 1c11 0 20 -9 20 -20v-60c0 -8 -5 -16 -13 -19l-46 -16v-160l32 11c2 1 5 1 7 1c11 0 20 -9 20 -20v-60c0 -8 -5 -15 -13 -18l-46 -17v-158zM96 65v-160l83 30v160z" fill="currentColor"/>
</a>
<path transform="translate(9.3358, 13.6044) scale(0.0040, -0.0040)" d="M557 -125c0 28 23 51 51 51s51 -23 51 -51s-23 -51 -51 -51s-51 23 -51 51zM557 125c0 28 23 51 51 51s51 -23 51 -51s-23 -51 -51 -51s-51 23 -51 51zM232 263c172 0 293 -88 293 -251c0 -263 -263 -414 -516 -521c-3 -3 -6 -4 -9 -4c-7 0 -13 6 -13 13c0 3 1 6 4 9
c202 118 412 265 412 493c0 120 -63 235 -171 235c-74 0 -129 -54 -154 -126c11 5 22 8 34 8c55 0 100 -45 100 -100c0 -58 -44 -106 -100 -106c-60 0 -112 47 -112 106c0 133 102 244 232 244z" fill="currentColor"/>
<a style="color:inherit;" xlink:href="textedit:///tmp/src/s/b/sphinx/html/-:37:20:21">
<path transform="translate(19.0513, 19.2158) scale(0.0022, -0.0022)" d="M54 500c45 -8 91 -14 137 -14s92 6 137 14h4c11 0 19 -7 19 -14c0 -2 -1 -4 -3 -6c-68 -68 -162 -101 -258 -101c-11 0 -20 -10 -20 -21v-73c27 27 67 36 106 36c117 0 188 -50 188 -161c0 -97 -96 -160 -200 -160c-84 0 -164 43 -164 119c0 32 26 58 58 58
s58 -26 58 -58c0 -22 -36 -26 -36 -48c0 -35 44 -42 84 -42c55 0 71 67 71 131c0 59 -8 125 -59 125c-42 0 -85 -5 -109 -38c-4 -5 -10 -8 -15 -8c-9 0 -18 7 -18 18v223c0 11 8 20 18 20h2z" fill="currentColor"/>
</a>
<a style="color:inherit;" xlink:href="textedit:///tmp/src/s/b/sphinx/html/-:37:18:19">
<path transform="translate(18.7858, 14.6044) scale(0.0040, -0.0040)" d="M220 138c56 0 109 -29 109 -91c0 -72 -56 -121 -103 -149c-36 -21 -76 -36 -117 -36c-56 0 -109 29 -109 91c0 72 56 121 103 149c36 21 76 36 117 36z" fill="currentColor"/>
</a>
<a style="color:inherit;" xlink:href="textedit:///tmp/src/s/b/sphinx/html/-:37:12:13">
<path transform="translate(18.7858, 11.6044) scale(0.0040, -0.0040)" d="M72 -250l117 326c-34 -12 -69 -22 -105 -22c-46 0 -87 33 -87 79c0 40 33 72 73 72c25 0 48 -15 56 -39c10 -28 6 -59 35 -59c16 0 54 48 61 63c6 12 23 12 28 0l-123 -420c-8 -7 -17 -10 -27 -10s-20 3 -28 10z" fill="currentColor"/>
</a>
<path transform="translate(15.0858, 4.5955) scale(0.0040, -0.0040)" d="M359 27c-49 0 -75 42 -75 75c0 38 27 77 72 77c4 0 9 0 14 -1c-28 37 -72 59 -120 59c-106 0 -113 -73 -113 -186v-51v-51c0 -113 7 -187 113 -187c80 0 139 70 158 151c2 7 7 10 12 10c6 0 13 -4 13 -12c0 -94 -105 -174 -183 -174c-68 0 -137 21 -184 70
c-49 51 -66 122 -66 193s17 142 66 193c47 49 116 69 184 69c87 0 160 -64 175 -150c1 -5 1 -9 1 -13c0 -40 -30 -72 -67 -72z" fill="currentColor"/>
<a style="color:inherit;" xlink:href="textedit:///tmp/src/s/b/sphinx/html/-:12:8:9">
<path transform="translate(12.8358, 2.5955) scale(0.0040, -0.0040)" d="M216 -312c0 -10 -8 -19 -18 -19s-19 9 -19 19v145l-83 -31v-158c0 -10 -9 -19 -19 -19s-18 9 -18 19v145l-32 -12c-2 -1 -5 -1 -7 -1c-11 0 -20 9 -20 20v60c0 8 5 16 13 19l46 16v160l-32 -11c-2 -1 -5 -1 -7 -1c-11 0 -20 9 -20 20v60c0 8 5 15 13 18l46 17v158
c0 10 8 19 18 19s19 -9 19 -19v-145l83 31v158c0 10 9 19 19 19s18 -9 18 -19v-145l32 12c2 1 5 1 7 1c11 0 20 -9 20 -20v-60c0 -8 -5 -16 -13 -19l-46 -16v-160l32 11c2 1 5 1 7 1c11 0 20 -9 20 -20v-60c0 -8 -5 -15 -13 -18l-46 -17v-158zM96 65v-160l83 30v160z" fill="currentColor"/>
</a>
<a style="color:inherit;" xlink:href="textedit:///tmp/src/s/b/sphinx/html/-:14:18:19">
<path transform="translate(18.7858, 6.5955) scale(0.0040, -0.0040)" d="M72 -250l117 326c-34 -12 -69 -22 -105 -22c-46 0 -87 33 -87 79c0 40 33 72 73 72c25 0 48 -15 56 -39c10 -28 6 -59 35 -59c16 0 54 48 61 63c6 12 23 12 28 0l-123 -420c-8 -7 -17 -10 -27 -10s-20 3 -28 10z" fill="currentColor"/>
</a>
<a style="color:inherit;" xlink:href="textedit:///tmp/src/s/b/sphinx/html/-:14:12:13">
<path transform="translate(18.7858, 2.5955) scale(0.0040, -0.0040)" d="M72 -250l117 326c-34 -12 -69 -22 -105 -22c-46 0 -87 33 -87 79c0 40 33 72 73 72c25 0 48 -15 56 -39c10 -28 6 -59 35 -59c16 0 54 48 61 63c6 12 23 12 28 0l-123 -420c-8 -7 -17 -10 -27 -10s-20 3 -28 10z" fill="currentColor"/>
</a>
<rect transform="translate(8.4758, 9.6000)" x="0.0000" y="-7.0545" width="0.1600" height="14.1089" ry="0.0500" fill="currentColor"/>
<path transform="translate(8.1758, 9.6000) scale(0.0040, -0.0040)" d="M-15 -534c0 -282 -111 -558 -111 -825c0 -144 36 -282 138 -390c3 -3 6 -6 6 -9c0 -9 -9 -18 -18 -18c-3 0 -9 3 -12 6c-138 144 -186 333 -186 534c0 288 114 570 114 843c0 144 -33 276 -135 384c-3 3 -3 6 -3 9s0 6 3 9c102 108 135 240 135 384
c0 273 -114 555 -114 843c0 201 48 390 186 534c3 3 9 6 12 6c9 0 18 -9 18 -18c0 -3 -3 -6 -6 -9c-102 -108 -138 -246 -138 -390c0 -267 111 -543 111 -825c0 -198 -45 -390 -180 -534c135 -144 180 -336 180 -534z" fill="currentColor"/>
<rect transform="translate(18.8508, 14.6044)" x="-0.0650" y="0.1878" width="0.1300" height="3.1872" ry="0.0400" fill="currentColor"/>
<path transform="translate(18.9158, 17.9394) scale(0.0040, -0.0040)" d="M0 0h-16v250h16c98 58 227 148 227 259c0 57 -16 112 -41 163c-3 16 10 27 23 27c7 0 15 -3 20 -11c25 -56 40 -117 40 -179c0 -204 -269 -305 -269 -509z" fill="currentColor"/>
<a style="color:inherit;" xlink:href="textedit:///tmp/src/s/b/sphinx/html/-:16:56:57">
<path transform="translate(67.4635, 5.5955) scale(0.0040, -0.0040)" d="M220 138c56 0 109 -29 109 -91c0 -72 -56 -121 -103 -149c-36 -21 -76 -36 -117 -36c-56 0 -109 29 -109 91c0 72 56 121 103 149c36 21 76 36 117 36z" fill="currentColor"/>
</a>
<a style="color:inherit;" xlink:href="textedit:///tmp/src/s/b/sphinx/html/-:38:50:51">
<path transform="translate(55.6653, 12.6044) scale(0.0040, -0.0040)" d="M220 138c56 0 109 -29 109 -91c0 -72 -56 -121 -103 -149c-36 -21 -76 -36 -117 -36c-56 0 -109 29 -109 91c0 72 56 121 103 149c36 21 76 36 117 36z" fill="currentColor"/>
</a>
<rect transform="translate(55.7303, 14.6044)" x="-0.0650" y="-1.8122" width="0.1300" height="3.6222" ry="0.0400" fill="currentColor"/>
<a style="color:inherit;" xlink:href="textedit:///tmp/src/s/b/sphinx/html/-:38:52:53">
<path transform="translate(55.9307, 18.3153) scale(0.0022, -0.0022)" d="M136 504c20 0 38 -18 58 -18c16 0 31 8 45 14c2 1 2 1 4 1c8 0 16 -9 16 -21v-351c0 -52 32 -100 81 -100c10 0 14 -8 14 -15s-4 -14 -14 -14c-49 0 -97 14 -146 14s-96 -14 -145 -14c-10 0 -15 7 -15 14s5 15 15 15c49 0 80 48 80 100v215c0 15 -11 23 -20 23
c-5 0 -9 -2 -11 -7l-66 -127c-4 -7 -9 -9 -15 -9c-9 0 -19 7 -19 17c0 3 0 6 2 9l129 250c1 3 4 4 7 4z" fill="currentColor"/>
</a>
<a style="color:inherit;" xlink:href="textedit:///tmp/src/s/b/sphinx/html/-:15:21:22">
<path transform="translate(60.2137, 7.0955) scale(0.0040, -0.0040)" d="M220 138c56 0 109 -29 109 -91c0 -72 -56 -121 -103 -149c-36 -21 -76 -36 -117 -36c-56 0 -109 29 -109 91c0 72 56 121 103 149c36 21 76 36 117 36z" fill="currentColor"/>
</a>
<a style="color:inherit;" xlink:href="textedit:///tmp/src/s/b/sphinx/html/-:15:18:19">
<path transform="translate(55.6653, 2.5955) scale(0.0040, -0.0040)" d="M72 -250l117 326c-34 -12 -69 -22 -105 -22c-46 0 -87 33 -87 79c0 40 33 72 73 72c25 0 48 -15 56 -39c10 -28 6 -59 35 -59c16 0 54 48 61 63c6 12 23 12 28 0l-123 -420c-8 -7 -17 -10 -27 -10s-20 3 -28 10z" fill="currentColor"/>
</a>
<rect transform="translate(52.7190, 14.6044)" x="-0.0650" y="-2.3122" width="0.1300" height="3.1171" ry="0.0400" fill="currentColor"/>
<a style="color:inherit;" xlink:href="textedit:///tmp/src/s/b/sphinx/html/-:38:47:48">
<path transform="translate(52.6540, 12.1044) scale(0.0040, -0.0040)" d="M220 138c56 0 109 -29 109 -91c0 -72 -56 -121 -103 -149c-36 -21 -76 -36 -117 -36c-56 0 -109 29 -109 91c0 72 56 121 103 149c36 21 76 36 117 36z" fill="currentColor"/>
</a>
<a style="color:inherit;" xlink:href="textedit:///tmp/src/s/b/sphinx/html/-:16:59:60">
<path transform="translate(67.6948, 8.2722) scale(0.0022, -0.0022)" d="M29 13c-1 -9 -7 -13 -14 -13s-15 5 -15 14c0 173 233 163 233 341c0 56 -14 116 -62 116c-33 0 -66 -15 -66 -44c0 -24 31 -37 31 -61c0 -34 -27 -61 -61 -61s-61 27 -61 61c0 78 74 134 157 134c98 0 191 -55 191 -145c0 -144 -135 -156 -233 -206h7
c36 0 74 -13 111 -40c19 -14 40 -21 59 -21c22 0 40 10 46 31c2 7 7 11 13 11c7 0 15 -5 15 -14v-5c-19 -71 -84 -111 -146 -111c-38 0 -75 15 -101 47c-12 15 -28 22 -44 22c-29 0 -57 -21 -60 -56z" fill="currentColor"/>
</a>
<a style="color:inherit;" xlink:href="textedit:///tmp/src/s/b/sphinx/html/-:16:15:16">
<path transform="translate(67.6948, 1.6618) scale(0.0022, -0.0022)" d="M29 13c-1 -9 -7 -13 -14 -13s-15 5 -15 14c0 173 233 163 233 341c0 56 -14 116 -62 116c-33 0 -66 -15 -66 -44c0 -24 31 -37 31 -61c0 -34 -27 -61 -61 -61s-61 27 -61 61c0 78 74 134 157 134c98 0 191 -55 191 -145c0 -144 -135 -156 -233 -206h7
c36 0 74 -13 111 -40c19 -14 40 -21 59 -21c22 0 40 10 46 31c2 7 7 11 13 11c7 0 15 -5 15 -14v-5c-19 -71 -84 -111 -146 -111c-38 0 -75 15 -101 47c-12 15 -28 22 -44 22c-29 0 -57 -21 -60 -56z" fill="currentColor"/>
</a>
<a style="color:inherit;" xlink:href="textedit:///tmp/src/s/b/sphinx/html/-:16:12:13">
<path transform="translate(67.4635, 5.5955) scale(0.0040, -0.0040)" d="M220 138c56 0 109 -29 109 -91c0 -72 -56 -121 -103 -149c-36 -21 -76 -36 -117 -36c-56 0 -109 29 -109 91c0 72 56 121 103 149c36 21 76 36 117 36z" fill="currentColor"/>
</a>
<rect transform="translate(63.2900, 14.6044)" x="-0.0650" y="-1.8122" width="0.1300" height="3.6222" ry="0.0400" fill="currentColor"/>
<a style="color:inherit;" xlink:href="textedit:///tmp/src/s/b/sphinx/html/-:38:59:60">
<path transform="translate(63.2250, 12.6044) scale(0.0040, -0.0040)" d="M220 138c56 0 109 -29 109 -91c0 -72 -56 -121 -103 -149c-36 -21 -76 -36 -117 -36c-56 0 -109 29 -109 91c0 72 56 121 103 149c36 21 76 36 117 36z" fill="currentColor"/>
</a>
<rect transform="translate(60.2787, 14.6044)" x="-0.0650" y="-1.3122" width="0.1300" height="3.1222" ry="0.0400" fill="currentColor"/>
<path transform="translate(61.5299, 3.6355) scale(0.0040, -0.0040)" d="M0 0c0 -198 209 -335 209 -533c0 -71 -16 -141 -42 -207c-5 -8 -12 -12 -19 -12c-13 0 -26 11 -23 27c26 61 42 126 42 192c0 104 -95 208 -167 283h-16v250h16z" fill="currentColor"/>
<rect transform="translate(61.4649, 4.5955)" x="-0.0650" y="-1.0000" width="0.1300" height="3.3122" ry="0.0400" fill="currentColor"/>
<a style="color:inherit;" xlink:href="textedit:///tmp/src/s/b/sphinx/html/-:38:55:56">
<path transform="translate(60.2137, 13.1044) scale(0.0040, -0.0040)" d="M220 138c56 0 109 -29 109 -91c0 -72 -56 -121 -103 -149c-36 -21 -76 -36 -117 -36c-56 0 -109 29 -109 91c0 72 56 121 103 149c36 21 76 36 117 36z" fill="currentColor"/>
</a>
<a style="color:inherit;" xlink:href="textedit:///tmp/src/s/b/sphinx/html/-:15:23:24">
<path transform="translate(60.4791, 2.0455) scale(0.0022, -0.0022)" d="M136 504c20 0 38 -18 58 -18c16 0 31 8 45 14c2 1 2 1 4 1c8 0 16 -9 16 -21v-351c0 -52 32 -100 81 -100c10 0 14 -8 14 -15s-4 -14 -14 -14c-49 0 -97 14 -146 14s-96 -14 -145 -14c-10 0 -15 7 -15 14s5 15 15 15c49 0 80 48 80 100v215c0 15 -11 23 -20 23
c-5 0 -9 -2 -11 -7l-66 -127c-4 -7 -9 -9 -15 -9c-9 0 -19 7 -19 17c0 3 0 6 2 9l129 250c1 3 4 4 7 4z" fill="currentColor"/>
</a>
<a style="color:inherit;" xlink:href="textedit:///tmp/src/s/b/sphinx/html/-:38:39:40">
<path transform="translate(44.9361, 11.1044) scale(0.0040, -0.0040)" d="M220 138c56 0 109 -29 109 -91c0 -72 -56 -121 -103 -149c-36 -21 -76 -36 -117 -36c-56 0 -109 29 -109 91c0 72 56 121 103 149c36 21 76 36 117 36z" fill="currentColor"/>
</a>
<a style="color:inherit;" xlink:href="textedit:///tmp/src/s/b/sphinx/html/-:38:17:18">
<path transform="translate(45.3836, 13.6044) scale(0.0040, -0.0040)" d="M315 65c0 24 -21 41 -42 41c-4 0 -8 0 -12 -1c-31 -9 -77 -40 -114 -64s-84 -53 -104 -78c-7 -8 -11 -18 -11 -28c0 -24 21 -41 42 -41c4 0 8 0 12 1c31 9 78 40 115 64s84 53 104 78c7 8 10 18 10 28zM264 137c47 0 83 -21 83 -72c0 -19 -4 -37 -10 -56
c-12 -38 -32 -74 -65 -96c-54 -36 -113 -51 -188 -51c-47 0 -84 22 -84 73c0 19 5 37 11 56c12 38 31 74 64 96c54 36 114 50 189 50z" fill="currentColor"/>
</a>
<a style="color:inherit;" xlink:href="textedit:///tmp/src/s/b/sphinx/html/-:15:15:16">
<path transform="translate(44.9361, 2.5955) scale(0.0040, -0.0040)" d="M-23 -116c0 28 11 42 40 42c33 0 78 -13 119 -31l-132 158c-7 9 -10 17 -10 25c0 34 50 66 87 99c25 22 37 52 37 83c0 24 -8 49 -25 69l-35 42c-3 3 -4 7 -4 10c0 9 9 15 17 15c4 0 8 -1 11 -5l151 -180c7 -9 10 -17 10 -25c0 -34 -50 -66 -87 -99
c-25 -22 -37 -52 -37 -83c0 -24 7 -49 24 -69l84 -99c3 -3 4 -7 4 -10c0 -9 -8 -16 -16 -16c-4 0 -9 2 -12 6c-18 21 -63 38 -97 38c-41 0 -53 -26 -53 -67c0 -35 11 -74 28 -94c5 -6 0 -13 -6 -13c-2 0 -4 0 -6 2c-45 54 -92 148 -92 202z" fill="currentColor"/>
</a>
<rect transform="translate(49.7076, 14.6044)" x="-0.0650" y="-2.8122" width="0.1300" height="3.3791" ry="0.0400" fill="currentColor"/>
<rect transform="translate(40.2946, 14.6044)" x="-0.0650" y="-2.8122" width="0.1300" height="3.0067" ry="0.0400" fill="currentColor"/>
<a style="color:inherit;" xlink:href="textedit:///tmp/src/s/b/sphinx/html/-:38:36:37">
<path transform="translate(40.2296, 11.6044) scale(0.0040, -0.0040)" d="M220 138c56 0 109 -29 109 -91c0 -72 -56 -121 -103 -149c-36 -21 -76 -36 -117 -36c-56 0 -109 29 -109 91c0 72 56 121 103 149c36 21 76 36 117 36z" fill="currentColor"/>
</a>
<rect transform="translate(35.5881, 14.6044)" x="-0.0650" y="-2.3122" width="0.1300" height="2.8370" ry="0.0400" fill="currentColor"/>
<a style="color:inherit;" xlink:href="textedit:///tmp/src/s/b/sphinx/html/-:38:34:35">
<path transform="translate(35.5231, 12.1044) scale(0.0040, -0.0040)" d="M220 138c56 0 109 -29 109 -91c0 -72 -56 -121 -103 -149c-36 -21 -76 -36 -117 -36c-56 0 -109 29 -109 91c0 72 56 121 103 149c36 21 76 36 117 36z" fill="currentColor"/>
</a>
<a style="color:inherit;" xlink:href="textedit:///tmp/src/s/b/sphinx/html/-:38:42:43">
<path transform="translate(49.6426, 11.6044) scale(0.0040, -0.0040)" d="M220 138c56 0 109 -29 109 -91c0 -72 -56 -121 -103 -149c-36 -21 -76 -36 -117 -36c-56 0 -109 29 -109 91c0 72 56 121 103 149c36 21 76 36 117 36z" fill="currentColor"/>
</a>
<rect transform="translate(46.7086, 14.6044)" x="-0.0650" y="-4.0000" width="0.1300" height="2.7386" ry="0.0400" fill="currentColor"/>
<rect transform="translate(45.0011, 14.6044)" x="-0.0650" y="-3.3122" width="0.1300" height="3.5073" ry="0.0400" fill="currentColor"/>
</svg>
