<svg xmlns="http://www.w3.org/2000/svg" xmlns:xlink="http://www.w3.org/1999/xlink" version="1.2" width="44.67mm" height="18.54mm" viewBox="8.5358 -0.0000 25.4174 10.5500">
<line transform="translate(8.5358, 7.0000)" stroke-linejoin="round" stroke-linecap="round" stroke-width="0.1000" stroke="currentColor" x1="0.0500" y1="-0.0000" x2="25.3674" y2="-0.0000"/>
<line transform="translate(8.5358, 6.0000)" stroke-linejoin="round" stroke-linecap="round" stroke-width="0.1000" stroke="currentColor" x1="0.0500" y1="-0.0000" x2="25.3674" y2="-0.0000"/>
<line transform="translate(8.5358, 5.0000)" stroke-linejoin="round" stroke-linecap="round" stroke-width="0.1000" stroke="currentColor" x1="0.0500" y1="-0.0000" x2="25.3674" y2="-0.0000"/>
<line transform="translate(8.5358, 4.0000)" stroke-linejoin="round" stroke-linecap="round" stroke-width="0.1000" stroke="currentColor" x1="0.0500" y1="-0.0000" x2="25.3674" y2="-0.0000"/>
<line transform="translate(8.5358, 3.0000)" stroke-linejoin="round" stroke-linecap="round" stroke-width="0.1000" stroke="currentColor" x1="0.0500" y1="-0.0000" x2="25.3674" y2="-0.0000"/>
<rect transform="translate(0.0000, 8.0000)" x="16.8115" y="-0.1000" width="1.9743" height="0.2000" ry="0.1000" fill="currentColor"/>
<rect transform="translate(0.0000, 9.0000)" x="16.8115" y="-0.1000" width="1.9743" height="0.2000" ry="0.1000" fill="currentColor"/>
<rect transform="translate(0.0000, 10.0000)" x="16.8115" y="-0.1000" width="1.9743" height="0.2000" ry="0.1000" fill="currentColor"/>
<rect transform="translate(0.0000, 8.0000)" x="19.8257" y="-0.1000" width="1.9743" height="0.2000" ry="0.1000" fill="currentColor"/>
<rect transform="translate(0.0000, 8.0000)" x="22.8400" y="-0.1000" width="1.9743" height="0.2000" ry="0.1000" fill="currentColor"/>
<rect transform="translate(0.0000, 9.0000)" x="22.8400" y="-0.1000" width="1.9743" height="0.2000" ry="0.1000" fill="currentColor"/>
<rect transform="translate(0.0000, 8.0000)" x="28.1757" y="-0.1000" width="2.0850" height="0.2000" ry="0.1000" fill="currentColor"/>
<rect transform="translate(26.4332, 5.0000)" x="0.0000" y="-2.0000" width="0.1900" height="4.0000" ry="0.0000" fill="currentColor"/>
<rect transform="translate(33.7632, 5.0000)" x="0.0000" y="-2.0000" width="0.1900" height="4.0000" ry="0.0000" fill="currentColor"/>
<path transform="translate(30.3632, 7.5000) scale(0.0040, -0.0040)" d="M0 0c0 31 25 56 56 56s56 -25 56 -56s-25 -56 -56 -56s-56 25 -56 56z" fill="currentColor"/>
<rect transform="translate(24.4202, 5.0000)" x="-0.0650" y="-4.6667" width="0.1300" height="8.4789" ry="0.0400" fill="currentColor"/>
<path transform="translate(30.3632, 6.5000) scale(0.0040, -0.0040)" d="M0 0c0 31 25 56 56 56s56 -25 56 -56s-25 -56 -56 -56s-56 25 -56 56z" fill="currentColor"/>
<path transform="translate(30.3632, 4.5000) scale(0.0040, -0.0040)" d="M0 0c0 31 25 56 56 56s56 -25 56 -56s-25 -56 -56 -56s-56 25 -56 56z" fill="currentColor"/>
<rect transform="translate(29.8482, 5.0000)" x="-0.0650" y="-4.3333" width="0.1300" height="7.0719" ry="0.0400" fill="currentColor"/>
<path transform="translate(30.3632, 3.5000) scale(0.0040, -0.0040)" d="M0 0c0 31 25 56 56 56s56 -25 56 -56s-25 -56 -56 -56s-56 25 -56 56z" fill="currentColor"/>
<a style="color:inherit;" xlink:href="textedit:///tmp/src/s/b/sphinx/html/-:12:18:19">
<path transform="translate(28.5232, 8.0000) scale(0.0040, -0.0040)" d="M315 65c0 24 -21 41 -42 41c-4 0 -8 0 -12 -1c-31 -9 -77 -40 -114 -64s-84 -53 -104 -78c-7 -8 -11 -18 -11 -28c0 -24 21 -41 42 -41c4 0 8 0 12 1c31 9 78 40 115 64s84 53 104 78c7 8 10 18 10 28zM264 137c47 0 83 -21 83 -72c0 -19 -4 -37 -10 -56
c-12 -38 -32 -74 -65 -96c-54 -36 -113 -51 -188 -51c-47 0 -84 22 -84 73c0 19 5 37 11 56c12 38 31 74 64 96c54 36 114 50 189 50z" fill="currentColor"/>
</a>
<a style="color:inherit;" xlink:href="textedit:///tmp/src/s/b/sphinx/html/-:12:15:16">
<path transform="translate(28.5232, 7.0000) scale(0.0040, -0.0040)" d="M315 65c0 24 -21 41 -42 41c-4 0 -8 0 -12 -1c-31 -9 -77 -40 -114 -64s-84 -53 -104 -78c-7 -8 -11 -18 -11 -28c0 -24 21 -41 42 -41c4 0 8 0 12 1c31 9 78 40 115 64s84 53 104 78c7 8 10 18 10 28zM264 137c47 0 83 -21 83 -72c0 -19 -4 -37 -10 -56
c-12 -38 -32 -74 -65 -96c-54 -36 -113 -51 -188 -51c-47 0 -84 22 -84 73c0 19 5 37 11 56c12 38 31 74 64 96c54 36 114 50 189 50z" fill="currentColor"/>
</a>
<a style="color:inherit;" xlink:href="textedit:///tmp/src/s/b/sphinx/html/-:12:11:12">
<path transform="translate(28.5232, 4.5000) scale(0.0040, -0.0040)" d="M315 65c0 24 -21 41 -42 41c-4 0 -8 0 -12 -1c-31 -9 -77 -40 -114 -64s-84 -53 -104 -78c-7 -8 -11 -18 -11 -28c0 -24 21 -41 42 -41c4 0 8 0 12 1c31 9 78 40 115 64s84 53 104 78c7 8 10 18 10 28zM264 137c47 0 83 -21 83 -72c0 -19 -4 -37 -10 -56
c-12 -38 -32 -74 -65 -96c-54 -36 -113 -51 -188 -51c-47 0 -84 22 -84 73c0 19 5 37 11 56c12 38 31 74 64 96c54 36 114 50 189 50z" fill="currentColor"/>
</a>
<a style="color:inherit;" xlink:href="textedit:///tmp/src/s/b/sphinx/html/-:12:7:8">
<path transform="translate(28.5232, 3.5000) scale(0.0040, -0.0040)" d="M315 65c0 24 -21 41 -42 41c-4 0 -8 0 -12 -1c-31 -9 -77 -40 -114 -64s-84 -53 -104 -78c-7 -8 -11 -18 -11 -28c0 -24 21 -41 42 -41c4 0 8 0 12 1c31 9 78 40 115 64s84 53 104 78c7 8 10 18 10 28zM264 137c47 0 83 -21 83 -72c0 -19 -4 -37 -10 -56
c-12 -38 -32 -74 -65 -96c-54 -36 -113 -51 -188 -51c-47 0 -84 22 -84 73c0 19 5 37 11 56c12 38 31 74 64 96c54 36 114 50 189 50z" fill="currentColor"/>
</a>
<path transform="translate(9.3358, 6.0000) scale(0.0040, -0.0040)" d="M376 262c4 0 9 1 13 1c155 0 256 -128 256 -261c0 -76 -33 -154 -107 -210c-22 -17 -47 -28 -73 -36c3 -35 5 -70 5 -105c0 -19 -1 -39 -2 -58c-7 -120 -90 -228 -208 -228c-108 0 -195 88 -195 197c0 58 53 103 112 103c54 0 95 -47 95 -103c0 -52 -43 -95 -95 -95
c-11 0 -21 2 -31 6c26 -39 68 -65 117 -65c96 0 157 92 163 191c1 18 2 37 2 55c0 31 -1 61 -4 92c-29 -5 -58 -8 -89 -8c-188 0 -333 172 -333 374c0 177 131 306 248 441c-19 62 -37 125 -45 190c-6 52 -7 104 -7 156c0 115 55 224 149 292c3 2 7 3 10 3c4 0 7 0 10 -3
c71 -84 133 -245 133 -358c0 -143 -86 -255 -180 -364c21 -68 39 -138 56 -207zM461 -203c68 24 113 95 113 164c0 90 -66 179 -173 190c24 -116 46 -231 60 -354zM74 28c0 -135 129 -247 264 -247c28 0 55 2 82 6c-14 127 -37 245 -63 364c-79 -8 -124 -61 -124 -119
c0 -44 25 -91 81 -123c5 -5 7 -10 7 -15c0 -11 -10 -22 -22 -22c-3 0 -6 1 -9 2c-80 43 -117 115 -117 185c0 88 58 174 160 197c-14 58 -29 117 -46 175c-107 -121 -213 -243 -213 -403zM408 1045c-99 -48 -162 -149 -162 -259c0 -74 18 -133 36 -194
c80 97 146 198 146 324c0 55 -4 79 -20 129z" fill="currentColor"/>
<a style="color:inherit;" xlink:href="textedit:///tmp/src/s/b/sphinx/html/-:11:48:49">
<path transform="translate(23.1690, 9.0000) scale(0.0040, -0.0040)" d="M220 138c56 0 109 -29 109 -91c0 -72 -56 -121 -103 -149c-36 -21 -76 -36 -117 -36c-56 0 -109 29 -109 91c0 72 56 121 103 149c36 21 76 36 117 36z" fill="currentColor"/>
</a>
<rect transform="translate(18.3917, 5.0000)" x="-0.0650" y="-5.0000" width="0.1300" height="9.8122" ry="0.0400" fill="currentColor"/>
<path transform="translate(13.5358, 7.0486) scale(0.0040, -0.0040)" d="M204 307c22 14 44 29 60 50c11 15 19 33 27 50c2 4 5 6 9 6c6 0 13 -5 13 -14v-245h72c10 0 15 -7 15 -14s-5 -15 -15 -15h-72v-8c0 -48 27 -94 72 -94c8 0 12 -5 12 -11s-4 -12 -12 -12c-44 0 -87 13 -131 13s-87 -13 -131 -13c-8 0 -12 6 -12 12s4 11 12 11
c45 0 73 46 73 94v8h-167c-23 0 -31 14 -31 23c0 3 1 5 2 6c80 93 138 207 138 330c0 9 6 16 13 16h3c23 -7 47 -13 71 -13s48 6 71 13c2 1 3 1 5 1c11 0 18 -10 12 -17l-284 -330h167v131c0 8 1 17 8 22z" fill="currentColor"/>
<path transform="translate(13.6724, 5.0000) scale(0.0040, -0.0040)" d="M150 477c-29 0 -59 -8 -59 -33c0 -22 36 -25 36 -47c0 -32 -26 -58 -58 -58s-57 26 -57 58c0 65 67 103 138 103c91 0 169 -33 169 -114c0 -43 -4 -82 -42 -100c-9 -4 -14 -12 -14 -21s5 -18 14 -22c41 -19 56 -57 56 -103c0 -92 -79 -140 -179 -140
c-79 0 -154 42 -154 113c0 36 30 66 66 66s65 -30 65 -66c0 -25 -40 -28 -40 -53c0 -27 32 -37 63 -37c49 0 63 61 63 117v16c0 54 -2 94 -50 94h-80c-10 0 -14 8 -14 15s4 14 14 14h80c49 0 50 43 50 99v8c0 54 -18 91 -67 91z" fill="currentColor"/>
<a style="color:inherit;" xlink:href="textedit:///tmp/src/s/b/sphinx/html/-:11:17:18">
<path transform="translate(17.1406, 10.0000) scale(0.0040, -0.0040)" d="M220 138c56 0 109 -29 109 -91c0 -72 -56 -121 -103 -149c-36 -21 -76 -36 -117 -36c-56 0 -109 29 -109 91c0 72 56 121 103 149c36 21 76 36 117 36z" fill="currentColor"/>
</a>
<a style="color:inherit;" xlink:href="textedit:///tmp/src/s/b/sphinx/html/-:11:14:15">
<path transform="translate(17.1406, 7.5000) scale(0.0040, -0.0040)" d="M220 138c56 0 109 -29 109 -91c0 -72 -56 -121 -103 -149c-36 -21 -76 -36 -117 -36c-56 0 -109 29 -109 91c0 72 56 121 103 149c36 21 76 36 117 36z" fill="currentColor"/>
</a>
<a style="color:inherit;" xlink:href="textedit:///tmp/src/s/b/sphinx/html/-:11:11:12">
<path transform="translate(17.1406, 6.0000) scale(0.0040, -0.0040)" d="M220 138c56 0 109 -29 109 -91c0 -72 -56 -121 -103 -149c-36 -21 -76 -36 -117 -36c-56 0 -109 29 -109 91c0 72 56 121 103 149c36 21 76 36 117 36z" fill="currentColor"/>
</a>
<a style="color:inherit;" xlink:href="textedit:///tmp/src/s/b/sphinx/html/-:11:7:8">
<path transform="translate(17.1406, 2.5000) scale(0.0040, -0.0040)" d="M220 138c56 0 109 -29 109 -91c0 -72 -56 -121 -103 -149c-36 -21 -76 -36 -117 -36c-56 0 -109 29 -109 91c0 72 56 121 103 149c36 21 76 36 117 36z" fill="currentColor"/>
</a>
<a style="color:inherit;" xlink:href="textedit:///tmp/src/s/b/sphinx/html/-:11:45:46">
<path transform="translate(23.1690, 7.0000) scale(0.0040, -0.0040)" d="M220 138c56 0 109 -29 109 -91c0 -72 -56 -121 -103 -149c-36 -21 -76 -36 -117 -36c-56 0 -109 29 -109 91c0 72 56 121 103 149c36 21 76 36 117 36z" fill="currentColor"/>
</a>
<a style="color:inherit;" xlink:href="textedit:///tmp/src/s/b/sphinx/html/-:11:41:42">
<path transform="translate(23.1690, 4.0000) scale(0.0040, -0.0040)" d="M220 138c56 0 109 -29 109 -91c0 -72 -56 -121 -103 -149c-36 -21 -76 -36 -117 -36c-56 0 -109 29 -109 91c0 72 56 121 103 149c36 21 76 36 117 36z" fill="currentColor"/>
</a>
<a style="color:inherit;" xlink:href="textedit:///tmp/src/s/b/sphinx/html/-:11:37:38">
<path transform="translate(23.1690, 3.0000) scale(0.0040, -0.0040)" d="M220 138c56 0 109 -29 109 -91c0 -72 -56 -121 -103 -149c-36 -21 -76 -36 -117 -36c-56 0 -109 29 -109 91c0 72 56 121 103 149c36 21 76 36 117 36z" fill="currentColor"/>
</a>
<rect transform="translate(21.4060, 5.0000)" x="-0.0650" y="-5.0000" width="0.1300" height="8.3122" ry="0.0400" fill="currentColor"/>
<a style="color:inherit;" xlink:href="textedit:///tmp/src/s/b/sphinx/html/-:11:33:34">
<path transform="translate(20.1548, 8.5000) scale(0.0040, -0.0040)" d="M220 138c56 0 109 -29 109 -91c0 -72 -56 -121 -103 -149c-36 -21 -76 -36 -117 -36c-56 0 -109 29 -109 91c0 72 56 121 103 149c36 21 76 36 117 36z" fill="currentColor"/>
</a>
<a style="color:inherit;" xlink:href="textedit:///tmp/src/s/b/sphinx/html/-:11:30:31">
<path transform="translate(20.1548, 5.5000) scale(0.0040, -0.0040)" d="M220 138c56 0 109 -29 109 -91c0 -72 -56 -121 -103 -149c-36 -21 -76 -36 -117 -36c-56 0 -109 29 -109 91c0 72 56 121 103 149c36 21 76 36 117 36z" fill="currentColor"/>
</a>
<a style="color:inherit;" xlink:href="textedit:///tmp/src/s/b/sphinx/html/-:11:26:27">
<path transform="translate(20.1548, 4.5000) scale(0.0040, -0.0040)" d="M220 138c56 0 109 -29 109 -91c0 -72 -56 -121 -103 -149c-36 -21 -76 -36 -117 -36c-56 0 -109 29 -109 91c0 72 56 121 103 149c36 21 76 36 117 36z" fill="currentColor"/>
</a>
<a style="color:inherit;" xlink:href="textedit:///tmp/src/s/b/sphinx/html/-:11:22:23">
<path transform="translate(20.1548, 2.5000) scale(0.0040, -0.0040)" d="M220 138c56 0 109 -29 109 -91c0 -72 -56 -121 -103 -149c-36 -21 -76 -36 -117 -36c-56 0 -109 29 -109 91c0 72 56 121 103 149c36 21 76 36 117 36z" fill="currentColor"/>
</a>
</svg>
