<svg xmlns="http://www.w3.org/2000/svg" xmlns:xlink="http://www.w3.org/1999/xlink" version="1.2" width="177.34mm" height="40.52mm" viewBox="7.2050 -0.0000 100.9154 23.0577">
<rect transform="translate(107.9305, 5.2127)" x="0.0000" y="-2.0000" width="0.1900" height="4.0500" ry="0.0000" fill="currentColor"/>
<rect transform="translate(63.2053, 19.3177)" x="0.0000" y="-2.0500" width="0.1900" height="4.0500" ry="0.0000" fill="currentColor"/>
<rect transform="translate(63.2053, -0.0000)" x="0.0000" y="7.2627" width="0.1900" height="10.0549" ry="0.0000" fill="currentColor"/>
<rect transform="translate(107.9305, -0.0000)" x="0.0000" y="7.2627" width="0.1900" height="10.0549" ry="0.0000" fill="currentColor"/>
<rect transform="translate(63.2053, 5.2127)" x="0.0000" y="-2.0000" width="0.1900" height="4.0500" ry="0.0000" fill="currentColor"/>
<rect transform="translate(107.9305, 19.3177)" x="0.0000" y="-2.0500" width="0.1900" height="4.0500" ry="0.0000" fill="currentColor"/>
<line transform="translate(8.5358, 21.3177)" stroke-linejoin="round" stroke-linecap="round" stroke-width="0.1000" stroke="currentColor" x1="0.0500" y1="-0.0000" x2="99.5346" y2="-0.0000"/>
<line transform="translate(8.5358, 20.3177)" stroke-linejoin="round" stroke-linecap="round" stroke-width="0.1000" stroke="currentColor" x1="0.0500" y1="-0.0000" x2="99.5346" y2="-0.0000"/>
<line transform="translate(8.5358, 19.3177)" stroke-linejoin="round" stroke-linecap="round" stroke-width="0.1000" stroke="currentColor" x1="0.0500" y1="-0.0000" x2="99.5346" y2="-0.0000"/>
<line transform="translate(8.5358, 18.3177)" stroke-linejoin="round" stroke-linecap="round" stroke-width="0.1000" stroke="currentColor" x1="0.0500" y1="-0.0000" x2="99.5346" y2="-0.0000"/>
<line transform="translate(8.5358, 17.3177)" stroke-linejoin="round" stroke-linecap="round" stroke-width="0.1000" stroke="currentColor" x1="0.0500" y1="-0.0000" x2="99.5346" y2="-0.0000"/>
<rect transform="translate(0.0000, 16.3177)" x="40.2070" y="-0.1000" width="1.9743" height="0.2000" ry="0.1000" fill="currentColor"/>
<rect transform="translate(0.0000, 16.3177)" x="64.1669" y="-0.1000" width="1.9743" height="0.2000" ry="0.1000" fill="currentColor"/>
<rect transform="translate(0.0000, 16.3177)" x="78.7304" y="-0.1000" width="1.9743" height="0.2000" ry="0.1000" fill="currentColor"/>
<rect transform="translate(0.0000, 16.3177)" x="86.0117" y="-0.1000" width="1.9743" height="0.2000" ry="0.1000" fill="currentColor"/>
<rect transform="translate(0.0000, 15.3177)" x="86.0117" y="-0.1000" width="1.9743" height="0.2000" ry="0.1000" fill="currentColor"/>
<rect transform="translate(0.0000, 14.3177)" x="86.0117" y="-0.1000" width="1.9743" height="0.2000" ry="0.1000" fill="currentColor"/>
<rect transform="translate(0.0000, 16.3177)" x="89.4028" y="-0.1000" width="1.9743" height="0.2000" ry="0.1000" fill="currentColor"/>
<rect transform="translate(0.0000, 15.3177)" x="89.4028" y="-0.1000" width="1.9743" height="0.2000" ry="0.1000" fill="currentColor"/>
<rect transform="translate(0.0000, 16.3177)" x="92.7938" y="-0.1000" width="1.9743" height="0.2000" ry="0.1000" fill="currentColor"/>
<rect transform="translate(0.0000, 16.3177)" x="96.6848" y="-0.1000" width="1.9743" height="0.2000" ry="0.1000" fill="currentColor"/>
<rect transform="translate(0.0000, 15.3177)" x="96.6848" y="-0.1000" width="1.9743" height="0.2000" ry="0.1000" fill="currentColor"/>
<rect transform="translate(0.0000, 16.3177)" x="100.3259" y="-0.1000" width="1.9743" height="0.2000" ry="0.1000" fill="currentColor"/>
<rect transform="translate(0.0000, 15.3177)" x="100.3259" y="-0.1000" width="1.9743" height="0.2000" ry="0.1000" fill="currentColor"/>
<rect transform="translate(0.0000, 16.3177)" x="103.9669" y="-0.1000" width="1.9743" height="0.2000" ry="0.1000" fill="currentColor"/>
<rect transform="translate(0.0000, 8.2127)" x="18.3615" y="-0.1000" width="1.9743" height="0.2000" ry="0.1000" fill="currentColor"/>
<rect transform="translate(0.0000, 9.2127)" x="18.3615" y="-0.1000" width="1.9743" height="0.2000" ry="0.1000" fill="currentColor"/>
<rect transform="translate(0.0000, 10.2127)" x="18.3615" y="-0.1000" width="1.9743" height="0.2000" ry="0.1000" fill="currentColor"/>
<rect transform="translate(0.0000, 11.2127)" x="18.3615" y="-0.1000" width="1.9743" height="0.2000" ry="0.1000" fill="currentColor"/>
<rect transform="translate(0.0000, 12.2127)" x="18.3615" y="-0.1000" width="1.9743" height="0.2000" ry="0.1000" fill="currentColor"/>
<rect transform="translate(0.0000, 13.2127)" x="18.3615" y="-0.1000" width="1.9743" height="0.2000" ry="0.1000" fill="currentColor"/>
<rect transform="translate(0.0000, 2.2127)" x="64.1669" y="-0.1000" width="1.9743" height="0.2000" ry="0.1000" fill="currentColor"/>
<rect transform="translate(0.0000, 8.2127)" x="78.7304" y="-0.1000" width="1.9743" height="0.2000" ry="0.1000" fill="currentColor"/>
<rect transform="translate(0.0000, 9.2127)" x="78.7304" y="-0.1000" width="1.9743" height="0.2000" ry="0.1000" fill="currentColor"/>
<rect transform="translate(0.0000, 10.2127)" x="78.7304" y="-0.1000" width="1.9743" height="0.2000" ry="0.1000" fill="currentColor"/>
<rect transform="translate(0.0000, 8.2127)" x="92.7938" y="-0.1000" width="1.9743" height="0.2000" ry="0.1000" fill="currentColor"/>
<rect transform="translate(0.0000, 9.2127)" x="92.7938" y="-0.1000" width="1.9743" height="0.2000" ry="0.1000" fill="currentColor"/>
<rect transform="translate(0.0000, 10.2127)" x="92.7938" y="-0.1000" width="1.9743" height="0.2000" ry="0.1000" fill="currentColor"/>
<rect transform="translate(0.0000, 8.2127)" x="96.6848" y="-0.1000" width="1.9743" height="0.2000" ry="0.1000" fill="currentColor"/>
<rect transform="translate(0.0000, 9.2127)" x="96.6848" y="-0.1000" width="1.9743" height="0.2000" ry="0.1000" fill="currentColor"/>
<rect transform="translate(0.0000, 8.2127)" x="100.3259" y="-0.1000" width="1.9743" height="0.2000" ry="0.1000" fill="currentColor"/>
<rect transform="translate(0.0000, 9.2127)" x="100.3259" y="-0.1000" width="1.9743" height="0.2000" ry="0.1000" fill="currentColor"/>
<rect transform="translate(0.0000, 8.2127)" x="103.9669" y="-0.1000" width="1.9743" height="0.2000" ry="0.1000" fill="currentColor"/>
<rect transform="translate(0.0000, 9.2127)" x="103.9669" y="-0.1000" width="1.9743" height="0.2000" ry="0.1000" fill="currentColor"/>
<rect transform="translate(0.0000, 10.2127)" x="103.9669" y="-0.1000" width="1.9743" height="0.2000" ry="0.1000" fill="currentColor"/>
<line transform="translate(8.5358, 7.2127)" stroke-linejoin="round" stroke-linecap="round" stroke-width="0.1000" stroke="currentColor" x1="0.0500" y1="-0.0000" x2="99.5346" y2="-0.0000"/>
<line transform="translate(8.5358, 6.2127)" stroke-linejoin="round" stroke-linecap="round" stroke-width="0.1000" stroke="currentColor" x1="0.0500" y1="-0.0000" x2="99.5346" y2="-0.0000"/>
<line transform="translate(8.5358, 5.2127)" stroke-linejoin="round" stroke-linecap="round" stroke-width="0.1000" stroke="currentColor" x1="0.0500" y1="-0.0000" x2="99.5346" y2="-0.0000"/>
<line transform="translate(8.5358, 4.2127)" stroke-linejoin="round" stroke-linecap="round" stroke-width="0.1000" stroke="currentColor" x1="0.0500" y1="-0.0000" x2="99.5346" y2="-0.0000"/>
<line transform="translate(8.5358, 3.2127)" stroke-linejoin="round" stroke-linecap="round" stroke-width="0.1000" stroke="currentColor" x1="0.0500" y1="-0.0000" x2="99.5346" y2="-0.0000"/>
<rect transform="translate(75.2334, 19.3177)" x="-0.0650" y="-1.8122" width="0.1300" height="3.6173" ry="0.0400" fill="currentColor"/>
<rect transform="translate(79.1244, 19.3177)" x="-0.0650" y="-3.3122" width="0.1300" height="4.1222" ry="0.0400" fill="currentColor"/>
<rect transform="translate(80.3106, 5.2127)" x="-0.0650" y="-0.0000" width="0.1300" height="4.8122" ry="0.0400" fill="currentColor"/>
<a style="color:inherit;" xlink:href="textedit:///tmp/src/s/b/sphinx/html/-:52:23:24">
<path transform="translate(79.0594, 15.8177) scale(0.0040, -0.0040)" d="M220 138c56 0 109 -29 109 -91c0 -72 -56 -121 -103 -149c-36 -21 -76 -36 -117 -36c-56 0 -109 29 -109 91c0 72 56 121 103 149c36 21 76 36 117 36z" fill="currentColor"/>
</a>
<a style="color:inherit;" xlink:href="textedit:///tmp/src/s/b/sphinx/html/-:15:20:21">
<path transform="translate(79.7175, 2.2947) scale(0.0040, -0.0040)" d="M20 -147c0 -11 -9 -20 -20 -20s-20 9 -20 20v81l-33 -50c-4 -6 -10 -9 -17 -9c-6 0 -11 2 -15 7l-99 119c-10 -16 -21 -31 -31 -47c-4 -6 -9 -9 -16 -9c-11 0 -20 9 -20 20c0 4 1 8 3 11c31 47 62 93 93 140c4 6 10 9 17 9c6 0 11 -2 15 -7l98 -119l5 7v141
c0 11 9 20 20 20s20 -9 20 -20v-81l33 50c4 6 10 9 17 9c6 0 11 -2 15 -7l99 -119c10 16 21 31 31 47c4 6 9 9 16 9c11 0 20 -9 20 -20c0 -4 -1 -8 -3 -11c-31 -47 -62 -93 -93 -140c-4 -6 -10 -9 -17 -9c-6 0 -11 2 -15 7l-98 119l-5 -7v-141z" fill="currentColor"/>
</a>
<a style="color:inherit;" xlink:href="textedit:///tmp/src/s/b/sphinx/html/-:15:29:30">
<path transform="translate(79.3248, 1.1267) scale(0.0022, -0.0022)" d="M155 471c-34 0 -70 -8 -70 -38c0 -19 31 -23 31 -42c0 -28 -23 -51 -51 -51s-51 23 -51 51c0 67 68 109 141 109c93 0 174 -31 174 -113c0 -41 -6 -77 -42 -94c-11 -5 -17 -16 -17 -27s6 -22 17 -27c40 -19 59 -53 59 -98c0 -94 -83 -141 -186 -141
c-82 0 -160 45 -160 119c0 32 26 58 58 58s58 -26 58 -58c0 -22 -36 -26 -36 -48c0 -33 42 -42 80 -42c46 0 56 58 56 112v38c0 40 -4 69 -43 69h-74c-12 0 -18 9 -18 18s6 18 18 18h74c40 0 43 31 43 73v30c0 50 -16 84 -61 84z" fill="currentColor"/>
</a>
<a style="color:inherit;" xlink:href="textedit:///tmp/src/s/b/sphinx/html/-:15:15:16">
<path transform="translate(79.0594, 10.2127) scale(0.0040, -0.0040)" d="M220 138c56 0 109 -29 109 -91c0 -72 -56 -121 -103 -149c-36 -21 -76 -36 -117 -36c-56 0 -109 29 -109 91c0 72 56 121 103 149c36 21 76 36 117 36z" fill="currentColor"/>
</a>
<rect transform="translate(89.7968, 19.3177)" x="-0.0650" y="-4.3122" width="0.1300" height="5.1222" ry="0.0400" fill="currentColor"/>
<a style="color:inherit;" xlink:href="textedit:///tmp/src/s/b/sphinx/html/-:52:38:39">
<path transform="translate(89.9631, 13.7677) scale(0.0022, -0.0022)" d="M29 13c-1 -9 -7 -13 -14 -13s-15 5 -15 14c0 173 233 163 233 341c0 56 -14 116 -62 116c-33 0 -66 -15 -66 -44c0 -24 31 -37 31 -61c0 -34 -27 -61 -61 -61s-61 27 -61 61c0 78 74 134 157 134c98 0 191 -55 191 -145c0 -144 -135 -156 -233 -206h7
c36 0 74 -13 111 -40c19 -14 40 -21 59 -21c22 0 40 10 46 31c2 7 7 11 13 11c7 0 15 -5 15 -14v-5c-19 -71 -84 -111 -146 -111c-38 0 -75 15 -101 47c-12 15 -28 22 -44 22c-29 0 -57 -21 -60 -56z" fill="currentColor"/>
</a>
<a style="color:inherit;" xlink:href="textedit:///tmp/src/s/b/sphinx/html/-:52:34:35">
<path transform="translate(89.7318, 14.8177) scale(0.0040, -0.0040)" d="M220 138c56 0 109 -29 109 -91c0 -72 -56 -121 -103 -149c-36 -21 -76 -36 -117 -36c-56 0 -109 29 -109 91c0 72 56 121 103 149c36 21 76 36 117 36z" fill="currentColor"/>
</a>
<rect transform="translate(86.4058, 19.3177)" x="-0.0650" y="-5.3122" width="0.1300" height="6.1222" ry="0.0400" fill="currentColor"/>
<a style="color:inherit;" xlink:href="textedit:///tmp/src/s/b/sphinx/html/-:52:31:32">
<path transform="translate(86.3408, 13.8177) scale(0.0040, -0.0040)" d="M220 138c56 0 109 -29 109 -91c0 -72 -56 -121 -103 -149c-36 -21 -76 -36 -117 -36c-56 0 -109 29 -109 91c0 72 56 121 103 149c36 21 76 36 117 36z" fill="currentColor"/>
</a>
<rect transform="translate(82.5147, 19.3177)" x="-0.0650" y="-1.8122" width="0.1300" height="2.6222" ry="0.0400" fill="currentColor"/>
<a style="color:inherit;" xlink:href="textedit:///tmp/src/s/b/sphinx/html/-:52:28:29">
<path transform="translate(82.7152, 16.2677) scale(0.0022, -0.0022)" d="M54 500c45 -8 91 -14 137 -14s92 6 137 14h4c11 0 19 -7 19 -14c0 -2 -1 -4 -3 -6c-68 -68 -162 -101 -258 -101c-11 0 -20 -10 -20 -21v-73c27 27 67 36 106 36c117 0 188 -50 188 -161c0 -97 -96 -160 -200 -160c-84 0 -164 43 -164 119c0 32 26 58 58 58
s58 -26 58 -58c0 -22 -36 -26 -36 -48c0 -35 44 -42 84 -42c55 0 71 67 71 131c0 59 -8 125 -59 125c-42 0 -85 -5 -109 -38c-4 -5 -10 -8 -15 -8c-9 0 -18 7 -18 18v223c0 11 8 20 18 20h2z" fill="currentColor"/>
</a>
<a style="color:inherit;" xlink:href="textedit:///tmp/src/s/b/sphinx/html/-:52:27:28">
<path transform="translate(82.4497, 17.3177) scale(0.0040, -0.0040)" d="M220 138c56 0 109 -29 109 -91c0 -72 -56 -121 -103 -149c-36 -21 -76 -36 -117 -36c-56 0 -109 29 -109 91c0 72 56 121 103 149c36 21 76 36 117 36z" fill="currentColor"/>
</a>
<rect transform="translate(64.5610, 19.3177)" x="-0.0650" y="-3.3122" width="0.1300" height="4.3171" ry="0.0400" fill="currentColor"/>
<a style="color:inherit;" xlink:href="textedit:///tmp/src/s/b/sphinx/html/-:51:11:12">
<polygon transform="translate(18.6906, 21.5077)" stroke-linejoin="round" stroke-linecap="round" stroke-width="0.0800" fill="currentColor" stroke="currentColor" points="10.7624 0.3000 10.7624 0.7000 0.0400 0.2000 0.0400 -0.2000"/>
<polygon transform="translate(18.6906, 22.3177)" stroke-linejoin="round" stroke-linecap="round" stroke-width="0.0800" fill="currentColor" stroke="currentColor" points="10.7624 0.3000 10.7624 0.7000 0.0400 0.2000 0.0400 -0.2000"/>
</a>
<rect transform="translate(71.3423, 19.3177)" x="-0.0650" y="-0.8122" width="0.1300" height="2.3255" ry="0.0400" fill="currentColor"/>
<a style="color:inherit;" xlink:href="textedit:///tmp/src/s/b/sphinx/html/-:52:20:21">
<path transform="translate(75.1684, 17.3177) scale(0.0040, -0.0040)" d="M220 138c56 0 109 -29 109 -91c0 -72 -56 -121 -103 -149c-36 -21 -76 -36 -117 -36c-56 0 -109 29 -109 91c0 72 56 121 103 149c36 21 76 36 117 36z" fill="currentColor"/>
</a>
<a style="color:inherit;" xlink:href="textedit:///tmp/src/s/b/sphinx/html/-:52:16:17">
<path transform="translate(71.2773, 18.3177) scale(0.0040, -0.0040)" d="M220 138c56 0 109 -29 109 -91c0 -72 -56 -121 -103 -149c-36 -21 -76 -36 -117 -36c-56 0 -109 29 -109 91c0 72 56 121 103 149c36 21 76 36 117 36z" fill="currentColor"/>
</a>
<a style="color:inherit;" xlink:href="textedit:///tmp/src/s/b/sphinx/html/-:15:13:14">
<path transform="translate(71.2773, 5.2127) scale(0.0040, -0.0040)" d="M72 -250l117 326c-34 -12 -69 -22 -105 -22c-46 0 -87 33 -87 79c0 40 33 72 73 72c25 0 48 -15 56 -39c10 -28 6 -59 35 -59c16 0 54 48 61 63c6 12 23 12 28 0l-123 -420c-8 -7 -17 -10 -27 -10s-20 3 -28 10z" fill="currentColor"/>
</a>
<rect transform="translate(67.9513, 19.3177)" x="-0.0650" y="-1.8122" width="0.1300" height="3.0713" ry="0.0400" fill="currentColor"/>
<a style="color:inherit;" xlink:href="textedit:///tmp/src/s/b/sphinx/html/-:52:14:15">
<path transform="translate(67.8863, 17.3177) scale(0.0040, -0.0040)" d="M220 138c56 0 109 -29 109 -91c0 -72 -56 -121 -103 -149c-36 -21 -76 -36 -117 -36c-56 0 -109 29 -109 91c0 72 56 121 103 149c36 21 76 36 117 36z" fill="currentColor"/>
</a>
<rect transform="translate(104.3609, 19.3177)" x="-0.0650" y="-3.3122" width="0.1300" height="3.3122" ry="0.0400" fill="currentColor"/>
<rect transform="translate(105.5471, 5.2127)" x="-0.0650" y="-0.0000" width="0.1300" height="4.8122" ry="0.0400" fill="currentColor"/>
<a style="color:inherit;" xlink:href="textedit:///tmp/src/s/b/sphinx/html/-:52:54:55">
<path transform="translate(104.2959, 15.8177) scale(0.0040, -0.0040)" d="M220 138c56 0 109 -29 109 -91c0 -72 -56 -121 -103 -149c-36 -21 -76 -36 -117 -36c-56 0 -109 29 -109 91c0 72 56 121 103 149c36 21 76 36 117 36z" fill="currentColor"/>
</a>
<a style="color:inherit;" xlink:href="textedit:///tmp/src/s/b/sphinx/html/-:15:43:44">
<path transform="translate(104.2959, 10.2127) scale(0.0040, -0.0040)" d="M220 138c56 0 109 -29 109 -91c0 -72 -56 -121 -103 -149c-36 -21 -76 -36 -117 -36c-56 0 -109 29 -109 91c0 72 56 121 103 149c36 21 76 36 117 36z" fill="currentColor"/>
</a>
<a style="color:inherit;" xlink:href="textedit:///tmp/src/s/b/sphinx/html/-:52:44:45">
<polygon transform="translate(93.1228, 18.5077)" stroke-linejoin="round" stroke-linecap="round" stroke-width="0.0800" fill="currentColor" stroke="currentColor" points="11.2631 -0.2000 11.2631 0.2000 0.0400 0.2000 0.0400 -0.2000"/>
<polygon transform="translate(93.1228, 19.3177)" stroke-linejoin="round" stroke-linecap="round" stroke-width="0.0800" fill="currentColor" stroke="currentColor" points="11.2631 -0.2000 11.2631 0.2000 0.0400 0.2000 0.0400 -0.2000"/>
</a>
<a style="color:inherit;" xlink:href="textedit:///tmp/src/s/b/sphinx/html/-:51:21:22">
<polygon transform="translate(33.2540, 19.3177)" stroke-linejoin="round" stroke-linecap="round" stroke-width="0.0800" fill="currentColor" stroke="currentColor" points="10.7631 -0.2000 10.7631 0.2000 0.0400 0.2000 0.0400 -0.2000"/>
<polygon transform="translate(33.2540, 20.1277)" stroke-linejoin="round" stroke-linecap="round" stroke-width="0.0800" fill="currentColor" stroke="currentColor" points="10.7631 -0.2000 10.7631 0.2000 0.0400 0.2000 0.0400 -0.2000"/>
</a>
<a style="color:inherit;" xlink:href="textedit:///tmp/src/s/b/sphinx/html/-:14:30:31">
<path transform="translate(33.2540, 5.2127)" stroke-width="0.0800" stroke-linejoin="round" stroke-linecap="round" stroke="currentColor" fill="currentColor" d="M1.516178 -3.0C3.04071803333734 -3.99896681652197 19.8716465256119 -3.99896681652197 21.3961865589492 -3.0C19.8716465256119 -3.87896681652197 3.04071803333734 -3.87896681652197 1.516178 -3.0z"/>
</a>
<a style="color:inherit;" xlink:href="textedit:///tmp/src/s/b/sphinx/html/-:51:34:35">
<polygon transform="translate(47.3181, 20.3177)" stroke-linejoin="round" stroke-linecap="round" stroke-width="0.0800" fill="currentColor" stroke="currentColor" points="11.2631 -0.2000 11.2631 0.2000 0.0400 0.2000 0.0400 -0.2000"/>
<polygon transform="translate(47.3181, 21.1277)" stroke-linejoin="round" stroke-linecap="round" stroke-width="0.0800" fill="currentColor" stroke="currentColor" points="11.2631 -0.2000 11.2631 0.2000 0.0400 0.2000 0.0400 -0.2000"/>
</a>
<polygon transform="translate(58.4912, 5.4027)" stroke-linejoin="round" stroke-linecap="round" stroke-width="0.0800" fill="currentColor" stroke="currentColor" points="2.5720 -0.2000 2.5720 0.2000 0.0400 0.2000 0.0400 -0.2000"/>
<polygon transform="translate(54.8502, 6.2127)" stroke-linejoin="round" stroke-linecap="round" stroke-width="0.0800" fill="currentColor" stroke="currentColor" points="6.2131 -0.2000 6.2131 0.2000 0.0400 0.2000 0.0400 -0.2000"/>
<polygon transform="translate(54.8502, 7.0227)" stroke-linejoin="round" stroke-linecap="round" stroke-width="0.0800" fill="currentColor" stroke="currentColor" points="6.2131 -0.2000 6.2131 0.2000 0.0400 0.2000 0.0400 -0.2000"/>
<a style="color:inherit;" xlink:href="textedit:///tmp/src/s/b/sphinx/html/-:52:12:13">
<polygon transform="translate(64.4960, 19.5077)" stroke-linejoin="round" stroke-linecap="round" stroke-width="0.0800" fill="currentColor" stroke="currentColor" points="10.7624 0.6100 10.7624 1.0100 0.0400 0.2000 0.0400 -0.2000"/>
<polygon transform="translate(64.4960, 20.3177)" stroke-linejoin="round" stroke-linecap="round" stroke-width="0.0800" fill="currentColor" stroke="currentColor" points="10.7624 0.6100 10.7624 1.0100 0.0400 0.2000 0.0400 -0.2000"/>
</a>
<a style="color:inherit;" xlink:href="textedit:///tmp/src/s/b/sphinx/html/-:52:25:26">
<polygon transform="translate(79.0594, 19.3177)" stroke-linejoin="round" stroke-linecap="round" stroke-width="0.0800" fill="currentColor" stroke="currentColor" points="10.7624 -0.2000 10.7624 0.2000 0.0400 0.2000 0.0400 -0.2000"/>
<polygon transform="translate(79.0594, 20.1277)" stroke-linejoin="round" stroke-linecap="round" stroke-width="0.0800" fill="currentColor" stroke="currentColor" points="10.7624 -0.2000 10.7624 0.2000 0.0400 0.2000 0.0400 -0.2000"/>
</a>
<a style="color:inherit;" xlink:href="textedit:///tmp/src/s/b/sphinx/html/-:15:19:20">
<path transform="translate(79.0594, 5.2127)" stroke-width="0.0800" stroke-linejoin="round" stroke-linecap="round" stroke="currentColor" fill="currentColor" d="M0.858089000000007 5.75C2.23382658708539 6.72149953173385 13.1457930417411 6.72149953173385 14.5215306288265 5.75C13.1457930417411 6.60149953173385 2.23382658708539 6.60149953173385 0.858089000000007 5.75z"/>
</a>
<a style="color:inherit;" xlink:href="textedit:///tmp/src/s/b/sphinx/html/-:15:37:38">
<polygon transform="translate(94.3090, 5.2127)" stroke-linejoin="round" stroke-linecap="round" stroke-width="0.0800" fill="currentColor" stroke="currentColor" points="11.2631 -0.2000 11.2631 0.2000 0.0400 0.2000 0.0400 -0.2000"/>
<polygon transform="translate(94.3090, 6.0227)" stroke-linejoin="round" stroke-linecap="round" stroke-width="0.0800" fill="currentColor" stroke="currentColor" points="11.2631 -0.2000 11.2631 0.2000 0.0400 0.2000 0.0400 -0.2000"/>
</a>
<rect transform="translate(98.2650, 5.2127)" x="-0.0650" y="0.0000" width="0.1300" height="3.8122" ry="0.0400" fill="currentColor"/>
<a style="color:inherit;" xlink:href="textedit:///tmp/src/s/b/sphinx/html/-:52:46:47">
<path transform="translate(97.0139, 14.8177) scale(0.0040, -0.0040)" d="M220 138c56 0 109 -29 109 -91c0 -72 -56 -121 -103 -149c-36 -21 -76 -36 -117 -36c-56 0 -109 29 -109 91c0 72 56 121 103 149c36 21 76 36 117 36z" fill="currentColor"/>
</a>
<a style="color:inherit;" xlink:href="textedit:///tmp/src/s/b/sphinx/html/-:15:39:40">
<path transform="translate(97.0139, 9.2127) scale(0.0040, -0.0040)" d="M220 138c56 0 109 -29 109 -91c0 -72 -56 -121 -103 -149c-36 -21 -76 -36 -117 -36c-56 0 -109 29 -109 91c0 72 56 121 103 149c36 21 76 36 117 36z" fill="currentColor"/>
</a>
<rect transform="translate(93.1878, 19.3177)" x="-0.0650" y="-3.3122" width="0.1300" height="3.3122" ry="0.0400" fill="currentColor"/>
<rect transform="translate(94.3740, 5.2127)" x="-0.0650" y="-0.0000" width="0.1300" height="4.8122" ry="0.0400" fill="currentColor"/>
<a style="color:inherit;" xlink:href="textedit:///tmp/src/s/b/sphinx/html/-:52:42:43">
<path transform="translate(93.1228, 15.8177) scale(0.0040, -0.0040)" d="M220 138c56 0 109 -29 109 -91c0 -72 -56 -121 -103 -149c-36 -21 -76 -36 -117 -36c-56 0 -109 29 -109 91c0 72 56 121 103 149c36 21 76 36 117 36z" fill="currentColor"/>
</a>
<a style="color:inherit;" xlink:href="textedit:///tmp/src/s/b/sphinx/html/-:15:32:33">
<path transform="translate(93.1228, 10.2127) scale(0.0040, -0.0040)" d="M220 138c56 0 109 -29 109 -91c0 -72 -56 -121 -103 -149c-36 -21 -76 -36 -117 -36c-56 0 -109 29 -109 91c0 72 56 121 103 149c36 21 76 36 117 36z" fill="currentColor"/>
</a>
<a style="color:inherit;" xlink:href="textedit:///tmp/src/s/b/sphinx/html/-:15:41:42">
<path transform="translate(100.6549, 9.7127) scale(0.0040, -0.0040)" d="M220 138c56 0 109 -29 109 -91c0 -72 -56 -121 -103 -149c-36 -21 -76 -36 -117 -36c-56 0 -109 29 -109 91c0 72 56 121 103 149c36 21 76 36 117 36z" fill="currentColor"/>
</a>
<rect transform="translate(100.7199, 19.3177)" x="-0.0650" y="-3.8122" width="0.1300" height="3.8122" ry="0.0400" fill="currentColor"/>
<rect transform="translate(101.9061, 5.2127)" x="-0.0650" y="-0.0000" width="0.1300" height="4.3122" ry="0.0400" fill="currentColor"/>
<a style="color:inherit;" xlink:href="textedit:///tmp/src/s/b/sphinx/html/-:52:51:52">
<path transform="translate(100.6549, 15.3177) scale(0.0040, -0.0040)" d="M220 138c56 0 109 -29 109 -91c0 -72 -56 -121 -103 -149c-36 -21 -76 -36 -117 -36c-56 0 -109 29 -109 91c0 72 56 121 103 149c36 21 76 36 117 36z" fill="currentColor"/>
</a>
<rect transform="translate(97.0789, 19.3177)" x="-0.0650" y="-4.3122" width="0.1300" height="4.3122" ry="0.0400" fill="currentColor"/>
<rect transform="translate(29.4280, 19.3177)" x="-0.0650" y="-1.3122" width="0.1300" height="4.8092" ry="0.0400" fill="currentColor"/>
<a style="color:inherit;" xlink:href="textedit:///tmp/src/s/b/sphinx/html/-:51:17:18">
<path transform="translate(29.3630, 17.8177) scale(0.0040, -0.0040)" d="M220 138c56 0 109 -29 109 -91c0 -72 -56 -121 -103 -149c-36 -21 -76 -36 -117 -36c-56 0 -109 29 -109 91c0 72 56 121 103 149c36 21 76 36 117 36z" fill="currentColor"/>
</a>
<rect transform="translate(25.5369, 19.3177)" x="-0.0650" y="0.1878" width="0.1300" height="3.1291" ry="0.0400" fill="currentColor"/>
<a style="color:inherit;" xlink:href="textedit:///tmp/src/s/b/sphinx/html/-:51:15:16">
<path transform="translate(25.4719, 19.3177) scale(0.0040, -0.0040)" d="M220 138c56 0 109 -29 109 -91c0 -72 -56 -121 -103 -149c-36 -21 -76 -36 -117 -36c-56 0 -109 29 -109 91c0 72 56 121 103 149c36 21 76 36 117 36z" fill="currentColor"/>
</a>
<a style="color:inherit;" xlink:href="textedit:///tmp/src/s/b/sphinx/html/-:14:23:24">
<path transform="translate(25.4719, 5.2127) scale(0.0040, -0.0040)" d="M72 -250l117 326c-34 -12 -69 -22 -105 -22c-46 0 -87 33 -87 79c0 40 33 72 73 72c25 0 48 -15 56 -39c10 -28 6 -59 35 -59c16 0 54 48 61 63c6 12 23 12 28 0l-123 -420c-8 -7 -17 -10 -27 -10s-20 3 -28 10z" fill="currentColor"/>
</a>
<rect transform="translate(22.1466, 19.3177)" x="-0.0650" y="-1.3122" width="0.1300" height="4.4722" ry="0.0400" fill="currentColor"/>
<rect transform="translate(36.7100, 19.3177)" x="-0.0650" y="-1.3122" width="0.1300" height="2.1222" ry="0.0400" fill="currentColor"/>
<a style="color:inherit;" xlink:href="textedit:///tmp/src/s/b/sphinx/html/-:51:24:25">
<path transform="translate(36.8422, 16.7677) scale(0.0022, -0.0022)" d="M198 284c24 15 48 29 65 52c12 16 19 34 28 52c2 5 6 7 11 7c8 0 16 -6 16 -17v-217h79c12 0 18 -9 18 -18s-6 -18 -18 -18h-79c2 -51 33 -96 80 -96c10 0 15 -8 15 -15s-5 -14 -15 -14c-49 0 -96 14 -145 14s-97 -14 -146 -14c-10 0 -14 7 -14 14s4 15 14 15
c47 0 79 45 81 96h-152c-29 0 -38 17 -38 28c0 3 1 6 2 8c78 88 123 201 123 319c0 11 8 21 17 21c1 0 3 -1 4 -1c25 -7 50 -14 76 -14s52 7 77 14c2 1 4 1 6 1c10 0 17 -7 17 -14c0 -2 0 -5 -2 -7l-282 -319h152v96c0 10 1 21 10 27z" fill="currentColor"/>
</a>
<a style="color:inherit;" xlink:href="textedit:///tmp/src/s/b/sphinx/html/-:51:23:24">
<path transform="translate(36.6450, 17.8177) scale(0.0040, -0.0040)" d="M220 138c56 0 109 -29 109 -91c0 -72 -56 -121 -103 -149c-36 -21 -76 -36 -117 -36c-56 0 -109 29 -109 91c0 72 56 121 103 149c36 21 76 36 117 36z" fill="currentColor"/>
</a>
<path transform="translate(64.6260, 5.6727) scale(0.0040, -0.0040)" d="M0 0h-16v250h16c98 58 227 148 227 259c0 57 -16 112 -41 163c-3 16 10 27 23 27c7 0 15 -3 20 -11c25 -56 40 -117 40 -179c0 -204 -269 -305 -269 -509z" fill="currentColor"/>
<rect transform="translate(33.3190, 19.3177)" x="-0.0650" y="-2.3122" width="0.1300" height="3.1222" ry="0.0400" fill="currentColor"/>
<a style="color:inherit;" xlink:href="textedit:///tmp/src/s/b/sphinx/html/-:51:13:14">
<path transform="translate(22.0816, 17.8177) scale(0.0040, -0.0040)" d="M220 138c56 0 109 -29 109 -91c0 -72 -56 -121 -103 -149c-36 -21 -76 -36 -117 -36c-56 0 -109 29 -109 91c0 72 56 121 103 149c36 21 76 36 117 36z" fill="currentColor"/>
</a>
<rect transform="translate(33.3190, 5.2127)" x="-0.0650" y="-2.3122" width="0.1300" height="3.3122" ry="0.0400" fill="currentColor"/>
<path transform="translate(35.0202, 2.7127) scale(0.0040, -0.0040)" d="M0 0c0 31 25 56 56 56s56 -25 56 -56s-25 -56 -56 -56s-56 25 -56 56z" fill="currentColor"/>
<a style="color:inherit;" xlink:href="textedit:///tmp/src/s/b/sphinx/html/-:51:20:21">
<path transform="translate(33.2540, 16.8177) scale(0.0040, -0.0040)" d="M220 138c56 0 109 -29 109 -91c0 -72 -56 -121 -103 -149c-36 -21 -76 -36 -117 -36c-56 0 -109 29 -109 91c0 72 56 121 103 149c36 21 76 36 117 36z" fill="currentColor"/>
</a>
<a style="color:inherit;" xlink:href="textedit:///tmp/src/s/b/sphinx/html/-:14:25:26">
<path transform="translate(33.2540, 2.7127) scale(0.0040, -0.0040)" d="M220 138c56 0 109 -29 109 -91c0 -72 -56 -121 -103 -149c-36 -21 -76 -36 -117 -36c-56 0 -109 29 -109 91c0 72 56 121 103 149c36 21 76 36 117 36z" fill="currentColor"/>
</a>
<a style="color:inherit;" xlink:href="textedit:///tmp/src/s/b/sphinx/html/-:14:20:21">
<path transform="translate(18.9560, 1.1267) scale(0.0022, -0.0022)" d="M155 471c-34 0 -70 -8 -70 -38c0 -19 31 -23 31 -42c0 -28 -23 -51 -51 -51s-51 23 -51 51c0 67 68 109 141 109c93 0 174 -31 174 -113c0 -41 -6 -77 -42 -94c-11 -5 -17 -16 -17 -27s6 -22 17 -27c40 -19 59 -53 59 -98c0 -94 -83 -141 -186 -141
c-82 0 -160 45 -160 119c0 32 26 58 58 58s58 -26 58 -58c0 -22 -36 -26 -36 -48c0 -33 42 -42 80 -42c46 0 56 58 56 112v38c0 40 -4 69 -43 69h-74c-12 0 -18 9 -18 18s6 18 18 18h74c40 0 43 31 43 73v30c0 50 -16 84 -61 84z" fill="currentColor"/>
</a>
<rect transform="translate(19.9417, 5.2127)" x="-0.0650" y="-0.0000" width="0.1300" height="7.8122" ry="0.0400" fill="currentColor"/>
<path transform="translate(15.0858, 21.3663) scale(0.0040, -0.0040)" d="M204 307c22 14 44 29 60 50c11 15 19 33 27 50c2 4 5 6 9 6c6 0 13 -5 13 -14v-245h72c10 0 15 -7 15 -14s-5 -15 -15 -15h-72v-8c0 -48 27 -94 72 -94c8 0 12 -5 12 -11s-4 -12 -12 -12c-44 0 -87 13 -131 13s-87 -13 -131 -13c-8 0 -12 6 -12 12s4 11 12 11
c45 0 73 46 73 94v8h-167c-23 0 -31 14 -31 23c0 3 1 5 2 6c80 93 138 207 138 330c0 9 6 16 13 16h3c23 -7 47 -13 71 -13s48 6 71 13c2 1 3 1 5 1c11 0 18 -10 12 -17l-284 -330h167v131c0 8 1 17 8 22z" fill="currentColor"/>
<path transform="translate(15.2224, 19.3177) scale(0.0040, -0.0040)" d="M150 477c-29 0 -59 -8 -59 -33c0 -22 36 -25 36 -47c0 -32 -26 -58 -58 -58s-57 26 -57 58c0 65 67 103 138 103c91 0 169 -33 169 -114c0 -43 -4 -82 -42 -100c-9 -4 -14 -12 -14 -21s5 -18 14 -22c41 -19 56 -57 56 -103c0 -92 -79 -140 -179 -140
c-79 0 -154 42 -154 113c0 36 30 66 66 66s65 -30 65 -66c0 -25 -40 -28 -40 -53c0 -27 32 -37 63 -37c49 0 63 61 63 117v16c0 54 -2 94 -50 94h-80c-10 0 -14 8 -14 15s4 14 14 14h80c49 0 50 43 50 99v8c0 54 -18 91 -67 91z" fill="currentColor"/>
<a style="color:inherit;" xlink:href="textedit:///tmp/src/s/b/sphinx/html/-:49:8:9">
<path transform="translate(12.8358, 18.3177) scale(0.0040, -0.0040)" d="M216 -312c0 -10 -8 -19 -18 -19s-19 9 -19 19v145l-83 -31v-158c0 -10 -9 -19 -19 -19s-18 9 -18 19v145l-32 -12c-2 -1 -5 -1 -7 -1c-11 0 -20 9 -20 20v60c0 8 5 16 13 19l46 16v160l-32 -11c-2 -1 -5 -1 -7 -1c-11 0 -20 9 -20 20v60c0 8 5 15 13 18l46 17v158
c0 10 8 19 18 19s19 -9 19 -19v-145l83 31v158c0 10 9 19 19 19s18 -9 18 -19v-145l32 12c2 1 5 1 7 1c11 0 20 -9 20 -20v-60c0 -8 -5 -16 -13 -19l-46 -16v-160l32 11c2 1 5 1 7 1c11 0 20 -9 20 -20v-60c0 -8 -5 -15 -13 -18l-46 -17v-158zM96 65v-160l83 30v160z" fill="currentColor"/>
</a>
<path transform="translate(9.3358, 18.3177) scale(0.0040, -0.0040)" d="M557 -125c0 28 23 51 51 51s51 -23 51 -51s-23 -51 -51 -51s-51 23 -51 51zM557 125c0 28 23 51 51 51s51 -23 51 -51s-23 -51 -51 -51s-51 23 -51 51zM232 263c172 0 293 -88 293 -251c0 -263 -263 -414 -516 -521c-3 -3 -6 -4 -9 -4c-7 0 -13 6 -13 13c0 3 1 6 4 9
c202 118 412 265 412 493c0 120 -63 235 -171 235c-74 0 -129 -54 -154 -126c11 5 22 8 34 8c55 0 100 -45 100 -100c0 -58 -44 -106 -100 -106c-60 0 -112 47 -112 106c0 133 102 244 232 244z" fill="currentColor"/>
<a style="color:inherit;" xlink:href="textedit:///tmp/src/s/b/sphinx/html/-:51:8:9">
<path transform="translate(18.6906, 16.8177) scale(0.0040, -0.0040)" d="M220 138c56 0 109 -29 109 -91c0 -72 -56 -121 -103 -149c-36 -21 -76 -36 -117 -36c-56 0 -109 29 -109 91c0 72 56 121 103 149c36 21 76 36 117 36z" fill="currentColor"/>
</a>
<path transform="translate(15.0858, 7.2613) scale(0.0040, -0.0040)" d="M204 307c22 14 44 29 60 50c11 15 19 33 27 50c2 4 5 6 9 6c6 0 13 -5 13 -14v-245h72c10 0 15 -7 15 -14s-5 -15 -15 -15h-72v-8c0 -48 27 -94 72 -94c8 0 12 -5 12 -11s-4 -12 -12 -12c-44 0 -87 13 -131 13s-87 -13 -131 -13c-8 0 -12 6 -12 12s4 11 12 11
c45 0 73 46 73 94v8h-167c-23 0 -31 14 -31 23c0 3 1 5 2 6c80 93 138 207 138 330c0 9 6 16 13 16h3c23 -7 47 -13 71 -13s48 6 71 13c2 1 3 1 5 1c11 0 18 -10 12 -17l-284 -330h167v131c0 8 1 17 8 22z" fill="currentColor"/>
<path transform="translate(15.2224, 5.2127) scale(0.0040, -0.0040)" d="M150 477c-29 0 -59 -8 -59 -33c0 -22 36 -25 36 -47c0 -32 -26 -58 -58 -58s-57 26 -57 58c0 65 67 103 138 103c91 0 169 -33 169 -114c0 -43 -4 -82 -42 -100c-9 -4 -14 -12 -14 -21s5 -18 14 -22c41 -19 56 -57 56 -103c0 -92 -79 -140 -179 -140
c-79 0 -154 42 -154 113c0 36 30 66 66 66s65 -30 65 -66c0 -25 -40 -28 -40 -53c0 -27 32 -37 63 -37c49 0 63 61 63 117v16c0 54 -2 94 -50 94h-80c-10 0 -14 8 -14 15s4 14 14 14h80c49 0 50 43 50 99v8c0 54 -18 91 -67 91z" fill="currentColor"/>
<a style="color:inherit;" xlink:href="textedit:///tmp/src/s/b/sphinx/html/-:12:8:9">
<path transform="translate(12.8358, 3.2127) scale(0.0040, -0.0040)" d="M216 -312c0 -10 -8 -19 -18 -19s-19 9 -19 19v145l-83 -31v-158c0 -10 -9 -19 -19 -19s-18 9 -18 19v145l-32 -12c-2 -1 -5 -1 -7 -1c-11 0 -20 9 -20 20v60c0 8 5 16 13 19l46 16v160l-32 -11c-2 -1 -5 -1 -7 -1c-11 0 -20 9 -20 20v60c0 8 5 15 13 18l46 17v158
c0 10 8 19 18 19s19 -9 19 -19v-145l83 31v158c0 10 9 19 19 19s18 -9 18 -19v-145l32 12c2 1 5 1 7 1c11 0 20 -9 20 -20v-60c0 -8 -5 -16 -13 -19l-46 -16v-160l32 11c2 1 5 1 7 1c11 0 20 -9 20 -20v-60c0 -8 -5 -15 -13 -18l-46 -17v-158zM96 65v-160l83 30v160z" fill="currentColor"/>
</a>
<path transform="translate(9.3358, 6.2127) scale(0.0040, -0.0040)" d="M376 262c4 0 9 1 13 1c155 0 256 -128 256 -261c0 -76 -33 -154 -107 -210c-22 -17 -47 -28 -73 -36c3 -35 5 -70 5 -105c0 -19 -1 -39 -2 -58c-7 -120 -90 -228 -208 -228c-108 0 -195 88 -195 197c0 58 53 103 112 103c54 0 95 -47 95 -103c0 -52 -43 -95 -95 -95
c-11 0 -21 2 -31 6c26 -39 68 -65 117 -65c96 0 157 92 163 191c1 18 2 37 2 55c0 31 -1 61 -4 92c-29 -5 -58 -8 -89 -8c-188 0 -333 172 -333 374c0 177 131 306 248 441c-19 62 -37 125 -45 190c-6 52 -7 104 -7 156c0 115 55 224 149 292c3 2 7 3 10 3c4 0 7 0 10 -3
c71 -84 133 -245 133 -358c0 -143 -86 -255 -180 -364c21 -68 39 -138 56 -207zM461 -203c68 24 113 95 113 164c0 90 -66 179 -173 190c24 -116 46 -231 60 -354zM74 28c0 -135 129 -247 264 -247c28 0 55 2 82 6c-14 127 -37 245 -63 364c-79 -8 -124 -61 -124 -119
c0 -44 25 -91 81 -123c5 -5 7 -10 7 -15c0 -11 -10 -22 -22 -22c-3 0 -6 1 -9 2c-80 43 -117 115 -117 185c0 88 58 174 160 197c-14 58 -29 117 -46 175c-107 -121 -213 -243 -213 -403zM408 1045c-99 -48 -162 -149 -162 -259c0 -74 18 -133 36 -194
c80 97 146 198 146 324c0 55 -4 79 -20 129z" fill="currentColor"/>
<a style="color:inherit;" xlink:href="textedit:///tmp/src/s/b/sphinx/html/-:14:11:12">
<path transform="translate(19.3487, 2.2947) scale(0.0040, -0.0040)" d="M20 -147c0 -11 -9 -20 -20 -20s-20 9 -20 20v81l-33 -50c-4 -6 -10 -9 -17 -9c-6 0 -11 2 -15 7l-99 119c-10 -16 -21 -31 -31 -47c-4 -6 -9 -9 -16 -9c-11 0 -20 9 -20 20c0 4 1 8 3 11c31 47 62 93 93 140c4 6 10 9 17 9c6 0 11 -2 15 -7l98 -119l5 7v141
c0 11 9 20 20 20s20 -9 20 -20v-81l33 50c4 6 10 9 17 9c6 0 11 -2 15 -7l99 -119c10 16 21 31 31 47c4 6 9 9 16 9c11 0 20 -9 20 -20c0 -4 -1 -8 -3 -11c-31 -47 -62 -93 -93 -140c-4 -6 -10 -9 -17 -9c-6 0 -11 2 -15 7l-98 119l-5 -7v-141z" fill="currentColor"/>
</a>
<a style="color:inherit;" xlink:href="textedit:///tmp/src/s/b/sphinx/html/-:14:8:9">
<path transform="translate(18.6906, 13.2127) scale(0.0040, -0.0040)" d="M220 138c56 0 109 -29 109 -91c0 -72 -56 -121 -103 -149c-36 -21 -76 -36 -117 -36c-56 0 -109 29 -109 91c0 72 56 121 103 149c36 21 76 36 117 36z" fill="currentColor"/>
</a>
<rect transform="translate(8.4758, 12.2652)" x="0.0000" y="-9.1025" width="0.1600" height="18.2049" ry="0.0500" fill="currentColor"/>
<path transform="translate(8.1758, 12.2652) scale(0.0040, -0.0040)" d="M-12 -680c0 -368 -136 -724 -136 -1072c0 -184 36 -360 160 -504c4 -4 8 -8 8 -12c0 -8 -12 -20 -20 -20c-4 0 -8 4 -12 8c-164 192 -220 432 -220 680c0 372 144 736 144 1092c0 184 -40 356 -164 500c0 4 -4 4 -4 8s4 4 4 8c124 144 164 316 164 500
c0 356 -144 720 -144 1092c0 248 56 488 220 680c4 4 8 8 12 8c8 0 20 -12 20 -20c0 -4 -4 -8 -8 -12c-124 -144 -160 -320 -160 -504c0 -348 136 -704 136 -1072c0 -248 -56 -488 -216 -680c160 -192 216 -432 216 -680z" fill="currentColor"/>
<rect transform="translate(18.7556, 19.3177)" x="-0.0650" y="-2.3122" width="0.1300" height="5.3152" ry="0.0400" fill="currentColor"/>
<path transform="translate(20.0067, 5.2527) scale(0.0040, -0.0040)" d="M0 0c0 -198 209 -335 209 -533c0 -71 -16 -141 -42 -207c-5 -8 -12 -12 -19 -12c-13 0 -26 11 -23 27c26 61 42 126 42 192c0 104 -95 208 -167 283h-16v250h16z" fill="currentColor"/>
<rect transform="translate(58.5562, 5.2127)" x="-0.0650" y="-1.8122" width="0.1300" height="3.6222" ry="0.0400" fill="currentColor"/>
<a style="color:inherit;" xlink:href="textedit:///tmp/src/s/b/sphinx/html/-:51:40:41">
<path transform="translate(58.4912, 17.8177) scale(0.0040, -0.0040)" d="M220 138c56 0 109 -29 109 -91c0 -72 -56 -121 -103 -149c-36 -21 -76 -36 -117 -36c-56 0 -109 29 -109 91c0 72 56 121 103 149c36 21 76 36 117 36z" fill="currentColor"/>
</a>
<a style="color:inherit;" xlink:href="textedit:///tmp/src/s/b/sphinx/html/-:14:38:39">
<path transform="translate(58.4912, 3.2127) scale(0.0040, -0.0040)" d="M220 138c56 0 109 -29 109 -91c0 -72 -56 -121 -103 -149c-36 -21 -76 -36 -117 -36c-56 0 -109 29 -109 91c0 72 56 121 103 149c36 21 76 36 117 36z" fill="currentColor"/>
</a>
<rect transform="translate(54.9152, 19.3177)" x="-0.0650" y="-1.8122" width="0.1300" height="3.6222" ry="0.0400" fill="currentColor"/>
<rect transform="translate(54.9152, 5.2127)" x="-0.0650" y="-2.3122" width="0.1300" height="4.1222" ry="0.0400" fill="currentColor"/>
<a style="color:inherit;" xlink:href="textedit:///tmp/src/s/b/sphinx/html/-:51:38:39">
<path transform="translate(54.8502, 17.3177) scale(0.0040, -0.0040)" d="M220 138c56 0 109 -29 109 -91c0 -72 -56 -121 -103 -149c-36 -21 -76 -36 -117 -36c-56 0 -109 29 -109 91c0 72 56 121 103 149c36 21 76 36 117 36z" fill="currentColor"/>
</a>
<rect transform="translate(61.0382, 5.2127)" x="-0.0650" y="-2.3122" width="0.1300" height="4.1222" ry="0.0400" fill="currentColor"/>
<rect transform="translate(64.5610, 5.2127)" x="-0.0650" y="-2.8122" width="0.1300" height="3.3122" ry="0.0400" fill="currentColor"/>
<a style="color:inherit;" xlink:href="textedit:///tmp/src/s/b/sphinx/html/-:52:8:9">
<path transform="translate(64.4960, 15.8177) scale(0.0040, -0.0040)" d="M220 138c56 0 109 -29 109 -91c0 -72 -56 -121 -103 -149c-36 -21 -76 -36 -117 -36c-56 0 -109 29 -109 91c0 72 56 121 103 149c36 21 76 36 117 36z" fill="currentColor"/>
</a>
<a style="color:inherit;" xlink:href="textedit:///tmp/src/s/b/sphinx/html/-:15:8:9">
<path transform="translate(64.4960, 2.2127) scale(0.0040, -0.0040)" d="M220 138c56 0 109 -29 109 -91c0 -72 -56 -121 -103 -149c-36 -21 -76 -36 -117 -36c-56 0 -109 29 -109 91c0 72 56 121 103 149c36 21 76 36 117 36z" fill="currentColor"/>
</a>
<a style="color:inherit;" xlink:href="textedit:///tmp/src/s/b/sphinx/html/-:14:32:33">
<path transform="translate(54.8502, 2.7127) scale(0.0040, -0.0040)" d="M220 138c56 0 109 -29 109 -91c0 -72 -56 -121 -103 -149c-36 -21 -76 -36 -117 -36c-56 0 -109 29 -109 91c0 72 56 121 103 149c36 21 76 36 117 36z" fill="currentColor"/>
</a>
<a style="color:inherit;" xlink:href="textedit:///tmp/src/s/b/sphinx/html/-:14:46:47">
<path transform="translate(60.9732, 2.7127) scale(0.0040, -0.0040)" d="M220 138c56 0 109 -29 109 -91c0 -72 -56 -121 -103 -149c-36 -21 -76 -36 -117 -36c-56 0 -109 29 -109 91c0 72 56 121 103 149c36 21 76 36 117 36z" fill="currentColor"/>
</a>
<rect transform="translate(58.5562, 19.3177)" x="-0.0650" y="-1.3122" width="0.1300" height="3.1222" ry="0.0400" fill="currentColor"/>
<a style="color:inherit;" xlink:href="textedit:///tmp/src/s/b/sphinx/html/-:51:33:34">
<path transform="translate(47.3181, 17.8177) scale(0.0040, -0.0040)" d="M220 138c56 0 109 -29 109 -91c0 -72 -56 -121 -103 -149c-36 -21 -76 -36 -117 -36c-56 0 -109 29 -109 91c0 72 56 121 103 149c36 21 76 36 117 36z" fill="currentColor"/>
</a>
<rect transform="translate(43.9921, 19.3177)" x="-0.0650" y="-2.3122" width="0.1300" height="3.1222" ry="0.0400" fill="currentColor"/>
<a style="color:inherit;" xlink:href="textedit:///tmp/src/s/b/sphinx/html/-:51:30:31">
<path transform="translate(43.9271, 16.8177) scale(0.0040, -0.0040)" d="M220 138c56 0 109 -29 109 -91c0 -72 -56 -121 -103 -149c-36 -21 -76 -36 -117 -36c-56 0 -109 29 -109 91c0 72 56 121 103 149c36 21 76 36 117 36z" fill="currentColor"/>
</a>
<rect transform="translate(51.2742, 19.3177)" x="-0.0650" y="-2.3122" width="0.1300" height="4.1222" ry="0.0400" fill="currentColor"/>
<rect transform="translate(40.6011, 19.3177)" x="-0.0650" y="-3.3122" width="0.1300" height="4.1222" ry="0.0400" fill="currentColor"/>
<a style="color:inherit;" xlink:href="textedit:///tmp/src/s/b/sphinx/html/-:51:27:28">
<path transform="translate(40.5361, 15.8177) scale(0.0040, -0.0040)" d="M220 138c56 0 109 -29 109 -91c0 -72 -56 -121 -103 -149c-36 -21 -76 -36 -117 -36c-56 0 -109 29 -109 91c0 72 56 121 103 149c36 21 76 36 117 36z" fill="currentColor"/>
</a>
<a style="color:inherit;" xlink:href="textedit:///tmp/src/s/b/sphinx/html/-:51:36:37">
<path transform="translate(51.2092, 16.8177) scale(0.0040, -0.0040)" d="M220 138c56 0 109 -29 109 -91c0 -72 -56 -121 -103 -149c-36 -21 -76 -36 -117 -36c-56 0 -109 29 -109 91c0 72 56 121 103 149c36 21 76 36 117 36z" fill="currentColor"/>
</a>
<rect transform="translate(47.3831, 19.3177)" x="-0.0650" y="-1.3122" width="0.1300" height="3.1222" ry="0.0400" fill="currentColor"/>
</svg>
