<svg xmlns="http://www.w3.org/2000/svg" xmlns:xlink="http://www.w3.org/1999/xlink" version="1.2" width="32.48mm" height="15.07mm" viewBox="8.5358 -0.0000 18.4823 8.5750">
<line transform="translate(8.5358, 7.0250)" stroke-linejoin="round" stroke-linecap="round" stroke-width="0.1000" stroke="currentColor" x1="0.0500" y1="-0.0000" x2="18.4823" y2="-0.0000"/>
<line transform="translate(8.5358, 6.0250)" stroke-linejoin="round" stroke-linecap="round" stroke-width="0.1000" stroke="currentColor" x1="0.0500" y1="-0.0000" x2="18.4823" y2="-0.0000"/>
<line transform="translate(8.5358, 5.0250)" stroke-linejoin="round" stroke-linecap="round" stroke-width="0.1000" stroke="currentColor" x1="0.0500" y1="-0.0000" x2="18.4823" y2="-0.0000"/>
<line transform="translate(8.5358, 4.0250)" stroke-linejoin="round" stroke-linecap="round" stroke-width="0.1000" stroke="currentColor" x1="0.0500" y1="-0.0000" x2="18.4823" y2="-0.0000"/>
<line transform="translate(8.5358, 3.0250)" stroke-linejoin="round" stroke-linecap="round" stroke-width="0.1000" stroke="currentColor" x1="0.0500" y1="-0.0000" x2="18.4823" y2="-0.0000"/>
<path transform="translate(25.8682, 0.0650) scale(0.0040, -0.0040)" d="M0 -212v-20c0 -111 84 -194 144 -285c4 15 6 30 6 46c0 94 -85 190 -150 259zM0 0c0 -176 193 -295 193 -471c0 -33 -7 -66 -19 -97c17 -35 29 -72 29 -113c0 -42 -11 -82 -29 -120c17 -35 29 -71 29 -112c0 -42 -11 -82 -29 -120c17 -35 29 -72 29 -113
c0 -36 -14 -70 -35 -99c24 -41 41 -84 41 -133c0 -61 -16 -120 -42 -175c-5 -8 -12 -11 -19 -11c-13 0 -26 11 -23 27c26 49 42 103 42 159c0 92 -95 177 -167 236v-108h-16v1250h16zM0 -445v-20c0 -112 87 -196 147 -289c9 23 13 48 13 73c0 91 -91 176 -160 236zM0 -677
v-20c0 -112 87 -196 147 -289c9 23 13 48 13 73c0 91 -91 176 -160 236zM0 -910v-20c0 -108 82 -189 143 -277c11 18 17 39 17 61c0 91 -91 176 -160 236z" fill="currentColor"/>
<path transform="translate(24.5520, 6.0250) scale(0.0040, -0.0040)" d="M220 138c56 0 109 -29 109 -91c0 -72 -56 -121 -103 -149c-36 -21 -76 -36 -117 -36c-56 0 -109 29 -109 91c0 72 56 121 103 149c36 21 76 36 117 36z" fill="currentColor"/>
<rect transform="translate(25.8032, 5.0250)" x="-0.0650" y="-5.0000" width="0.1300" height="5.8122" ry="0.0400" fill="currentColor"/>
<path transform="translate(13.5358, 5.0250) scale(0.0040, -0.0040)" d="M359 27c-49 0 -75 42 -75 75c0 38 27 77 72 77c4 0 9 0 14 -1c-28 37 -72 59 -120 59c-106 0 -113 -73 -113 -186v-51v-51c0 -113 7 -187 113 -187c80 0 139 70 158 151c2 7 7 10 12 10c6 0 13 -4 13 -12c0 -94 -105 -174 -183 -174c-68 0 -137 21 -184 70
c-49 51 -66 122 -66 193s17 142 66 193c47 49 116 69 184 69c87 0 160 -64 175 -150c1 -5 1 -9 1 -13c0 -40 -30 -72 -67 -72z" fill="currentColor"/>
<path transform="translate(9.3358, 6.0250) scale(0.0040, -0.0040)" d="M376 262c4 0 9 1 13 1c155 0 256 -128 256 -261c0 -76 -33 -154 -107 -210c-22 -17 -47 -28 -73 -36c3 -35 5 -70 5 -105c0 -19 -1 -39 -2 -58c-7 -120 -90 -228 -208 -228c-108 0 -195 88 -195 197c0 58 53 103 112 103c54 0 95 -47 95 -103c0 -52 -43 -95 -95 -95
c-11 0 -21 2 -31 6c26 -39 68 -65 117 -65c96 0 157 92 163 191c1 18 2 37 2 55c0 31 -1 61 -4 92c-29 -5 -58 -8 -89 -8c-188 0 -333 172 -333 374c0 177 131 306 248 441c-19 62 -37 125 -45 190c-6 52 -7 104 -7 156c0 115 55 224 149 292c3 2 7 3 10 3c4 0 7 0 10 -3
c71 -84 133 -245 133 -358c0 -143 -86 -255 -180 -364c21 -68 39 -138 56 -207zM461 -203c68 24 113 95 113 164c0 90 -66 179 -173 190c24 -116 46 -231 60 -354zM74 28c0 -135 129 -247 264 -247c28 0 55 2 82 6c-14 127 -37 245 -63 364c-79 -8 -124 -61 -124 -119
c0 -44 25 -91 81 -123c5 -5 7 -10 7 -15c0 -11 -10 -22 -22 -22c-3 0 -6 1 -9 2c-80 43 -117 115 -117 185c0 88 58 174 160 197c-14 58 -29 117 -46 175c-107 -121 -213 -243 -213 -403zM408 1045c-99 -48 -162 -149 -162 -259c0 -74 18 -133 36 -194
c80 97 146 198 146 324c0 55 -4 79 -20 129z" fill="currentColor"/>
<path transform="translate(17.2358, 6.0250) scale(0.0040, -0.0040)" d="M220 138c56 0 109 -29 109 -91c0 -72 -56 -121 -103 -149c-36 -21 -76 -36 -117 -36c-56 0 -109 29 -109 91c0 72 56 121 103 149c36 21 76 36 117 36z" fill="currentColor"/>
<rect transform="translate(18.4870, 5.0250)" x="-0.0650" y="-2.5000" width="0.1300" height="3.3122" ry="0.0400" fill="currentColor"/>
<path transform="translate(18.5520, 2.5650) scale(0.0040, -0.0040)" d="M0 0c0 -198 209 -335 209 -533c0 -71 -16 -141 -42 -207c-5 -8 -12 -12 -19 -12c-13 0 -26 11 -23 27c26 61 42 126 42 192c0 104 -95 208 -167 283h-16v250h16z" fill="currentColor"/>
</svg>
