<svg xmlns="http://www.w3.org/2000/svg" xmlns:xlink="http://www.w3.org/1999/xlink" version="1.2" width="86.81mm" height="14.23mm" viewBox="8.5358 0.0000 49.3988 8.1000">
<line transform="translate(8.5358, 6.0500)" stroke-linejoin="round" stroke-linecap="round" stroke-width="0.1000" stroke="currentColor" x1="0.0500" y1="-0.0000" x2="49.3488" y2="-0.0000"/>
<line transform="translate(8.5358, 5.0500)" stroke-linejoin="round" stroke-linecap="round" stroke-width="0.1000" stroke="currentColor" x1="0.0500" y1="-0.0000" x2="49.3488" y2="-0.0000"/>
<line transform="translate(8.5358, 4.0500)" stroke-linejoin="round" stroke-linecap="round" stroke-width="0.1000" stroke="currentColor" x1="0.0500" y1="-0.0000" x2="49.3488" y2="-0.0000"/>
<line transform="translate(8.5358, 3.0500)" stroke-linejoin="round" stroke-linecap="round" stroke-width="0.1000" stroke="currentColor" x1="0.0500" y1="-0.0000" x2="49.3488" y2="-0.0000"/>
<line transform="translate(8.5358, 2.0500)" stroke-linejoin="round" stroke-linecap="round" stroke-width="0.1000" stroke="currentColor" x1="0.0500" y1="-0.0000" x2="49.3488" y2="-0.0000"/>
<rect transform="translate(0.0000, 7.0500)" x="16.9068" y="-0.1000" width="1.9743" height="0.2000" ry="0.1000" fill="currentColor"/>
<rect transform="translate(57.7447, 4.0500)" x="0.0000" y="-2.0000" width="0.1900" height="4.0000" ry="0.0000" fill="currentColor"/>
<path transform="translate(47.4300, 5.0500) scale(0.0040, -0.0040)" d="M220 138c56 0 109 -29 109 -91c0 -72 -56 -121 -103 -149c-36 -21 -76 -36 -117 -36c-56 0 -109 29 -109 91c0 72 56 121 103 149c36 21 76 36 117 36z" fill="currentColor"/>
<polygon transform="translate(48.6161, 2.2400)" stroke-linejoin="round" stroke-linecap="round" stroke-width="0.0800" fill="currentColor" stroke="currentColor" points="7.6385 0.6100 7.6385 1.0100 0.0400 0.2000 0.0400 -0.2000"/>
<polygon transform="translate(48.6161, 3.0500)" stroke-linejoin="round" stroke-linecap="round" stroke-width="0.0800" fill="currentColor" stroke="currentColor" points="7.6385 0.6100 7.6385 1.0100 0.0400 0.2000 0.0400 -0.2000"/>
<rect transform="translate(48.6811, 4.0500)" x="-0.0650" y="-1.8031" width="0.1300" height="2.6153" ry="0.0400" fill="currentColor"/>
<path transform="translate(49.9461, 5.5500) scale(0.0040, -0.0040)" d="M220 138c56 0 109 -29 109 -91c0 -72 -56 -121 -103 -149c-36 -21 -76 -36 -117 -36c-56 0 -109 29 -109 91c0 72 56 121 103 149c36 21 76 36 117 36z" fill="currentColor"/>
<rect transform="translate(51.1973, 4.0500)" x="-0.0650" y="-1.5377" width="0.1300" height="2.8499" ry="0.0400" fill="currentColor"/>
<path transform="translate(52.4623, 6.0500) scale(0.0040, -0.0040)" d="M220 138c56 0 109 -29 109 -91c0 -72 -56 -121 -103 -149c-36 -21 -76 -36 -117 -36c-56 0 -109 29 -109 91c0 72 56 121 103 149c36 21 76 36 117 36z" fill="currentColor"/>
<path transform="translate(42.4154, 4.0500) scale(0.0040, -0.0040)" d="M220 138c56 0 109 -29 109 -91c0 -72 -56 -121 -103 -149c-36 -21 -76 -36 -117 -36c-56 0 -109 29 -109 91c0 72 56 121 103 149c36 21 76 36 117 36z" fill="currentColor"/>
<rect transform="translate(42.4804, 4.0500)" x="-0.0650" y="0.1878" width="0.1300" height="3.3499" ry="0.0400" fill="currentColor"/>
<path transform="translate(44.9315, 4.5500) scale(0.0040, -0.0040)" d="M220 138c56 0 109 -29 109 -91c0 -72 -56 -121 -103 -149c-36 -21 -76 -36 -117 -36c-56 0 -109 29 -109 91c0 72 56 121 103 149c36 21 76 36 117 36z" fill="currentColor"/>
<rect transform="translate(44.9965, 4.0500)" x="-0.0650" y="0.6878" width="0.1300" height="3.1153" ry="0.0400" fill="currentColor"/>
<rect transform="translate(39.9642, 4.0500)" x="-0.0650" y="-0.3122" width="0.1300" height="3.5845" ry="0.0400" fill="currentColor"/>
<path transform="translate(54.9785, 6.5500) scale(0.0040, -0.0040)" d="M220 138c56 0 109 -29 109 -91c0 -72 -56 -121 -103 -149c-36 -21 -76 -36 -117 -36c-56 0 -109 29 -109 91c0 72 56 121 103 149c36 21 76 36 117 36z" fill="currentColor"/>
<rect transform="translate(56.2297, 4.0500)" x="-0.0650" y="-1.0069" width="0.1300" height="3.3190" ry="0.0400" fill="currentColor"/>
<rect transform="translate(53.7135, 4.0500)" x="-0.0650" y="-1.2723" width="0.1300" height="3.0845" ry="0.0400" fill="currentColor"/>
<path transform="translate(9.3358, 5.0500) scale(0.0040, -0.0040)" d="M376 262c4 0 9 1 13 1c155 0 256 -128 256 -261c0 -76 -33 -154 -107 -210c-22 -17 -47 -28 -73 -36c3 -35 5 -70 5 -105c0 -19 -1 -39 -2 -58c-7 -120 -90 -228 -208 -228c-108 0 -195 88 -195 197c0 58 53 103 112 103c54 0 95 -47 95 -103c0 -52 -43 -95 -95 -95
c-11 0 -21 2 -31 6c26 -39 68 -65 117 -65c96 0 157 92 163 191c1 18 2 37 2 55c0 31 -1 61 -4 92c-29 -5 -58 -8 -89 -8c-188 0 -333 172 -333 374c0 177 131 306 248 441c-19 62 -37 125 -45 190c-6 52 -7 104 -7 156c0 115 55 224 149 292c3 2 7 3 10 3c4 0 7 0 10 -3
c71 -84 133 -245 133 -358c0 -143 -86 -255 -180 -364c21 -68 39 -138 56 -207zM461 -203c68 24 113 95 113 164c0 90 -66 179 -173 190c24 -116 46 -231 60 -354zM74 28c0 -135 129 -247 264 -247c28 0 55 2 82 6c-14 127 -37 245 -63 364c-79 -8 -124 -61 -124 -119
c0 -44 25 -91 81 -123c5 -5 7 -10 7 -15c0 -11 -10 -22 -22 -22c-3 0 -6 1 -9 2c-80 43 -117 115 -117 185c0 88 58 174 160 197c-14 58 -29 117 -46 175c-107 -121 -213 -243 -213 -403zM408 1045c-99 -48 -162 -149 -162 -259c0 -74 18 -133 36 -194
c80 97 146 198 146 324c0 55 -4 79 -20 129z" fill="currentColor"/>
<path transform="translate(13.5358, 4.0500) scale(0.0040, -0.0040)" d="M359 27c-49 0 -75 42 -75 75c0 38 27 77 72 77c4 0 9 0 14 -1c-28 37 -72 59 -120 59c-106 0 -113 -73 -113 -186v-51v-51c0 -113 7 -187 113 -187c80 0 139 70 158 151c2 7 7 10 12 10c6 0 13 -4 13 -12c0 -94 -105 -174 -183 -174c-68 0 -137 21 -184 70
c-49 51 -66 122 -66 193s17 142 66 193c47 49 116 69 184 69c87 0 160 -64 175 -150c1 -5 1 -9 1 -13c0 -40 -30 -72 -67 -72z" fill="currentColor"/>
<rect transform="translate(23.5194, 4.0500)" x="-0.0650" y="-1.5377" width="0.1300" height="3.3499" ry="0.0400" fill="currentColor"/>
<path transform="translate(24.7844, 5.5500) scale(0.0040, -0.0040)" d="M220 138c56 0 109 -29 109 -91c0 -72 -56 -121 -103 -149c-36 -21 -76 -36 -117 -36c-56 0 -109 29 -109 91c0 72 56 121 103 149c36 21 76 36 117 36z" fill="currentColor"/>
<rect transform="translate(26.0355, 4.0500)" x="-0.0650" y="-1.8031" width="0.1300" height="3.1153" ry="0.0400" fill="currentColor"/>
<path transform="translate(22.2682, 6.0500) scale(0.0040, -0.0040)" d="M220 138c56 0 109 -29 109 -91c0 -72 -56 -121 -103 -149c-36 -21 -76 -36 -117 -36c-56 0 -109 29 -109 91c0 72 56 121 103 149c36 21 76 36 117 36z" fill="currentColor"/>
<path transform="translate(27.3005, 5.0500) scale(0.0040, -0.0040)" d="M220 138c56 0 109 -29 109 -91c0 -72 -56 -121 -103 -149c-36 -21 -76 -36 -117 -36c-56 0 -109 29 -109 91c0 72 56 121 103 149c36 21 76 36 117 36z" fill="currentColor"/>
<polygon transform="translate(28.4867, 1.0500)" stroke-linejoin="round" stroke-linecap="round" stroke-width="0.0800" fill="currentColor" stroke="currentColor" points="7.6385 -1.0100 7.6385 -0.6100 0.0400 0.2000 0.0400 -0.2000"/>
<polygon transform="translate(28.4867, 1.8600)" stroke-linejoin="round" stroke-linecap="round" stroke-width="0.0800" fill="currentColor" stroke="currentColor" points="7.6385 -1.0100 7.6385 -0.6100 0.0400 0.2000 0.0400 -0.2000"/>
<rect transform="translate(28.5517, 4.0500)" x="-0.0650" y="-3.0069" width="0.1300" height="3.8190" ry="0.0400" fill="currentColor"/>
<path transform="translate(19.7520, 6.5500) scale(0.0040, -0.0040)" d="M220 138c56 0 109 -29 109 -91c0 -72 -56 -121 -103 -149c-36 -21 -76 -36 -117 -36c-56 0 -109 29 -109 91c0 72 56 121 103 149c36 21 76 36 117 36z" fill="currentColor"/>
<polygon transform="translate(18.4220, 3.0500)" stroke-linejoin="round" stroke-linecap="round" stroke-width="0.0800" fill="currentColor" stroke="currentColor" points="7.6385 -1.0100 7.6385 -0.6100 0.0400 0.2000 0.0400 -0.2000"/>
<polygon transform="translate(18.4220, 3.8600)" stroke-linejoin="round" stroke-linecap="round" stroke-width="0.0800" fill="currentColor" stroke="currentColor" points="7.6385 -1.0100 7.6385 -0.6100 0.0400 0.2000 0.0400 -0.2000"/>
<rect transform="translate(18.4870, 4.0500)" x="-0.0650" y="-1.0069" width="0.1300" height="3.8190" ry="0.0400" fill="currentColor"/>
<rect transform="translate(21.0032, 4.0500)" x="-0.0650" y="-1.2723" width="0.1300" height="3.5845" ry="0.0400" fill="currentColor"/>
<path transform="translate(37.3830, 3.0500) scale(0.0040, -0.0040)" d="M220 138c56 0 109 -29 109 -91c0 -72 -56 -121 -103 -149c-36 -21 -76 -36 -117 -36c-56 0 -109 29 -109 91c0 72 56 121 103 149c36 21 76 36 117 36z" fill="currentColor"/>
<path transform="translate(34.8491, 3.5500) scale(0.0040, -0.0040)" d="M220 138c56 0 109 -29 109 -91c0 -72 -56 -121 -103 -149c-36 -21 -76 -36 -117 -36c-56 0 -109 29 -109 91c0 72 56 121 103 149c36 21 76 36 117 36z" fill="currentColor"/>
<rect transform="translate(36.1002, 4.0500)" x="-0.0650" y="-3.8031" width="0.1300" height="3.1153" ry="0.0400" fill="currentColor"/>
<polygon transform="translate(37.3830, 6.2400)" stroke-linejoin="round" stroke-linecap="round" stroke-width="0.0800" fill="currentColor" stroke="currentColor" points="7.6385 0.6100 7.6385 1.0100 0.0400 0.2000 0.0400 -0.2000"/>
<polygon transform="translate(37.3830, 7.0500)" stroke-linejoin="round" stroke-linecap="round" stroke-width="0.0800" fill="currentColor" stroke="currentColor" points="7.6385 0.6100 7.6385 1.0100 0.0400 0.2000 0.0400 -0.2000"/>
<rect transform="translate(37.4480, 4.0500)" x="-0.0650" y="-0.8122" width="0.1300" height="3.8190" ry="0.0400" fill="currentColor"/>
<path transform="translate(39.8992, 3.5500) scale(0.0040, -0.0040)" d="M220 138c56 0 109 -29 109 -91c0 -72 -56 -121 -103 -149c-36 -21 -76 -36 -117 -36c-56 0 -109 29 -109 91c0 72 56 121 103 149c36 21 76 36 117 36z" fill="currentColor"/>
<path transform="translate(29.8167, 4.5500) scale(0.0040, -0.0040)" d="M220 138c56 0 109 -29 109 -91c0 -72 -56 -121 -103 -149c-36 -21 -76 -36 -117 -36c-56 0 -109 29 -109 91c0 72 56 121 103 149c36 21 76 36 117 36z" fill="currentColor"/>
<rect transform="translate(31.0679, 4.0500)" x="-0.0650" y="-3.2723" width="0.1300" height="3.5845" ry="0.0400" fill="currentColor"/>
<path transform="translate(17.2358, 7.0500) scale(0.0040, -0.0040)" d="M220 138c56 0 109 -29 109 -91c0 -72 -56 -121 -103 -149c-36 -21 -76 -36 -117 -36c-56 0 -109 29 -109 91c0 72 56 121 103 149c36 21 76 36 117 36z" fill="currentColor"/>
<path transform="translate(32.3329, 4.0500) scale(0.0040, -0.0040)" d="M220 138c56 0 109 -29 109 -91c0 -72 -56 -121 -103 -149c-36 -21 -76 -36 -117 -36c-56 0 -109 29 -109 91c0 72 56 121 103 149c36 21 76 36 117 36z" fill="currentColor"/>
<rect transform="translate(33.5841, 4.0500)" x="-0.0650" y="-3.5377" width="0.1300" height="3.3499" ry="0.0400" fill="currentColor"/>
</svg>
